solid CATIA STL
  facet normal  1.241816e-001 -7.976389e-001  5.902128e-001
    outer loop
      vertex  2.245414e+002  2.599399e+001 -4.580939e+001
      vertex  2.286841e+002  2.624128e+001 -4.634682e+001
      vertex  2.246357e+002  2.635221e+001 -4.534510e+001
    endloop
  endfacet
  facet normal  4.564283e-002 -9.558403e-001  2.903205e-001
    outer loop
      vertex  2.246357e+002  2.635221e+001 -4.534510e+001
      vertex  2.286841e+002  2.624128e+001 -4.634682e+001
      vertex  2.288499e+002  2.650000e+001 -4.552108e+001
    endloop
  endfacet
  facet normal  4.366364e-002 -9.724529e-001  2.289733e-001
    outer loop
      vertex  2.246357e+002  2.635221e+001 -4.534510e+001
      vertex  2.288499e+002  2.650000e+001 -4.552108e+001
      vertex  2.247566e+002  2.649965e+001 -4.474197e+001
    endloop
  endfacet
  facet normal -2.818731e-002 -9.885058e-001 -1.485312e-001
    outer loop
      vertex  2.247566e+002  2.649965e+001 -4.474197e+001
      vertex  2.288499e+002  2.650000e+001 -4.552108e+001
      vertex  2.289371e+002  2.643127e+001 -4.508020e+001
    endloop
  endfacet
  facet normal -3.011901e-002 -9.844201e-001 -1.732338e-001
    outer loop
      vertex  2.247566e+002  2.649965e+001 -4.474197e+001
      vertex  2.289371e+002  2.643127e+001 -4.508020e+001
      vertex  2.248701e+002  2.639512e+001 -4.416769e+001
    endloop
  endfacet
  facet normal -1.238594e-001 -8.023800e-001 -5.838196e-001
    outer loop
      vertex  2.248701e+002  2.639512e+001 -4.416769e+001
      vertex  2.289371e+002  2.643127e+001 -4.508020e+001
      vertex  2.290888e+002  2.584247e+001 -4.430315e+001
    endloop
  endfacet
  facet normal -1.239734e-001 -8.037030e-001 -5.819726e-001
    outer loop
      vertex  2.248701e+002  2.639512e+001 -4.416769e+001
      vertex  2.290888e+002  2.584247e+001 -4.430315e+001
      vertex  2.249892e+002  2.593448e+001 -4.355692e+001
    endloop
  endfacet
  facet normal -1.775637e-001 -2.937273e-001 -9.392526e-001
    outer loop
      vertex  2.249892e+002  2.593448e+001 -4.355692e+001
      vertex  2.290888e+002  2.584247e+001 -4.430315e+001
      vertex  2.291378e+002  2.500000e+001 -4.404896e+001
    endloop
  endfacet
  facet normal -1.841568e-001 -3.300710e-001 -9.258182e-001
    outer loop
      vertex  2.249892e+002  2.593448e+001 -4.355692e+001
      vertex  2.291378e+002  2.500000e+001 -4.404896e+001
      vertex  2.250511e+002  2.500000e+001 -4.323606e+001
    endloop
  endfacet
  facet normal  1.380566e-001 -5.996464e-001  7.882667e-001
    outer loop
      vertex  2.286841e+002  2.624128e+001 -4.634682e+001
      vertex  2.245414e+002  2.599399e+001 -4.580939e+001
      vertex  2.285670e+002  2.545998e+001 -4.692066e+001
    endloop
  endfacet
  facet normal  2.048687e-001 -3.543228e-001  9.124057e-001
    outer loop
      vertex  2.285670e+002  2.545998e+001 -4.692066e+001
      vertex  2.245414e+002  2.599399e+001 -4.580939e+001
      vertex  2.244658e+002  2.500000e+001 -4.617842e+001
    endloop
  endfacet
  facet normal  1.927357e-001 -1.549084e-001  9.689460e-001
    outer loop
      vertex  2.285670e+002  2.545998e+001 -4.692066e+001
      vertex  2.244658e+002  2.500000e+001 -4.617842e+001
      vertex  2.285525e+002  2.500000e+001 -4.699131e+001
    endloop
  endfacet
  facet normal -1.111365e-001 -7.976371e-001  5.928100e-001
    outer loop
      vertex  2.249797e+002  2.599399e+001  4.360593e+001
      vertex  2.290127e+002  2.624128e+001  4.469474e+001
      vertex  2.248891e+002  2.635221e+001  4.407094e+001
    endloop
  endfacet
  facet normal -6.893234e-002 -9.558403e-001  2.856880e-001
    outer loop
      vertex  2.248891e+002  2.635221e+001  4.407094e+001
      vertex  2.290127e+002  2.624128e+001  4.469474e+001
      vertex  2.288499e+002  2.650000e+001  4.552108e+001
    endloop
  endfacet
  facet normal -4.728469e-002 -9.724526e-001  2.282544e-001
    outer loop
      vertex  2.248891e+002  2.635221e+001  4.407094e+001
      vertex  2.288499e+002  2.650000e+001  4.552108e+001
      vertex  2.247700e+002  2.649965e+001  4.467442e+001
    endloop
  endfacet
  facet normal  3.079891e-002 -9.885058e-001 -1.480123e-001
    outer loop
      vertex  2.247700e+002  2.649965e+001  4.467442e+001
      vertex  2.288499e+002  2.650000e+001  4.552108e+001
      vertex  2.287618e+002  2.643127e+001  4.596178e+001
    endloop
  endfacet
  facet normal  3.846746e-002 -9.844201e-001 -1.715736e-001
    outer loop
      vertex  2.247700e+002  2.649965e+001  4.467442e+001
      vertex  2.287618e+002  2.643127e+001  4.596178e+001
      vertex  2.246552e+002  2.639512e+001  4.524845e+001
    endloop
  endfacet
  facet normal  1.089869e-001 -8.023807e-001 -5.867769e-001
    outer loop
      vertex  2.246552e+002  2.639512e+001  4.524845e+001
      vertex  2.287618e+002  2.643127e+001  4.596178e+001
      vertex  2.286045e+002  2.584247e+001  4.673771e+001
    endloop
  endfacet
  facet normal  1.081755e-001 -8.037025e-001 -5.851157e-001
    outer loop
      vertex  2.246552e+002  2.639512e+001  4.524845e+001
      vertex  2.286045e+002  2.584247e+001  4.673771e+001
      vertex  2.245315e+002  2.593448e+001  4.585831e+001
    endloop
  endfacet
  facet normal  1.953899e-001 -2.937278e-001 -9.357066e-001
    outer loop
      vertex  2.245315e+002  2.593448e+001  4.585831e+001
      vertex  2.286045e+002  2.584247e+001  4.673771e+001
      vertex  2.285525e+002  2.500000e+001  4.699131e+001
    endloop
  endfacet
  facet normal  1.841569e-001 -3.300735e-001 -9.258174e-001
    outer loop
      vertex  2.245315e+002  2.593448e+001  4.585831e+001
      vertex  2.285525e+002  2.500000e+001  4.699131e+001
      vertex  2.244658e+002  2.500000e+001  4.617842e+001
    endloop
  endfacet
  facet normal -1.741077e-001 -5.996521e-001  7.810915e-001
    outer loop
      vertex  2.290127e+002  2.624128e+001  4.469474e+001
      vertex  2.249797e+002  2.599399e+001  4.360593e+001
      vertex  2.291242e+002  2.546000e+001  4.411979e+001
    endloop
  endfacet
  facet normal -1.598884e-001 -3.543220e-001  9.213532e-001
    outer loop
      vertex  2.291242e+002  2.546000e+001  4.411979e+001
      vertex  2.249797e+002  2.599399e+001  4.360593e+001
      vertex  2.250511e+002  2.500000e+001  4.323606e+001
    endloop
  endfacet
  facet normal -1.927355e-001 -1.549095e-001  9.689459e-001
    outer loop
      vertex  2.291242e+002  2.546000e+001  4.411979e+001
      vertex  2.250511e+002  2.500000e+001  4.323606e+001
      vertex  2.291378e+002  2.500000e+001  4.404896e+001
    endloop
  endfacet
  facet normal -3.007070e-001  0.000000e+000  9.537165e-001
    outer loop
      vertex  2.225340e+002  5.000000e+000  7.016469e+001
      vertex  2.225340e+002  4.000000e+001  7.016469e+001
      vertex  2.185601e+002  5.000000e+000  6.891174e+001
    endloop
  endfacet
  facet normal -3.007070e-001  0.000000e+000  9.537165e-001
    outer loop
      vertex  2.185601e+002  5.000000e+000  6.891174e+001
      vertex  2.225340e+002  4.000000e+001  7.016469e+001
      vertex  2.185601e+002  4.000000e+001  6.891174e+001
    endloop
  endfacet
  facet normal -3.826832e-001  0.000000e+000 -9.238797e-001
    outer loop
      vertex  2.194214e+002 -1.185282e-015 -9.088731e+001
      vertex  2.078729e+002 -2.342494e-015 -8.610378e+001
      vertex  2.078729e+002  5.000000e+000 -8.610378e+001
    endloop
  endfacet
  facet normal -3.826828e-001  1.167855e-006 -9.238799e-001
    outer loop
      vertex  2.194214e+002 -1.185282e-015 -9.088731e+001
      vertex  2.078729e+002  5.000000e+000 -8.610378e+001
      vertex  2.117224e+002  5.000000e+000 -8.769829e+001
    endloop
  endfacet
  facet normal -3.826841e-001 -1.167859e-006 -9.238793e-001
    outer loop
      vertex  2.194214e+002 -1.185282e-015 -9.088731e+001
      vertex  2.117224e+002  5.000000e+000 -8.769829e+001
      vertex  2.155719e+002  5.000000e+000 -8.929280e+001
    endloop
  endfacet
  facet normal -3.826828e-001  0.000000e+000 -9.238799e-001
    outer loop
      vertex  2.194214e+002 -1.185282e-015 -9.088731e+001
      vertex  2.155719e+002  5.000000e+000 -8.929280e+001
      vertex  2.194214e+002  5.000000e+000 -9.088731e+001
    endloop
  endfacet
  facet normal -3.826841e-001  0.000000e+000 -9.238793e-001
    outer loop
      vertex  2.155719e+002  5.000000e+000 -8.929280e+001
      vertex  2.117224e+002  5.000000e+000 -8.769829e+001
      vertex  2.155719e+002  4.000000e+001 -8.929280e+001
    endloop
  endfacet
  facet normal -3.826841e-001  0.000000e+000 -9.238793e-001
    outer loop
      vertex  2.155719e+002  4.000000e+001 -8.929280e+001
      vertex  2.117224e+002  5.000000e+000 -8.769829e+001
      vertex  2.117224e+002  4.000000e+001 -8.769829e+001
    endloop
  endfacet
  facet normal -3.826832e-001  0.000000e+000  9.238797e-001
    outer loop
      vertex  2.194214e+002 -9.044399e-010  9.088731e+001
      vertex  2.194214e+002  5.000000e+000  9.088731e+001
      vertex  2.078729e+002 -2.342494e-015  8.610378e+001
    endloop
  endfacet
  facet normal -3.826832e-001  0.000000e+000  9.238797e-001
    outer loop
      vertex  2.078729e+002 -2.342494e-015  8.610378e+001
      vertex  2.194214e+002  5.000000e+000  9.088731e+001
      vertex  2.078729e+002  5.000000e+000  8.610378e+001
    endloop
  endfacet
  facet normal -9.637999e-001 -1.181863e-002  2.663650e-001
    outer loop
      vertex  2.187832e+002 -1.249228e-015 -5.252521e+001
      vertex  2.191456e+002  5.000000e+000 -5.099236e+001
      vertex  2.142298e+002  5.000000e+000 -6.877942e+001
    endloop
  endfacet
  facet normal -9.807232e-001  1.126221e-002  1.950777e-001
    outer loop
      vertex  2.191456e+002  5.000000e+000 -5.099236e+001
      vertex  2.187832e+002 -1.249228e-015 -5.252521e+001
      vertex  2.222299e+002 -9.038583e-016 -3.519775e+001
    endloop
  endfacet
  facet normal -9.823145e-001 -1.689607e-002  1.864745e-001
    outer loop
      vertex  2.222299e+002 -9.038583e-016 -3.519775e+001
      vertex  2.225872e+002  5.000000e+000 -3.286228e+001
      vertex  2.191456e+002  5.000000e+000 -5.099236e+001
    endloop
  endfacet
  facet normal -9.929402e-001  1.607060e-002  1.175222e-001
    outer loop
      vertex  2.225872e+002  5.000000e+000 -3.286228e+001
      vertex  2.222299e+002 -9.038583e-016 -3.519775e+001
      vertex  2.243064e+002 -6.957809e-016 -1.765330e+001
    endloop
  endfacet
  facet normal -9.624384e-001  5.905679e-003  2.714358e-001
    outer loop
      vertex  2.187832e+002 -1.249228e-015 -5.252521e+001
      vertex  2.142298e+002  5.000000e+000 -6.877942e+001
      vertex  2.139877e+002 -1.729761e-015 -6.952882e+001
    endloop
  endfacet
  facet normal -9.387778e-001 -6.185716e-003  3.444674e-001
    outer loop
      vertex  2.139877e+002 -1.729761e-015 -6.952882e+001
      vertex  2.142298e+002  5.000000e+000 -6.877942e+001
      vertex  2.078729e+002  5.000000e+000 -8.610378e+001
    endloop
  endfacet
  facet normal -9.381913e-001  0.000000e+000  3.461170e-001
    outer loop
      vertex  2.139877e+002 -1.729761e-015 -6.952882e+001
      vertex  2.078729e+002  5.000000e+000 -8.610378e+001
      vertex  2.078729e+002 -2.342494e-015 -8.610378e+001
    endloop
  endfacet
  facet normal -9.942056e-001 -2.142330e-002  1.053390e-001
    outer loop
      vertex  2.225872e+002  5.000000e+000 -3.286228e+001
      vertex  2.243064e+002 -6.957809e-016 -1.765330e+001
      vertex  2.245316e+002  5.000000e+000 -1.451120e+001
    endloop
  endfacet
  facet normal -9.990226e-001  2.032409e-002  3.925191e-002
    outer loop
      vertex  2.245316e+002  5.000000e+000 -1.451120e+001
      vertex  2.243064e+002 -6.957809e-016 -1.765330e+001
      vertex  2.250000e+002 -6.262790e-016  4.263256e-014
    endloop
  endfacet
  facet normal -9.994795e-001 -3.050169e-006  3.226271e-002
    outer loop
      vertex  2.245316e+002  5.000000e+000 -1.451120e+001
      vertex  2.250000e+002 -6.262790e-016  4.263256e-014
      vertex  2.250000e+002  5.000000e+000 -1.433875e-011
    endloop
  endfacet
  facet normal -9.930684e-001 -9.988552e-006 -1.175374e-001
    outer loop
      vertex  2.222299e+002 -9.038583e-016  3.519775e+001
      vertex  2.243064e+002  5.000000e+000  1.765326e+001
      vertex  2.243064e+002 -6.957809e-016  1.765330e+001
    endloop
  endfacet
  facet normal -9.992290e-001 -9.447758e-006 -3.926183e-002
    outer loop
      vertex  2.243064e+002 -6.957809e-016  1.765330e+001
      vertex  2.243064e+002  5.000000e+000  1.765326e+001
      vertex  2.250000e+002  5.000000e+000 -1.433875e-011
    endloop
  endfacet
  facet normal -9.992290e-001 -3.049405e-006 -3.926001e-002
    outer loop
      vertex  2.243064e+002 -6.957809e-016  1.765330e+001
      vertex  2.250000e+002  5.000000e+000 -1.433875e-011
      vertex  2.250000e+002 -6.262790e-016  4.263256e-014
    endloop
  endfacet
  facet normal -9.930682e-001 -1.728687e-005 -1.175394e-001
    outer loop
      vertex  2.243064e+002  5.000000e+000  1.765326e+001
      vertex  2.222299e+002 -9.038583e-016  3.519775e+001
      vertex  2.222298e+002  5.000000e+000  3.519779e+001
    endloop
  endfacet
  facet normal -9.807853e-001 -1.647030e-005 -1.950901e-001
    outer loop
      vertex  2.222298e+002  5.000000e+000  3.519779e+001
      vertex  2.222299e+002 -9.038583e-016  3.519775e+001
      vertex  2.187832e+002 -1.249228e-015  5.252521e+001
    endloop
  endfacet
  facet normal -9.807855e-001 -1.304696e-005 -1.950891e-001
    outer loop
      vertex  2.222298e+002  5.000000e+000  3.519779e+001
      vertex  2.187832e+002 -1.249228e-015  5.252521e+001
      vertex  2.187831e+002  5.000000e+000  5.252533e+001
    endloop
  endfacet
  facet normal -9.624552e-001 -1.078902e-005 -2.714405e-001
    outer loop
      vertex  2.187831e+002  5.000000e+000  5.252533e+001
      vertex  2.187832e+002 -1.249228e-015  5.252521e+001
      vertex  2.139877e+002 -1.729761e-015  6.952882e+001
    endloop
  endfacet
  facet normal -9.624557e-001 -5.121798e-006 -2.714390e-001
    outer loop
      vertex  2.187831e+002  5.000000e+000  5.252533e+001
      vertex  2.139877e+002 -1.729761e-015  6.952882e+001
      vertex  2.139877e+002  5.000000e+000  6.952895e+001
    endloop
  endfacet
  facet normal -9.381913e-001 -3.002407e-006 -3.461170e-001
    outer loop
      vertex  2.139877e+002  5.000000e+000  6.952895e+001
      vertex  2.139877e+002 -1.729761e-015  6.952882e+001
      vertex  2.078729e+002 -2.342494e-015  8.610378e+001
    endloop
  endfacet
  facet normal -9.381917e-001  0.000000e+000 -3.461163e-001
    outer loop
      vertex  2.139877e+002  5.000000e+000  6.952895e+001
      vertex  2.078729e+002 -2.342494e-015  8.610378e+001
      vertex  2.078729e+002  5.000000e+000  8.610378e+001
    endloop
  endfacet
  facet normal  1.002046e-016 -1.000000e+000  1.397179e-023
    outer loop
      vertex  2.250000e+002 -6.262790e-016  4.263256e-014
      vertex  2.367679e+002  5.529158e-016  1.863404e+001
      vertex  2.243064e+002 -6.957809e-016  1.765330e+001
    endloop
  endfacet
  facet normal  1.002046e-016 -1.000000e+000  4.264664e-023
    outer loop
      vertex  2.243064e+002 -6.957809e-016  1.765330e+001
      vertex  2.367679e+002  5.529158e-016  1.863404e+001
      vertex  2.345760e+002  3.332787e-016  3.715319e+001
    endloop
  endfacet
  facet normal  1.002047e-016 -1.000000e+000  3.005878e-024
    outer loop
      vertex  2.243064e+002 -6.957809e-016  1.765330e+001
      vertex  2.345760e+002  3.332787e-016  3.715319e+001
      vertex  2.222299e+002 -9.038583e-016  3.519775e+001
    endloop
  endfacet
  facet normal  1.002047e-016 -1.000000e+000 -2.816864e-024
    outer loop
      vertex  2.222299e+002 -9.038583e-016  3.519775e+001
      vertex  2.345760e+002  3.332787e-016  3.715319e+001
      vertex  2.309379e+002 -3.127827e-017  5.544328e+001
    endloop
  endfacet
  facet normal  1.002047e-016 -9.999999e-001 -1.256380e-023
    outer loop
      vertex  2.222299e+002 -9.038583e-016  3.519775e+001
      vertex  2.309379e+002 -3.127827e-017  5.544328e+001
      vertex  2.187832e+002 -1.249228e-015  5.252521e+001
    endloop
  endfacet
  facet normal  1.002047e-016 -1.000000e+000  2.528926e-023
    outer loop
      vertex  2.187832e+002 -1.249228e-015  5.252521e+001
      vertex  2.309379e+002 -3.127827e-017  5.544328e+001
      vertex  2.258759e+002 -5.385075e-016  7.339153e+001
    endloop
  endfacet
  facet normal  1.002047e-016 -1.000000e+000  1.867257e-023
    outer loop
      vertex  2.187832e+002 -1.249228e-015  5.252521e+001
      vertex  2.258759e+002 -5.385075e-016  7.339153e+001
      vertex  2.139877e+002 -1.729761e-015  6.952882e+001
    endloop
  endfacet
  facet normal  1.499883e-011 -1.000000e+000 -4.616135e-011
    outer loop
      vertex  2.139877e+002 -1.729761e-015  6.952882e+001
      vertex  2.258759e+002 -5.385075e-016  7.339153e+001
      vertex  2.194214e+002 -9.044399e-010  9.088731e+001
    endloop
  endfacet
  facet normal -6.793522e-011 -9.999999e-001 -2.506266e-011
    outer loop
      vertex  2.139877e+002 -1.729761e-015  6.952882e+001
      vertex  2.194214e+002 -9.044399e-010  9.088731e+001
      vertex  2.078729e+002 -2.342494e-015  8.610378e+001
    endloop
  endfacet
  facet normal  1.002046e-016 -1.000000e+000 -1.058891e-023
    outer loop
      vertex  2.367679e+002  5.529158e-016  1.863404e+001
      vertex  2.250000e+002 -6.262790e-016  4.263256e-014
      vertex  2.375000e+002  6.262790e-016  2.842171e-014
    endloop
  endfacet
  facet normal  1.002046e-016 -1.000000e+000 -2.149752e-023
    outer loop
      vertex  2.375000e+002  6.262790e-016  2.842171e-014
      vertex  2.250000e+002 -6.262790e-016  4.263256e-014
      vertex  2.243064e+002 -6.957809e-016 -1.765330e+001
    endloop
  endfacet
  facet normal  1.002046e-016 -1.000000e+000  6.372005e-024
    outer loop
      vertex  2.375000e+002  6.262790e-016  2.842171e-014
      vertex  2.243064e+002 -6.957809e-016 -1.765330e+001
      vertex  2.367679e+002  5.529158e-016 -1.863404e+001
    endloop
  endfacet
  facet normal  1.002046e-016 -1.000000e+000  5.454842e-024
    outer loop
      vertex  2.367679e+002  5.529158e-016 -1.863404e+001
      vertex  2.243064e+002 -6.957809e-016 -1.765330e+001
      vertex  2.222299e+002 -9.038583e-016 -3.519775e+001
    endloop
  endfacet
  facet normal  1.002047e-016 -1.000000e+000 -5.066209e-023
    outer loop
      vertex  2.367679e+002  5.529158e-016 -1.863404e+001
      vertex  2.222299e+002 -9.038583e-016 -3.519775e+001
      vertex  2.345760e+002  3.332787e-016 -3.715319e+001
    endloop
  endfacet
  facet normal  1.002047e-016 -1.000000e+000  2.255984e-023
    outer loop
      vertex  2.345760e+002  3.332787e-016 -3.715319e+001
      vertex  2.222299e+002 -9.038583e-016 -3.519775e+001
      vertex  2.187832e+002 -1.249228e-015 -5.252521e+001
    endloop
  endfacet
  facet normal  1.002047e-016 -1.000000e+000  4.484033e-024
    outer loop
      vertex  2.345760e+002  3.332787e-016 -3.715319e+001
      vertex  2.187832e+002 -1.249228e-015 -5.252521e+001
      vertex  2.309379e+002 -3.127827e-017 -5.544328e+001
    endloop
  endfacet
  facet normal  1.002047e-016 -9.999999e-001 -1.686633e-023
    outer loop
      vertex  2.309379e+002 -3.127827e-017 -5.544328e+001
      vertex  2.187832e+002 -1.249228e-015 -5.252521e+001
      vertex  2.139877e+002 -1.729761e-015 -6.952882e+001
    endloop
  endfacet
  facet normal  1.002047e-016 -1.000000e+000 -3.246492e-023
    outer loop
      vertex  2.309379e+002 -3.127827e-017 -5.544328e+001
      vertex  2.139877e+002 -1.729761e-015 -6.952882e+001
      vertex  2.258759e+002 -5.385075e-016 -7.339153e+001
    endloop
  endfacet
  facet normal  1.002047e-016 -9.999999e-001 -4.202960e-023
    outer loop
      vertex  2.258759e+002 -5.385075e-016 -7.339153e+001
      vertex  2.139877e+002 -1.729761e-015 -6.952882e+001
      vertex  2.078729e+002 -2.342494e-015 -8.610378e+001
    endloop
  endfacet
  facet normal  1.002047e-016 -9.999999e-001  1.483985e-023
    outer loop
      vertex  2.258759e+002 -5.385075e-016 -7.339153e+001
      vertex  2.078729e+002 -2.342494e-015 -8.610378e+001
      vertex  2.194214e+002 -1.185282e-015 -9.088731e+001
    endloop
  endfacet
  facet normal  9.634552e-001  9.292656e-003 -2.677080e-001
    outer loop
      vertex  2.260642e+002  5.000000e+000 -7.280959e+001
      vertex  2.312204e+002  5.000000e+000 -5.425302e+001
      vertex  2.309379e+002 -3.127827e-017 -5.544328e+001
    endloop
  endfacet
  facet normal  9.807459e-001 -8.972861e-003 -1.950824e-001
    outer loop
      vertex  2.345760e+002  3.332787e-016 -3.715319e+001
      vertex  2.309379e+002 -3.127827e-017 -5.544328e+001
      vertex  2.312204e+002  5.000000e+000 -5.425302e+001
    endloop
  endfacet
  facet normal  9.819319e-001  1.346171e-002 -1.887552e-001
    outer loop
      vertex  2.312204e+002  5.000000e+000 -5.425302e+001
      vertex  2.348560e+002  5.000000e+000 -3.533968e+001
      vertex  2.345760e+002  3.332787e-016 -3.715319e+001
    endloop
  endfacet
  facet normal  9.929846e-001 -1.299156e-002 -1.175279e-001
    outer loop
      vertex  2.367679e+002  5.529158e-016 -1.863404e+001
      vertex  2.345760e+002  3.332787e-016 -3.715319e+001
      vertex  2.348560e+002  5.000000e+000 -3.533968e+001
    endloop
  endfacet
  facet normal  9.381915e-001  0.000000e+000 -3.461168e-001
    outer loop
      vertex  2.194214e+002 -1.185282e-015 -9.088731e+001
      vertex  2.194214e+002  5.000000e+000 -9.088731e+001
      vertex  2.258759e+002 -5.385075e-016 -7.339153e+001
    endloop
  endfacet
  facet normal  9.386254e-001  4.801087e-003 -3.449048e-001
    outer loop
      vertex  2.258759e+002 -5.385075e-016 -7.339153e+001
      vertex  2.194214e+002  5.000000e+000 -9.088731e+001
      vertex  2.260642e+002  5.000000e+000 -7.280959e+001
    endloop
  endfacet
  facet normal  9.624448e-001 -4.646465e-003 -2.714377e-001
    outer loop
      vertex  2.258759e+002 -5.385075e-016 -7.339153e+001
      vertex  2.260642e+002  5.000000e+000 -7.280959e+001
      vertex  2.309379e+002 -3.127827e-017 -5.544328e+001
    endloop
  endfacet
  facet normal  9.994180e-001  3.049982e-006 -3.411126e-002
    outer loop
      vertex  2.375000e+002  5.000000e+000 -1.975309e-011
      vertex  2.375000e+002  6.262790e-016  2.842171e-014
      vertex  2.369473e+002  5.000000e+000 -1.619399e+001
    endloop
  endfacet
  facet normal  9.990898e-001 -1.669044e-002 -3.925428e-002
    outer loop
      vertex  2.369473e+002  5.000000e+000 -1.619399e+001
      vertex  2.375000e+002  6.262790e-016  2.842171e-014
      vertex  2.367679e+002  5.529158e-016 -1.863404e+001
    endloop
  endfacet
  facet normal  9.939384e-001  1.731872e-002 -1.085652e-001
    outer loop
      vertex  2.369473e+002  5.000000e+000 -1.619399e+001
      vertex  2.367679e+002  5.529158e-016 -1.863404e+001
      vertex  2.348560e+002  5.000000e+000 -3.533968e+001
    endloop
  endfacet
  facet normal  9.992290e-001  3.049405e-006  3.925975e-002
    outer loop
      vertex  2.375000e+002  6.262790e-016  2.842171e-014
      vertex  2.375000e+002  5.000000e+000 -1.975309e-011
      vertex  2.367679e+002  5.529158e-016  1.863404e+001
    endloop
  endfacet
  facet normal  9.992289e-001  1.248219e-005  3.926227e-002
    outer loop
      vertex  2.367679e+002  5.529158e-016  1.863404e+001
      vertex  2.375000e+002  5.000000e+000 -1.975309e-011
      vertex  2.367678e+002  5.000000e+000  1.863400e+001
    endloop
  endfacet
  facet normal  9.930685e-001  1.297432e-005  1.175379e-001
    outer loop
      vertex  2.367679e+002  5.529158e-016  1.863404e+001
      vertex  2.367678e+002  5.000000e+000  1.863400e+001
      vertex  2.345760e+002  3.332787e-016  3.715319e+001
    endloop
  endfacet
  facet normal  9.930683e-001  1.719720e-005  1.175390e-001
    outer loop
      vertex  2.345760e+002  3.332787e-016  3.715319e+001
      vertex  2.367678e+002  5.000000e+000  1.863400e+001
      vertex  2.345759e+002  5.000000e+000  3.715323e+001
    endloop
  endfacet
  facet normal  9.807853e-001  1.632145e-005  1.950902e-001
    outer loop
      vertex  2.345760e+002  3.332787e-016  3.715319e+001
      vertex  2.345759e+002  5.000000e+000  3.715323e+001
      vertex  2.309379e+002 -3.127827e-017  5.544328e+001
    endloop
  endfacet
  facet normal  9.807855e-001  1.260043e-005  1.950892e-001
    outer loop
      vertex  2.309379e+002 -3.127827e-017  5.544328e+001
      vertex  2.345759e+002  5.000000e+000  3.715323e+001
      vertex  2.309378e+002  5.000000e+000  5.544341e+001
    endloop
  endfacet
  facet normal  9.624552e-001  1.016774e-005  2.714406e-001
    outer loop
      vertex  2.309379e+002 -3.127827e-017  5.544328e+001
      vertex  2.309378e+002  5.000000e+000  5.544341e+001
      vertex  2.258759e+002 -5.385075e-016  7.339153e+001
    endloop
  endfacet
  facet normal  9.624558e-001  1.356270e-006  2.714383e-001
    outer loop
      vertex  2.258759e+002 -5.385075e-016  7.339153e+001
      vertex  2.309378e+002  5.000000e+000  5.544341e+001
      vertex  2.258759e+002  5.000000e+000  7.339167e+001
    endloop
  endfacet
  facet normal  9.381915e-001 -9.169826e-007  3.461168e-001
    outer loop
      vertex  2.258759e+002 -5.385075e-016  7.339153e+001
      vertex  2.258759e+002  5.000000e+000  7.339167e+001
      vertex  2.194214e+002 -9.044399e-010  9.088731e+001
    endloop
  endfacet
  facet normal  9.381914e-001  -0.000000e+000  3.461170e-001
    outer loop
      vertex  2.194214e+002 -9.044399e-010  9.088731e+001
      vertex  2.258759e+002  5.000000e+000  7.339167e+001
      vertex  2.194214e+002  5.000000e+000  9.088731e+001
    endloop
  endfacet
  facet normal  0.000000e+000  1.000000e+000  0.000000e+000
    outer loop
      vertex  2.194214e+002  5.000000e+000  9.088731e+001
      vertex  2.258759e+002  5.000000e+000  7.339167e+001
      vertex  2.078729e+002  5.000000e+000  8.610378e+001
    endloop
  endfacet
  facet normal  0.000000e+000  1.000000e+000  0.000000e+000
    outer loop
      vertex  2.078729e+002  5.000000e+000  8.610378e+001
      vertex  2.258759e+002  5.000000e+000  7.339167e+001
      vertex  2.139877e+002  5.000000e+000  6.952895e+001
    endloop
  endfacet
  facet normal  0.000000e+000  1.000000e+000  -0.000000e+000
    outer loop
      vertex  2.258759e+002  5.000000e+000  7.339167e+001
      vertex  2.225340e+002  5.000000e+000  7.016469e+001
      vertex  2.139877e+002  5.000000e+000  6.952895e+001
    endloop
  endfacet
  facet normal  -0.000000e+000  1.000000e+000  0.000000e+000
    outer loop
      vertex  2.139877e+002  5.000000e+000  6.952895e+001
      vertex  2.225340e+002  5.000000e+000  7.016469e+001
      vertex  2.185601e+002  5.000000e+000  6.891174e+001
    endloop
  endfacet
  facet normal  -0.000000e+000  1.000000e+000  0.000000e+000
    outer loop
      vertex  2.170048e+002  5.000000e+000 -7.366321e+001
      vertex  2.142298e+002  5.000000e+000 -6.877942e+001
      vertex  2.213580e+002  5.000000e+000 -5.931270e+001
    endloop
  endfacet
  facet normal  0.000000e+000  1.000000e+000  0.000000e+000
    outer loop
      vertex  2.213580e+002  5.000000e+000 -5.931270e+001
      vertex  2.142298e+002  5.000000e+000 -6.877942e+001
      vertex  2.191456e+002  5.000000e+000 -5.099236e+001
    endloop
  endfacet
  facet normal  -0.000000e+000  9.999999e-001  0.000000e+000
    outer loop
      vertex  2.213580e+002  5.000000e+000 -5.931270e+001
      vertex  2.191456e+002  5.000000e+000 -5.099236e+001
      vertex  2.247633e+002  5.000000e+000 -4.470820e+001
    endloop
  endfacet
  facet normal  0.000000e+000  1.000000e+000  0.000000e+000
    outer loop
      vertex  2.247633e+002  5.000000e+000 -4.470820e+001
      vertex  2.191456e+002  5.000000e+000 -5.099236e+001
      vertex  2.225872e+002  5.000000e+000 -3.286228e+001
    endloop
  endfacet
  facet normal  -0.000000e+000  1.000000e+000  0.000000e+000
    outer loop
      vertex  2.247633e+002  5.000000e+000 -4.470820e+001
      vertex  2.225872e+002  5.000000e+000 -3.286228e+001
      vertex  2.272061e+002  5.000000e+000 -2.991225e+001
    endloop
  endfacet
  facet normal  0.000000e+000  1.000000e+000  0.000000e+000
    outer loop
      vertex  2.272061e+002  5.000000e+000 -2.991225e+001
      vertex  2.225872e+002  5.000000e+000 -3.286228e+001
      vertex  2.245316e+002  5.000000e+000 -1.451120e+001
    endloop
  endfacet
  facet normal  0.000000e+000  1.000000e+000  0.000000e+000
    outer loop
      vertex  2.272061e+002  5.000000e+000 -2.991225e+001
      vertex  2.245316e+002  5.000000e+000 -1.451120e+001
      vertex  2.286760e+002  5.000000e+000 -1.498822e+001
    endloop
  endfacet
  facet normal  0.000000e+000  9.999999e-001  0.000000e+000
    outer loop
      vertex  2.286760e+002  5.000000e+000 -1.498822e+001
      vertex  2.245316e+002  5.000000e+000 -1.451120e+001
      vertex  2.250000e+002  5.000000e+000 -1.433875e-011
    endloop
  endfacet
  facet normal  -0.000000e+000  9.999999e-001  0.000000e+000
    outer loop
      vertex  2.286760e+002  5.000000e+000 -1.498822e+001
      vertex  2.250000e+002  5.000000e+000 -1.433875e-011
      vertex  2.291667e+002  5.000000e+000  2.316048e-013
    endloop
  endfacet
  facet normal  0.000000e+000  1.000000e+000  0.000000e+000
    outer loop
      vertex  2.291667e+002  5.000000e+000  2.316048e-013
      vertex  2.250000e+002  5.000000e+000 -1.433875e-011
      vertex  2.243064e+002  5.000000e+000  1.765326e+001
    endloop
  endfacet
  facet normal  0.000000e+000  1.000000e+000  0.000000e+000
    outer loop
      vertex  2.291667e+002  5.000000e+000  2.316048e-013
      vertex  2.243064e+002  5.000000e+000  1.765326e+001
      vertex  2.284989e+002  5.000000e+000  1.748174e+001
    endloop
  endfacet
  facet normal  0.000000e+000  1.000000e+000  0.000000e+000
    outer loop
      vertex  2.284989e+002  5.000000e+000  1.748174e+001
      vertex  2.243064e+002  5.000000e+000  1.765326e+001
      vertex  2.222298e+002  5.000000e+000  3.519779e+001
    endloop
  endfacet
  facet normal  0.000000e+000  1.000000e+000  0.000000e+000
    outer loop
      vertex  2.284989e+002  5.000000e+000  1.748174e+001
      vertex  2.222298e+002  5.000000e+000  3.519779e+001
      vertex  2.264995e+002  5.000000e+000  3.486161e+001
    endloop
  endfacet
  facet normal  0.000000e+000  9.999999e-001  0.000000e+000
    outer loop
      vertex  2.264995e+002  5.000000e+000  3.486161e+001
      vertex  2.222298e+002  5.000000e+000  3.519779e+001
      vertex  2.187831e+002  5.000000e+000  5.252533e+001
    endloop
  endfacet
  facet normal  0.000000e+000  1.000000e+000  0.000000e+000
    outer loop
      vertex  2.264995e+002  5.000000e+000  3.486161e+001
      vertex  2.187831e+002  5.000000e+000  5.252533e+001
      vertex  2.231801e+002  5.000000e+000  5.203831e+001
    endloop
  endfacet
  facet normal  0.000000e+000  9.999999e-001  0.000000e+000
    outer loop
      vertex  2.231801e+002  5.000000e+000  5.203831e+001
      vertex  2.187831e+002  5.000000e+000  5.252533e+001
      vertex  2.139877e+002  5.000000e+000  6.952895e+001
    endloop
  endfacet
  facet normal  0.000000e+000  1.000000e+000  0.000000e+000
    outer loop
      vertex  2.231801e+002  5.000000e+000  5.203831e+001
      vertex  2.139877e+002  5.000000e+000  6.952895e+001
      vertex  2.185601e+002  5.000000e+000  6.891174e+001
    endloop
  endfacet
  facet normal  0.000000e+000  1.000000e+000  0.000000e+000
    outer loop
      vertex  2.078729e+002  5.000000e+000 -8.610378e+001
      vertex  2.142298e+002  5.000000e+000 -6.877942e+001
      vertex  2.117224e+002  5.000000e+000 -8.769829e+001
    endloop
  endfacet
  facet normal  0.000000e+000  1.000000e+000  0.000000e+000
    outer loop
      vertex  2.117224e+002  5.000000e+000 -8.769829e+001
      vertex  2.142298e+002  5.000000e+000 -6.877942e+001
      vertex  2.170048e+002  5.000000e+000 -7.366321e+001
    endloop
  endfacet
  facet normal  0.000000e+000  1.000000e+000  0.000000e+000
    outer loop
      vertex  2.253827e+002  5.000000e+000 -6.039111e+001
      vertex  2.288499e+002  5.000000e+000 -4.552108e+001
      vertex  2.312204e+002  5.000000e+000 -5.425302e+001
    endloop
  endfacet
  facet normal  0.000000e+000  9.999999e-001  -0.000000e+000
    outer loop
      vertex  2.312204e+002  5.000000e+000 -5.425302e+001
      vertex  2.288499e+002  5.000000e+000 -4.552108e+001
      vertex  2.313371e+002  5.000000e+000 -3.045611e+001
    endloop
  endfacet
  facet normal  0.000000e+000  1.000000e+000  0.000000e+000
    outer loop
      vertex  2.312204e+002  5.000000e+000 -5.425302e+001
      vertex  2.313371e+002  5.000000e+000 -3.045611e+001
      vertex  2.348560e+002  5.000000e+000 -3.533968e+001
    endloop
  endfacet
  facet normal  0.000000e+000  1.000000e+000  0.000000e+000
    outer loop
      vertex  2.348560e+002  5.000000e+000 -3.533968e+001
      vertex  2.313371e+002  5.000000e+000 -3.045611e+001
      vertex  2.328338e+002  5.000000e+000 -1.526073e+001
    endloop
  endfacet
  facet normal  0.000000e+000  1.000000e+000  0.000000e+000
    outer loop
      vertex  2.348560e+002  5.000000e+000 -3.533968e+001
      vertex  2.328338e+002  5.000000e+000 -1.526073e+001
      vertex  2.369473e+002  5.000000e+000 -1.619399e+001
    endloop
  endfacet
  facet normal  0.000000e+000  1.000000e+000  0.000000e+000
    outer loop
      vertex  2.369473e+002  5.000000e+000 -1.619399e+001
      vertex  2.328338e+002  5.000000e+000 -1.526073e+001
      vertex  2.333333e+002  5.000000e+000  2.857415e-014
    endloop
  endfacet
  facet normal  0.000000e+000  1.000000e+000  0.000000e+000
    outer loop
      vertex  2.369473e+002  5.000000e+000 -1.619399e+001
      vertex  2.333333e+002  5.000000e+000  2.857415e-014
      vertex  2.375000e+002  5.000000e+000 -1.975309e-011
    endloop
  endfacet
  facet normal  0.000000e+000  1.000000e+000  0.000000e+000
    outer loop
      vertex  2.375000e+002  5.000000e+000 -1.975309e-011
      vertex  2.333333e+002  5.000000e+000  2.857415e-014
      vertex  2.326534e+002  5.000000e+000  1.779959e+001
    endloop
  endfacet
  facet normal  -0.000000e+000  1.000000e+000  0.000000e+000
    outer loop
      vertex  2.375000e+002  5.000000e+000 -1.975309e-011
      vertex  2.326534e+002  5.000000e+000  1.779959e+001
      vertex  2.367678e+002  5.000000e+000  1.863400e+001
    endloop
  endfacet
  facet normal  0.000000e+000  1.000000e+000  0.000000e+000
    outer loop
      vertex  2.367678e+002  5.000000e+000  1.863400e+001
      vertex  2.326534e+002  5.000000e+000  1.779959e+001
      vertex  2.306177e+002  5.000000e+000  3.549546e+001
    endloop
  endfacet
  facet normal  -0.000000e+000  1.000000e+000  0.000000e+000
    outer loop
      vertex  2.367678e+002  5.000000e+000  1.863400e+001
      vertex  2.306177e+002  5.000000e+000  3.549546e+001
      vertex  2.345759e+002  5.000000e+000  3.715323e+001
    endloop
  endfacet
  facet normal  0.000000e+000  1.000000e+000  0.000000e+000
    outer loop
      vertex  2.345759e+002  5.000000e+000  3.715323e+001
      vertex  2.306177e+002  5.000000e+000  3.549546e+001
      vertex  2.272380e+002  5.000000e+000  5.298446e+001
    endloop
  endfacet
  facet normal  -0.000000e+000  9.999999e-001  0.000000e+000
    outer loop
      vertex  2.345759e+002  5.000000e+000  3.715323e+001
      vertex  2.272380e+002  5.000000e+000  5.298446e+001
      vertex  2.309378e+002  5.000000e+000  5.544341e+001
    endloop
  endfacet
  facet normal  0.000000e+000  1.000000e+000  0.000000e+000
    outer loop
      vertex  2.309378e+002  5.000000e+000  5.544341e+001
      vertex  2.272380e+002  5.000000e+000  5.298446e+001
      vertex  2.225340e+002  5.000000e+000  7.016469e+001
    endloop
  endfacet
  facet normal  -0.000000e+000  1.000000e+000  0.000000e+000
    outer loop
      vertex  2.309378e+002  5.000000e+000  5.544341e+001
      vertex  2.225340e+002  5.000000e+000  7.016469e+001
      vertex  2.258759e+002  5.000000e+000  7.339167e+001
    endloop
  endfacet
  facet normal  0.000000e+000  1.000000e+000  -0.000000e+000
    outer loop
      vertex  2.312204e+002  5.000000e+000 -5.425302e+001
      vertex  2.260642e+002  5.000000e+000 -7.280959e+001
      vertex  2.253827e+002  5.000000e+000 -6.039111e+001
    endloop
  endfacet
  facet normal  0.000000e+000  1.000000e+000  0.000000e+000
    outer loop
      vertex  2.253827e+002  5.000000e+000 -6.039111e+001
      vertex  2.260642e+002  5.000000e+000 -7.280959e+001
      vertex  2.209504e+002  5.000000e+000 -7.500254e+001
    endloop
  endfacet
  facet normal  0.000000e+000  1.000000e+000  0.000000e+000
    outer loop
      vertex  2.260642e+002  5.000000e+000 -7.280959e+001
      vertex  2.194214e+002  5.000000e+000 -9.088731e+001
      vertex  2.209504e+002  5.000000e+000 -7.500254e+001
    endloop
  endfacet
  facet normal  0.000000e+000  1.000000e+000  0.000000e+000
    outer loop
      vertex  2.209504e+002  5.000000e+000 -7.500254e+001
      vertex  2.194214e+002  5.000000e+000 -9.088731e+001
      vertex  2.155719e+002  5.000000e+000 -8.929280e+001
    endloop
  endfacet
  facet normal  9.358889e-001  5.995207e-003 -3.522440e-001
    outer loop
      vertex  2.155719e+002  5.000000e+000 -8.929280e+001
      vertex  2.219132e+002  2.500000e+001 -7.210397e+001
      vertex  2.209504e+002  5.000000e+000 -7.500254e+001
    endloop
  endfacet
  facet normal  9.569328e-001 -3.997917e-003 -2.902822e-001
    outer loop
      vertex  2.253827e+002  5.000000e+000 -6.039111e+001
      vertex  2.209504e+002  5.000000e+000 -7.500254e+001
      vertex  2.219132e+002  2.500000e+001 -7.210397e+001
    endloop
  endfacet
  facet normal  9.624244e-001  7.994357e-003 -2.714319e-001
    outer loop
      vertex  2.219132e+002  2.500000e+001 -7.210397e+001
      vertex  2.268863e+002  2.500000e+001 -5.447058e+001
      vertex  2.253827e+002  5.000000e+000 -6.039111e+001
    endloop
  endfacet
  facet normal  9.930368e-001  7.994354e-003 -1.175334e-001
    outer loop
      vertex  2.313371e+002  5.000000e+000 -3.045611e+001
      vertex  2.304606e+002  2.500000e+001 -3.650137e+001
      vertex  2.326140e+002  2.500000e+001 -1.830712e+001
    endloop
  endfacet
  facet normal  9.760688e-001  2.607015e-003 -2.174463e-001
    outer loop
      vertex  2.285525e+002  2.500000e+001 -4.699131e+001
      vertex  2.268863e+002  2.500000e+001 -5.447058e+001
      vertex  2.285670e+002  2.545998e+001 -4.692066e+001
    endloop
  endfacet
  facet normal  9.992039e-001  7.718652e-004 -3.988767e-002
    outer loop
      vertex  2.333333e+002  4.000000e+001 -1.762288e-010
      vertex  2.326140e+002  2.500000e+001 -1.830712e+001
      vertex  2.325907e+002  4.000000e+001 -1.860054e+001
    endloop
  endfacet
  facet normal  9.738594e-001 -5.996906e-003 -2.270724e-001
    outer loop
      vertex  2.288499e+002  5.000000e+000 -4.552108e+001
      vertex  2.253827e+002  5.000000e+000 -6.039111e+001
      vertex  2.268863e+002  2.500000e+001 -5.447058e+001
    endloop
  endfacet
  facet normal  9.760711e-001 -1.472537e-003 -2.174468e-001
    outer loop
      vertex  2.288499e+002  5.000000e+000 -4.552108e+001
      vertex  2.268863e+002  2.500000e+001 -5.447058e+001
      vertex  2.285525e+002  2.500000e+001 -4.699131e+001
    endloop
  endfacet
  facet normal  9.792163e-001 -3.504245e-004 -2.028185e-001
    outer loop
      vertex  2.288499e+002  5.000000e+000 -4.552108e+001
      vertex  2.285525e+002  2.500000e+001 -4.699131e+001
      vertex  2.285755e+002  2.442539e+001 -4.687923e+001
    endloop
  endfacet
  facet normal  9.796870e-001 -1.839609e-004 -2.005327e-001
    outer loop
      vertex  2.288499e+002  5.000000e+000 -4.552108e+001
      vertex  2.285755e+002  2.442539e+001 -4.687923e+001
      vertex  2.286407e+002  2.393892e+001 -4.656047e+001
    endloop
  endfacet
  facet normal  9.800898e-001 -7.097719e-005 -1.985551e-001
    outer loop
      vertex  2.288499e+002  5.000000e+000 -4.552108e+001
      vertex  2.286407e+002  2.393892e+001 -4.656047e+001
      vertex  2.287373e+002  2.361407e+001 -4.608366e+001
    endloop
  endfacet
  facet normal  9.805443e-001  0.000000e+000 -1.962977e-001
    outer loop
      vertex  2.288499e+002  5.000000e+000 -4.552108e+001
      vertex  2.287373e+002  2.361407e+001 -4.608366e+001
      vertex  2.288499e+002  2.350000e+001 -4.552108e+001
    endloop
  endfacet
  facet normal  9.811378e-001  0.000000e+000 -1.933095e-001
    outer loop
      vertex  2.288499e+002  5.000000e+000 -4.552108e+001
      vertex  2.288499e+002  2.350000e+001 -4.552108e+001
      vertex  2.290129e+002  2.375942e+001 -4.469380e+001
    endloop
  endfacet
  facet normal  9.817843e-001 -1.515962e-004 -1.899992e-001
    outer loop
      vertex  2.288499e+002  5.000000e+000 -4.552108e+001
      vertex  2.290129e+002  2.375942e+001 -4.469380e+001
      vertex  2.291333e+002  2.473257e+001 -4.407256e+001
    endloop
  endfacet
  facet normal  9.851426e-001 -1.540834e-003 -1.717312e-001
    outer loop
      vertex  2.288499e+002  5.000000e+000 -4.552108e+001
      vertex  2.291333e+002  2.473257e+001 -4.407256e+001
      vertex  2.291378e+002  2.500000e+001 -4.404896e+001
    endloop
  endfacet
  facet normal  9.849853e-001 -1.472279e-003 -1.726318e-001
    outer loop
      vertex  2.288499e+002  5.000000e+000 -4.552108e+001
      vertex  2.291378e+002  2.500000e+001 -4.404896e+001
      vertex  2.304606e+002  2.500000e+001 -3.650137e+001
    endloop
  endfacet
  facet normal  9.866257e-001 -5.996867e-003 -1.628921e-001
    outer loop
      vertex  2.288499e+002  5.000000e+000 -4.552108e+001
      vertex  2.304606e+002  2.500000e+001 -3.650137e+001
      vertex  2.313371e+002  5.000000e+000 -3.045611e+001
    endloop
  endfacet
  facet normal  9.928442e-001 -7.936424e-004 -1.194147e-001
    outer loop
      vertex  2.303678e+002  4.000000e+001 -3.708255e+001
      vertex  2.325907e+002  4.000000e+001 -1.860054e+001
      vertex  2.326140e+002  2.500000e+001 -1.830712e+001
    endloop
  endfacet
  facet normal  9.930671e-001  1.590052e-003 -1.175370e-001
    outer loop
      vertex  2.303678e+002  4.000000e+001 -3.708255e+001
      vertex  2.326140e+002  2.500000e+001 -1.830712e+001
      vertex  2.304606e+002  2.500000e+001 -3.650137e+001
    endloop
  endfacet
  facet normal  9.849861e-001 -5.946053e-004 -1.726320e-001
    outer loop
      vertex  2.303678e+002  4.000000e+001 -3.708255e+001
      vertex  2.304606e+002  2.500000e+001 -3.650137e+001
      vertex  2.291378e+002  2.500000e+001 -4.404896e+001
    endloop
  endfacet
  facet normal  9.836673e-001  2.922788e-003 -1.799727e-001
    outer loop
      vertex  2.303678e+002  4.000000e+001 -3.708255e+001
      vertex  2.291378e+002  2.500000e+001 -4.404896e+001
      vertex  2.290888e+002  2.584247e+001 -4.430315e+001
    endloop
  endfacet
  facet normal  9.823803e-001  6.510749e-003 -1.867797e-001
    outer loop
      vertex  2.303678e+002  4.000000e+001 -3.708255e+001
      vertex  2.290888e+002  2.584247e+001 -4.430315e+001
      vertex  2.289371e+002  2.643127e+001 -4.508020e+001
    endloop
  endfacet
  facet normal  9.812228e-001  1.007200e-002 -1.926146e-001
    outer loop
      vertex  2.303678e+002  4.000000e+001 -3.708255e+001
      vertex  2.289371e+002  2.643127e+001 -4.508020e+001
      vertex  2.288499e+002  2.650000e+001 -4.552108e+001
    endloop
  endfacet
  facet normal  9.793324e-001  1.591981e-002 -2.016300e-001
    outer loop
      vertex  2.303678e+002  4.000000e+001 -3.708255e+001
      vertex  2.288499e+002  2.650000e+001 -4.552108e+001
      vertex  2.286841e+002  2.624128e+001 -4.634682e+001
    endloop
  endfacet
  facet normal  9.002857e-001  1.619038e-001 -4.040703e-001
    outer loop
      vertex  2.303678e+002  4.000000e+001 -3.708255e+001
      vertex  2.286841e+002  2.624128e+001 -4.634682e+001
      vertex  2.285670e+002  2.545998e+001 -4.692066e+001
    endloop
  endfacet
  facet normal  9.753903e-001  2.724140e-002 -2.187961e-001
    outer loop
      vertex  2.303678e+002  4.000000e+001 -3.708255e+001
      vertex  2.285670e+002  2.545998e+001 -4.692066e+001
      vertex  2.268863e+002  2.500000e+001 -5.447058e+001
    endloop
  endfacet
  facet normal  9.803726e-001  9.942900e-004 -1.971512e-001
    outer loop
      vertex  2.303678e+002  4.000000e+001 -3.708255e+001
      vertex  2.268863e+002  2.500000e+001 -5.447058e+001
      vertex  2.267944e+002  4.000000e+001 -5.485202e+001
    endloop
  endfacet
  facet normal  9.621114e-001 -1.037583e-003 -2.726544e-001
    outer loop
      vertex  2.267944e+002  4.000000e+001 -5.485202e+001
      vertex  2.268863e+002  2.500000e+001 -5.447058e+001
      vertex  2.218525e+002  4.000000e+001 -7.229052e+001
    endloop
  endfacet
  facet normal  9.624550e-001  5.197931e-004 -2.714405e-001
    outer loop
      vertex  2.218525e+002  4.000000e+001 -7.229052e+001
      vertex  2.268863e+002  2.500000e+001 -5.447058e+001
      vertex  2.219132e+002  2.500000e+001 -7.210397e+001
    endloop
  endfacet
  facet normal  9.380456e-001 -5.126591e-004 -3.465114e-001
    outer loop
      vertex  2.218525e+002  4.000000e+001 -7.229052e+001
      vertex  2.219132e+002  2.500000e+001 -7.210397e+001
      vertex  2.155719e+002  4.000000e+001 -8.929280e+001
    endloop
  endfacet
  facet normal  9.381911e-001  0.000000e+000 -3.461176e-001
    outer loop
      vertex  2.155719e+002  4.000000e+001 -8.929280e+001
      vertex  2.219132e+002  2.500000e+001 -7.210397e+001
      vertex  2.155719e+002  5.000000e+000 -8.929280e+001
    endloop
  endfacet
  facet normal  9.992291e-001  1.742517e-006 -3.925765e-002
    outer loop
      vertex  2.333333e+002  4.000000e+001 -1.762288e-010
      vertex  2.333333e+002  5.000000e+000  2.857415e-014
      vertex  2.326140e+002  2.500000e+001 -1.830712e+001
    endloop
  endfacet
  facet normal  9.994467e-001  5.995934e-003 -3.271772e-002
    outer loop
      vertex  2.326140e+002  2.500000e+001 -1.830712e+001
      vertex  2.333333e+002  5.000000e+000  2.857415e-014
      vertex  2.328338e+002  5.000000e+000 -1.526073e+001
    endloop
  endfacet
  facet normal  9.951767e-001 -3.997372e-003 -9.801721e-002
    outer loop
      vertex  2.326140e+002  2.500000e+001 -1.830712e+001
      vertex  2.328338e+002  5.000000e+000 -1.526073e+001
      vertex  2.313371e+002  5.000000e+000 -3.045611e+001
    endloop
  endfacet
  facet normal  9.853565e-001  2.937196e-003  1.704820e-001
    outer loop
      vertex  2.291378e+002  2.500000e+001  4.404896e+001
      vertex  2.306177e+002  2.500000e+001  3.549546e+001
      vertex  2.291242e+002  2.546000e+001  4.411979e+001
    endloop
  endfacet
  facet normal  9.817970e-001 -8.751673e-003  1.897311e-001
    outer loop
      vertex  2.272380e+002  5.000000e+000  5.298446e+001
      vertex  2.306177e+002  5.000000e+000  3.549546e+001
      vertex  2.291162e+002  2.442539e+001  4.416132e+001
    endloop
  endfacet
  facet normal  9.885531e-001 -2.826807e-002  1.482013e-001
    outer loop
      vertex  2.272380e+002  5.000000e+000  5.298446e+001
      vertex  2.291162e+002  2.442539e+001  4.416132e+001
      vertex  2.290544e+002  2.393892e+001  4.448074e+001
    endloop
  endfacet
  facet normal  9.828529e-001 -1.163678e-002  1.840238e-001
    outer loop
      vertex  2.272380e+002  5.000000e+000  5.298446e+001
      vertex  2.290544e+002  2.393892e+001  4.448074e+001
      vertex  2.289611e+002  2.361407e+001  4.495822e+001
    endloop
  endfacet
  facet normal  9.812987e-001 -7.911895e-003  1.923287e-001
    outer loop
      vertex  2.272380e+002  5.000000e+000  5.298446e+001
      vertex  2.289611e+002  2.361407e+001  4.495822e+001
      vertex  2.288499e+002  2.350000e+001  4.552108e+001
    endloop
  endfacet
  facet normal  9.800941e-001 -5.332594e-003  1.984619e-001
    outer loop
      vertex  2.272380e+002  5.000000e+000  5.298446e+001
      vertex  2.288499e+002  2.350000e+001  4.552108e+001
      vertex  2.286839e+002  2.375942e+001  4.634776e+001
    endloop
  endfacet
  facet normal  9.788429e-001 -3.068098e-003  2.045902e-001
    outer loop
      vertex  2.272380e+002  5.000000e+000  5.298446e+001
      vertex  2.286839e+002  2.375942e+001  4.634776e+001
      vertex  2.285574e+002  2.473257e+001  4.696777e+001
    endloop
  endfacet
  facet normal  9.774176e-001 -9.223245e-004  2.113150e-001
    outer loop
      vertex  2.272380e+002  5.000000e+000  5.298446e+001
      vertex  2.285574e+002  2.473257e+001  4.696777e+001
      vertex  2.285525e+002  2.500000e+001  4.699131e+001
    endloop
  endfacet
  facet normal  9.767782e-001  0.000000e+000  2.142527e-001
    outer loop
      vertex  2.272380e+002  5.000000e+000  5.298446e+001
      vertex  2.285525e+002  2.500000e+001  4.699131e+001
      vertex  2.272380e+002  2.500000e+001  5.298446e+001
    endloop
  endfacet
  facet normal  9.644998e-001  0.000000e+000  2.640837e-001
    outer loop
      vertex  2.272380e+002  5.000000e+000  5.298446e+001
      vertex  2.272380e+002  2.500000e+001  5.298446e+001
      vertex  2.225340e+002  4.000000e+001  7.016469e+001
    endloop
  endfacet
  facet normal  9.644998e-001  0.000000e+000  2.640837e-001
    outer loop
      vertex  2.272380e+002  5.000000e+000  5.298446e+001
      vertex  2.225340e+002  4.000000e+001  7.016469e+001
      vertex  2.225340e+002  5.000000e+000  7.016469e+001
    endloop
  endfacet
  facet normal  9.644999e-001  3.913452e-007  2.640834e-001
    outer loop
      vertex  2.272379e+002  4.000000e+001  5.298461e+001
      vertex  2.225340e+002  4.000000e+001  7.016469e+001
      vertex  2.272380e+002  2.500000e+001  5.298446e+001
    endloop
  endfacet
  facet normal  9.767782e-001  9.103738e-007  2.142527e-001
    outer loop
      vertex  2.272379e+002  4.000000e+001  5.298461e+001
      vertex  2.272380e+002  2.500000e+001  5.298446e+001
      vertex  2.285525e+002  2.500000e+001  4.699131e+001
    endloop
  endfacet
  facet normal  9.780207e-001  2.410766e-003  2.084939e-001
    outer loop
      vertex  2.272379e+002  4.000000e+001  5.298461e+001
      vertex  2.285525e+002  2.500000e+001  4.699131e+001
      vertex  2.286045e+002  2.584247e+001  4.673771e+001
    endloop
  endfacet
  facet normal  9.792811e-001  5.204188e-003  2.024388e-001
    outer loop
      vertex  2.272379e+002  4.000000e+001  5.298461e+001
      vertex  2.286045e+002  2.584247e+001  4.673771e+001
      vertex  2.287618e+002  2.643127e+001  4.596178e+001
    endloop
  endfacet
  facet normal  9.803238e-001  8.015465e-003  1.972334e-001
    outer loop
      vertex  2.272379e+002  4.000000e+001  5.298461e+001
      vertex  2.287618e+002  2.643127e+001  4.596178e+001
      vertex  2.288499e+002  2.650000e+001  4.552108e+001
    endloop
  endfacet
  facet normal  9.817932e-001  1.244126e-002  1.895454e-001
    outer loop
      vertex  2.272379e+002  4.000000e+001  5.298461e+001
      vertex  2.288499e+002  2.650000e+001  4.552108e+001
      vertex  2.290127e+002  2.624128e+001  4.469474e+001
    endloop
  endfacet
  facet normal  9.925686e-001  6.672144e-002  1.017633e-001
    outer loop
      vertex  2.272379e+002  4.000000e+001  5.298461e+001
      vertex  2.290127e+002  2.624128e+001  4.469474e+001
      vertex  2.291242e+002  2.546000e+001  4.411979e+001
    endloop
  endfacet
  facet normal  9.852561e-001  2.459081e-002  1.693097e-001
    outer loop
      vertex  2.272379e+002  4.000000e+001  5.298461e+001
      vertex  2.291242e+002  2.546000e+001  4.411979e+001
      vertex  2.306177e+002  2.500000e+001  3.549546e+001
    endloop
  endfacet
  facet normal  9.818351e-001  3.869540e-006  1.897362e-001
    outer loop
      vertex  2.272379e+002  4.000000e+001  5.298461e+001
      vertex  2.306177e+002  2.500000e+001  3.549546e+001
      vertex  2.306176e+002  4.000000e+001  3.549562e+001
    endloop
  endfacet
  facet normal  9.934480e-001  4.784691e-006  1.142859e-001
    outer loop
      vertex  2.306176e+002  4.000000e+001  3.549562e+001
      vertex  2.306177e+002  2.500000e+001  3.549546e+001
      vertex  2.326533e+002  4.000000e+001  1.779968e+001
    endloop
  endfacet
  facet normal  9.934478e-001  5.424104e-006  1.142865e-001
    outer loop
      vertex  2.326533e+002  4.000000e+001  1.779968e+001
      vertex  2.306177e+002  2.500000e+001  3.549546e+001
      vertex  2.326534e+002  2.500000e+001  1.779959e+001
    endloop
  endfacet
  facet normal  9.992712e-001  5.885503e-006  3.817125e-002
    outer loop
      vertex  2.326533e+002  4.000000e+001  1.779968e+001
      vertex  2.326534e+002  2.500000e+001  1.779959e+001
      vertex  2.333333e+002  4.000000e+001 -1.762288e-010
    endloop
  endfacet
  facet normal  9.992713e-001  1.742591e-006  3.816777e-002
    outer loop
      vertex  2.333333e+002  4.000000e+001 -1.762288e-010
      vertex  2.326534e+002  2.500000e+001  1.779959e+001
      vertex  2.333333e+002  5.000000e+000  2.857415e-014
    endloop
  endfacet
  facet normal  9.853537e-001 -3.741774e-003  1.704815e-001
    outer loop
      vertex  2.291378e+002  2.500000e+001  4.404896e+001
      vertex  2.291162e+002  2.442539e+001  4.416132e+001
      vertex  2.306177e+002  2.500000e+001  3.549546e+001
    endloop
  endfacet
  facet normal  9.853190e-001  0.000000e+000  1.707236e-001
    outer loop
      vertex  2.306177e+002  2.500000e+001  3.549546e+001
      vertex  2.291162e+002  2.442539e+001  4.416132e+001
      vertex  2.306177e+002  5.000000e+000  3.549546e+001
    endloop
  endfacet
  facet normal  9.934478e-001  -0.000000e+000  1.142865e-001
    outer loop
      vertex  2.306177e+002  2.500000e+001  3.549546e+001
      vertex  2.306177e+002  5.000000e+000  3.549546e+001
      vertex  2.326534e+002  2.500000e+001  1.779959e+001
    endloop
  endfacet
  facet normal  9.934478e-001  0.000000e+000  1.142865e-001
    outer loop
      vertex  2.326534e+002  2.500000e+001  1.779959e+001
      vertex  2.306177e+002  5.000000e+000  3.549546e+001
      vertex  2.326534e+002  5.000000e+000  1.779959e+001
    endloop
  endfacet
  facet normal  9.992713e-001  -0.000000e+000  3.816973e-002
    outer loop
      vertex  2.326534e+002  2.500000e+001  1.779959e+001
      vertex  2.326534e+002  5.000000e+000  1.779959e+001
      vertex  2.333333e+002  5.000000e+000  2.857415e-014
    endloop
  endfacet
  facet normal  0.000000e+000  1.000000e+000  0.000000e+000
    outer loop
      vertex  2.213580e+002  4.000000e+001 -5.931270e+001
      vertex  2.247633e+002  4.000000e+001 -4.470820e+001
      vertex  2.267944e+002  4.000000e+001 -5.485202e+001
    endloop
  endfacet
  facet normal  0.000000e+000  1.000000e+000  -0.000000e+000
    outer loop
      vertex  2.267944e+002  4.000000e+001 -5.485202e+001
      vertex  2.247633e+002  4.000000e+001 -4.470820e+001
      vertex  2.272061e+002  4.000000e+001 -2.991225e+001
    endloop
  endfacet
  facet normal  0.000000e+000  1.000000e+000  0.000000e+000
    outer loop
      vertex  2.267944e+002  4.000000e+001 -5.485202e+001
      vertex  2.272061e+002  4.000000e+001 -2.991225e+001
      vertex  2.303678e+002  4.000000e+001 -3.708255e+001
    endloop
  endfacet
  facet normal  0.000000e+000  1.000000e+000  0.000000e+000
    outer loop
      vertex  2.303678e+002  4.000000e+001 -3.708255e+001
      vertex  2.272061e+002  4.000000e+001 -2.991225e+001
      vertex  2.286760e+002  4.000000e+001 -1.498822e+001
    endloop
  endfacet
  facet normal  0.000000e+000  1.000000e+000  0.000000e+000
    outer loop
      vertex  2.303678e+002  4.000000e+001 -3.708255e+001
      vertex  2.286760e+002  4.000000e+001 -1.498822e+001
      vertex  2.325907e+002  4.000000e+001 -1.860054e+001
    endloop
  endfacet
  facet normal  0.000000e+000  1.000000e+000  0.000000e+000
    outer loop
      vertex  2.325907e+002  4.000000e+001 -1.860054e+001
      vertex  2.286760e+002  4.000000e+001 -1.498822e+001
      vertex  2.291667e+002  4.000000e+001  2.316048e-013
    endloop
  endfacet
  facet normal  0.000000e+000  1.000000e+000  0.000000e+000
    outer loop
      vertex  2.325907e+002  4.000000e+001 -1.860054e+001
      vertex  2.291667e+002  4.000000e+001  2.316048e-013
      vertex  2.333333e+002  4.000000e+001 -1.762288e-010
    endloop
  endfacet
  facet normal  0.000000e+000  1.000000e+000  0.000000e+000
    outer loop
      vertex  2.333333e+002  4.000000e+001 -1.762288e-010
      vertex  2.291667e+002  4.000000e+001  2.316048e-013
      vertex  2.284989e+002  4.000000e+001  1.748174e+001
    endloop
  endfacet
  facet normal  -0.000000e+000  1.000000e+000  0.000000e+000
    outer loop
      vertex  2.333333e+002  4.000000e+001 -1.762288e-010
      vertex  2.284989e+002  4.000000e+001  1.748174e+001
      vertex  2.326533e+002  4.000000e+001  1.779968e+001
    endloop
  endfacet
  facet normal  0.000000e+000  1.000000e+000  0.000000e+000
    outer loop
      vertex  2.326533e+002  4.000000e+001  1.779968e+001
      vertex  2.284989e+002  4.000000e+001  1.748174e+001
      vertex  2.264995e+002  4.000000e+001  3.486161e+001
    endloop
  endfacet
  facet normal  -0.000000e+000  1.000000e+000  0.000000e+000
    outer loop
      vertex  2.326533e+002  4.000000e+001  1.779968e+001
      vertex  2.264995e+002  4.000000e+001  3.486161e+001
      vertex  2.306176e+002  4.000000e+001  3.549562e+001
    endloop
  endfacet
  facet normal  0.000000e+000  1.000000e+000  0.000000e+000
    outer loop
      vertex  2.306176e+002  4.000000e+001  3.549562e+001
      vertex  2.264995e+002  4.000000e+001  3.486161e+001
      vertex  2.231801e+002  4.000000e+001  5.203831e+001
    endloop
  endfacet
  facet normal  -0.000000e+000  1.000000e+000  0.000000e+000
    outer loop
      vertex  2.306176e+002  4.000000e+001  3.549562e+001
      vertex  2.231801e+002  4.000000e+001  5.203831e+001
      vertex  2.272379e+002  4.000000e+001  5.298461e+001
    endloop
  endfacet
  facet normal  0.000000e+000  1.000000e+000  0.000000e+000
    outer loop
      vertex  2.272379e+002  4.000000e+001  5.298461e+001
      vertex  2.231801e+002  4.000000e+001  5.203831e+001
      vertex  2.185601e+002  4.000000e+001  6.891174e+001
    endloop
  endfacet
  facet normal  -0.000000e+000  1.000000e+000  0.000000e+000
    outer loop
      vertex  2.272379e+002  4.000000e+001  5.298461e+001
      vertex  2.185601e+002  4.000000e+001  6.891174e+001
      vertex  2.225340e+002  4.000000e+001  7.016469e+001
    endloop
  endfacet
  facet normal  0.000000e+000  1.000000e+000  -0.000000e+000
    outer loop
      vertex  2.267944e+002  4.000000e+001 -5.485202e+001
      vertex  2.218525e+002  4.000000e+001 -7.229052e+001
      vertex  2.213580e+002  4.000000e+001 -5.931270e+001
    endloop
  endfacet
  facet normal  0.000000e+000  1.000000e+000  0.000000e+000
    outer loop
      vertex  2.213580e+002  4.000000e+001 -5.931270e+001
      vertex  2.218525e+002  4.000000e+001 -7.229052e+001
      vertex  2.170048e+002  4.000000e+001 -7.366321e+001
    endloop
  endfacet
  facet normal  0.000000e+000  1.000000e+000  0.000000e+000
    outer loop
      vertex  2.218525e+002  4.000000e+001 -7.229052e+001
      vertex  2.155719e+002  4.000000e+001 -8.929280e+001
      vertex  2.170048e+002  4.000000e+001 -7.366321e+001
    endloop
  endfacet
  facet normal  0.000000e+000  1.000000e+000  0.000000e+000
    outer loop
      vertex  2.170048e+002  4.000000e+001 -7.366321e+001
      vertex  2.155719e+002  4.000000e+001 -8.929280e+001
      vertex  2.117224e+002  4.000000e+001 -8.769829e+001
    endloop
  endfacet
  facet normal -9.358899e-001 -5.884853e-003  3.522437e-001
    outer loop
      vertex  2.170048e+002  5.000000e+000 -7.366321e+001
      vertex  2.179505e+002  2.501154e+001 -7.081639e+001
      vertex  2.117224e+002  5.000000e+000 -8.769829e+001
    endloop
  endfacet
  facet normal -9.994473e-001 -5.885471e-003  3.271839e-002
    outer loop
      vertex  2.284602e+002  2.501154e+001 -1.798021e+001
      vertex  2.286760e+002  5.000000e+000 -1.498822e+001
      vertex  2.291667e+002  5.000000e+000  2.316048e-013
    endloop
  endfacet
  facet normal -9.569330e-001  3.924049e-003  2.902825e-001
    outer loop
      vertex  2.179505e+002  2.501154e+001 -7.081639e+001
      vertex  2.170048e+002  5.000000e+000 -7.366321e+001
      vertex  2.213580e+002  5.000000e+000 -5.931270e+001
    endloop
  endfacet
  facet normal -9.624256e-001 -7.847367e-003  2.714322e-001
    outer loop
      vertex  2.213580e+002  5.000000e+000 -5.931270e+001
      vertex  2.228348e+002  2.501154e+001 -5.349789e+001
      vertex  2.179505e+002  2.501154e+001 -7.081639e+001
    endloop
  endfacet
  facet normal -9.624023e-001  1.047700e-002  2.714256e-001
    outer loop
      vertex  2.228348e+002  2.501154e+001 -5.349789e+001
      vertex  2.213580e+002  4.000000e+001 -5.931270e+001
      vertex  2.179505e+002  2.501154e+001 -7.081639e+001
    endloop
  endfacet
  facet normal -9.838073e-001 -1.793570e-002  1.783299e-001
    outer loop
      vertex  2.248701e+002  2.639512e+001 -4.416769e+001
      vertex  2.249892e+002  2.593448e+001 -4.355692e+001
      vertex  2.272061e+002  4.000000e+001 -2.991225e+001
    endloop
  endfacet
  facet normal -9.738470e-001 -7.858835e-003  2.270691e-001
    outer loop
      vertex  2.247633e+002  4.000000e+001 -4.470820e+001
      vertex  2.213580e+002  4.000000e+001 -5.931270e+001
      vertex  2.228348e+002  2.501154e+001 -5.349789e+001
    endloop
  endfacet
  facet normal -9.760584e-001 -1.962601e-003  2.174998e-001
    outer loop
      vertex  2.247633e+002  4.000000e+001 -4.470820e+001
      vertex  2.228348e+002  2.501154e+001 -5.349789e+001
      vertex  2.244658e+002  2.500000e+001 -4.617842e+001
    endloop
  endfacet
  facet normal -9.794729e-001 -3.340605e-004  2.015754e-001
    outer loop
      vertex  2.247633e+002  4.000000e+001 -4.470820e+001
      vertex  2.244658e+002  2.500000e+001 -4.617842e+001
      vertex  2.245414e+002  2.599399e+001 -4.580939e+001
    endloop
  endfacet
  facet normal -9.800044e-001 -1.212245e-004  1.989754e-001
    outer loop
      vertex  2.247633e+002  4.000000e+001 -4.470820e+001
      vertex  2.245414e+002  2.599399e+001 -4.580939e+001
      vertex  2.246357e+002  2.635221e+001 -4.534510e+001
    endloop
  endfacet
  facet normal -9.804910e-001 -4.158315e-006  1.965643e-001
    outer loop
      vertex  2.247633e+002  4.000000e+001 -4.470820e+001
      vertex  2.246357e+002  2.635221e+001 -4.534510e+001
      vertex  2.247566e+002  2.649965e+001 -4.474197e+001
    endloop
  endfacet
  facet normal -9.810055e-001  2.564342e-006  1.939795e-001
    outer loop
      vertex  2.247633e+002  4.000000e+001 -4.470820e+001
      vertex  2.247566e+002  2.649965e+001 -4.474197e+001
      vertex  2.248701e+002  2.639512e+001 -4.416769e+001
    endloop
  endfacet
  facet normal -9.866424e-001 -1.276634e-003  1.628956e-001
    outer loop
      vertex  2.247633e+002  4.000000e+001 -4.470820e+001
      vertex  2.248701e+002  2.639512e+001 -4.416769e+001
      vertex  2.272061e+002  4.000000e+001 -2.991225e+001
    endloop
  endfacet
  facet normal -9.866432e-001  4.606497e-004  1.628958e-001
    outer loop
      vertex  2.247633e+002  5.000000e+000 -4.470820e+001
      vertex  2.272061e+002  5.000000e+000 -2.991225e+001
      vertex  2.248148e+002  2.352349e+001 -4.444884e+001
    endloop
  endfacet
  facet normal -9.806136e-001 -1.892512e-005  1.959513e-001
    outer loop
      vertex  2.247633e+002  5.000000e+000 -4.470820e+001
      vertex  2.248148e+002  2.352349e+001 -4.444884e+001
      vertex  2.246396e+002  2.363857e+001 -4.532561e+001
    endloop
  endfacet
  facet normal -9.799638e-001  9.217887e-005  1.991751e-001
    outer loop
      vertex  2.247633e+002  5.000000e+000 -4.470820e+001
      vertex  2.246396e+002  2.363857e+001 -4.532561e+001
      vertex  2.245134e+002  2.419131e+001 -4.594658e+001
    endloop
  endfacet
  facet normal -9.794090e-001  2.743438e-004  2.018862e-001
    outer loop
      vertex  2.247633e+002  5.000000e+000 -4.470820e+001
      vertex  2.245134e+002  2.419131e+001 -4.594658e+001
      vertex  2.244658e+002  2.500000e+001 -4.617842e+001
    endloop
  endfacet
  facet normal -9.760581e-001  1.472348e-003  2.175052e-001
    outer loop
      vertex  2.247633e+002  5.000000e+000 -4.470820e+001
      vertex  2.244658e+002  2.500000e+001 -4.617842e+001
      vertex  2.228348e+002  2.501154e+001 -5.349789e+001
    endloop
  endfacet
  facet normal -9.738602e-001  5.886276e-003  2.270721e-001
    outer loop
      vertex  2.247633e+002  5.000000e+000 -4.470820e+001
      vertex  2.228348e+002  2.501154e+001 -5.349789e+001
      vertex  2.213580e+002  5.000000e+000 -5.931270e+001
    endloop
  endfacet
  facet normal -9.951771e-001  3.923548e-003  9.801674e-002
    outer loop
      vertex  2.272061e+002  5.000000e+000 -2.991225e+001
      vertex  2.286760e+002  5.000000e+000 -1.498822e+001
      vertex  2.284602e+002  2.501154e+001 -1.798021e+001
    endloop
  endfacet
  facet normal -9.930379e-001 -7.847627e-003  1.175336e-001
    outer loop
      vertex  2.272061e+002  5.000000e+000 -2.991225e+001
      vertex  2.284602e+002  2.501154e+001 -1.798021e+001
      vertex  2.263452e+002  2.501154e+001 -3.584956e+001
    endloop
  endfacet
  facet normal -9.849607e-001  8.823812e-003  1.725531e-001
    outer loop
      vertex  2.272061e+002  5.000000e+000 -2.991225e+001
      vertex  2.263452e+002  2.501154e+001 -3.584956e+001
      vertex  2.250511e+002  2.500000e+001 -4.323606e+001
    endloop
  endfacet
  facet normal -9.864092e-001  3.153918e-003  1.642765e-001
    outer loop
      vertex  2.272061e+002  5.000000e+000 -2.991225e+001
      vertex  2.250511e+002  2.500000e+001 -4.323606e+001
      vertex  2.250423e+002  2.462772e+001 -4.328215e+001
    endloop
  endfacet
  facet normal -9.845195e-001  1.063391e-002  1.749517e-001
    outer loop
      vertex  2.272061e+002  5.000000e+000 -2.991225e+001
      vertex  2.250423e+002  2.462772e+001 -4.328215e+001
      vertex  2.249301e+002  2.377328e+001 -4.386125e+001
    endloop
  endfacet
  facet normal -9.825522e-001  1.839459e-002  1.850754e-001
    outer loop
      vertex  2.272061e+002  5.000000e+000 -2.991225e+001
      vertex  2.249301e+002  2.377328e+001 -4.386125e+001
      vertex  2.248148e+002  2.352349e+001 -4.444884e+001
    endloop
  endfacet
  facet normal -9.569272e-001 -5.239083e-003  2.902807e-001
    outer loop
      vertex  2.213580e+002  4.000000e+001 -5.931270e+001
      vertex  2.170048e+002  4.000000e+001 -7.366321e+001
      vertex  2.179505e+002  2.501154e+001 -7.081639e+001
    endloop
  endfacet
  facet normal -9.358771e-001  7.856935e-003  3.522389e-001
    outer loop
      vertex  2.179505e+002  2.501154e+001 -7.081639e+001
      vertex  2.170048e+002  4.000000e+001 -7.366321e+001
      vertex  2.117224e+002  4.000000e+001 -8.769829e+001
    endloop
  endfacet
  facet normal -9.381914e-001  0.000000e+000  3.461169e-001
    outer loop
      vertex  2.179505e+002  2.501154e+001 -7.081639e+001
      vertex  2.117224e+002  4.000000e+001 -8.769829e+001
      vertex  2.117224e+002  5.000000e+000 -8.769829e+001
    endloop
  endfacet
  facet normal -9.930139e-001  1.047735e-002  1.175308e-001
    outer loop
      vertex  2.284602e+002  2.501154e+001 -1.798021e+001
      vertex  2.272061e+002  4.000000e+001 -2.991225e+001
      vertex  2.263452e+002  2.501154e+001 -3.584956e+001
    endloop
  endfacet
  facet normal -9.850427e-001 -1.152717e-002  1.719244e-001
    outer loop
      vertex  2.263452e+002  2.501154e+001 -3.584956e+001
      vertex  2.272061e+002  4.000000e+001 -2.991225e+001
      vertex  2.249892e+002  2.593448e+001 -4.355692e+001
    endloop
  endfacet
  facet normal -9.849775e-001 -5.963544e-003  1.725792e-001
    outer loop
      vertex  2.263452e+002  2.501154e+001 -3.584956e+001
      vertex  2.249892e+002  2.593448e+001 -4.355692e+001
      vertex  2.250511e+002  2.500000e+001 -4.323606e+001
    endloop
  endfacet
  facet normal -9.951711e-001 -5.238414e-003  9.801614e-002
    outer loop
      vertex  2.272061e+002  4.000000e+001 -2.991225e+001
      vertex  2.284602e+002  2.501154e+001 -1.798021e+001
      vertex  2.286760e+002  4.000000e+001 -1.498822e+001
    endloop
  endfacet
  facet normal -9.989631e-001  5.356945e-003  4.521191e-002
    outer loop
      vertex  2.286760e+002  4.000000e+001 -1.498822e+001
      vertex  2.284602e+002  2.501154e+001 -1.798021e+001
      vertex  2.291667e+002  5.000000e+000  2.316048e-013
    endloop
  endfacet
  facet normal -9.994646e-001  0.000000e+000  3.271896e-002
    outer loop
      vertex  2.286760e+002  4.000000e+001 -1.498822e+001
      vertex  2.291667e+002  5.000000e+000  2.316048e-013
      vertex  2.291667e+002  4.000000e+001  2.316048e-013
    endloop
  endfacet
  facet normal -9.853426e-001 -7.342035e-003 -1.704290e-001
    outer loop
      vertex  2.249797e+002  2.599399e+001  4.360593e+001
      vertex  2.264995e+002  2.501154e+001  3.486161e+001
      vertex  2.250511e+002  2.500000e+001  4.323606e+001
    endloop
  endfacet
  facet normal -9.644997e-001  0.000000e+000 -2.640837e-001
    outer loop
      vertex  2.231801e+002  5.000000e+000  5.203831e+001
      vertex  2.185601e+002  5.000000e+000  6.891174e+001
      vertex  2.185601e+002  4.000000e+001  6.891174e+001
    endloop
  endfacet
  facet normal -9.644998e-001  0.000000e+000 -2.640837e-001
    outer loop
      vertex  2.231801e+002  5.000000e+000  5.203831e+001
      vertex  2.185601e+002  4.000000e+001  6.891174e+001
      vertex  2.231801e+002  2.501154e+001  5.203831e+001
    endloop
  endfacet
  facet normal -9.767663e-001  -0.000000e+000 -2.143074e-001
    outer loop
      vertex  2.231801e+002  5.000000e+000  5.203831e+001
      vertex  2.231801e+002  2.501154e+001  5.203831e+001
      vertex  2.244658e+002  2.500000e+001  4.617842e+001
    endloop
  endfacet
  facet normal -9.775842e-001  1.156071e-003 -2.105412e-001
    outer loop
      vertex  2.231801e+002  5.000000e+000  5.203831e+001
      vertex  2.244658e+002  2.500000e+001  4.617842e+001
      vertex  2.244753e+002  2.462772e+001  4.613245e+001
    endloop
  endfacet
  facet normal -9.788755e-001  3.078945e-003 -2.044339e-001
    outer loop
      vertex  2.231801e+002  5.000000e+000  5.203831e+001
      vertex  2.244753e+002  2.462772e+001  4.613245e+001
      vertex  2.245933e+002  2.377327e+001  4.555451e+001
    endloop
  endfacet
  facet normal -9.798821e-001  4.852343e-003 -1.995185e-001
    outer loop
      vertex  2.231801e+002  5.000000e+000  5.203831e+001
      vertex  2.245933e+002  2.377327e+001  4.555451e+001
      vertex  2.247116e+002  2.352349e+001  4.496751e+001
    endloop
  endfacet
  facet normal -9.811122e-001  7.327537e-003 -1.933007e-001
    outer loop
      vertex  2.231801e+002  5.000000e+000  5.203831e+001
      vertex  2.247116e+002  2.352349e+001  4.496751e+001
      vertex  2.248853e+002  2.363857e+001  4.409044e+001
    endloop
  endfacet
  facet normal -9.836566e-001  1.342243e-002 -1.795534e-001
    outer loop
      vertex  2.231801e+002  5.000000e+000  5.203831e+001
      vertex  2.248853e+002  2.363857e+001  4.409044e+001
      vertex  2.250063e+002  2.419131e+001  4.346845e+001
    endloop
  endfacet
  facet normal -9.817976e-001  8.700894e-003 -1.897306e-001
    outer loop
      vertex  2.231801e+002  5.000000e+000  5.203831e+001
      vertex  2.250063e+002  2.419131e+001  4.346845e+001
      vertex  2.264995e+002  5.000000e+000  3.486161e+001
    endloop
  endfacet
  facet normal -9.818348e-001  -0.000000e+000 -1.897378e-001
    outer loop
      vertex  2.231801e+002  4.000000e+001  5.203831e+001
      vertex  2.264995e+002  4.000000e+001  3.486161e+001
      vertex  2.264995e+002  2.501154e+001  3.486161e+001
    endloop
  endfacet
  facet normal -9.853913e-001 -2.520581e-002 -1.684304e-001
    outer loop
      vertex  2.231801e+002  4.000000e+001  5.203831e+001
      vertex  2.264995e+002  2.501154e+001  3.486161e+001
      vertex  2.249797e+002  2.599399e+001  4.360593e+001
    endloop
  endfacet
  facet normal -9.841726e-001 -2.047669e-002 -1.760253e-001
    outer loop
      vertex  2.231801e+002  4.000000e+001  5.203831e+001
      vertex  2.249797e+002  2.599399e+001  4.360593e+001
      vertex  2.248891e+002  2.635221e+001  4.407094e+001
    endloop
  endfacet
  facet normal -9.815369e-001 -1.144549e-002 -1.909300e-001
    outer loop
      vertex  2.231801e+002  4.000000e+001  5.203831e+001
      vertex  2.248891e+002  2.635221e+001  4.407094e+001
      vertex  2.247700e+002  2.649965e+001  4.467442e+001
    endloop
  endfacet
  facet normal -9.802655e-001 -7.692451e-003 -1.975360e-001
    outer loop
      vertex  2.231801e+002  4.000000e+001  5.203831e+001
      vertex  2.247700e+002  2.649965e+001  4.467442e+001
      vertex  2.246552e+002  2.639512e+001  4.524845e+001
    endloop
  endfacet
  facet normal -9.792740e-001 -5.119659e-003 -2.024758e-001
    outer loop
      vertex  2.231801e+002  4.000000e+001  5.203831e+001
      vertex  2.246552e+002  2.639512e+001  4.524845e+001
      vertex  2.245315e+002  2.593448e+001  4.585831e+001
    endloop
  endfacet
  facet normal -9.781190e-001 -2.568123e-003 -2.080304e-001
    outer loop
      vertex  2.231801e+002  4.000000e+001  5.203831e+001
      vertex  2.245315e+002  2.593448e+001  4.585831e+001
      vertex  2.244658e+002  2.500000e+001  4.617842e+001
    endloop
  endfacet
  facet normal -9.767662e-001  0.000000e+000 -2.143074e-001
    outer loop
      vertex  2.231801e+002  4.000000e+001  5.203831e+001
      vertex  2.244658e+002  2.500000e+001  4.617842e+001
      vertex  2.231801e+002  2.501154e+001  5.203831e+001
    endloop
  endfacet
  facet normal -9.644997e-001  0.000000e+000 -2.640837e-001
    outer loop
      vertex  2.231801e+002  4.000000e+001  5.203831e+001
      vertex  2.231801e+002  2.501154e+001  5.203831e+001
      vertex  2.185601e+002  4.000000e+001  6.891174e+001
    endloop
  endfacet
  facet normal -9.934478e-001  0.000000e+000 -1.142868e-001
    outer loop
      vertex  2.264995e+002  4.000000e+001  3.486161e+001
      vertex  2.284989e+002  4.000000e+001  1.748174e+001
      vertex  2.264995e+002  2.501154e+001  3.486161e+001
    endloop
  endfacet
  facet normal -9.934478e-001  0.000000e+000 -1.142868e-001
    outer loop
      vertex  2.264995e+002  2.501154e+001  3.486161e+001
      vertex  2.284989e+002  4.000000e+001  1.748174e+001
      vertex  2.284989e+002  2.501154e+001  1.748174e+001
    endloop
  endfacet
  facet normal -9.992713e-001  0.000000e+000 -3.817032e-002
    outer loop
      vertex  2.284989e+002  4.000000e+001  1.748174e+001
      vertex  2.291667e+002  4.000000e+001  2.316048e-013
      vertex  2.284989e+002  2.501154e+001  1.748174e+001
    endloop
  endfacet
  facet normal -9.992712e-001  0.000000e+000 -3.817032e-002
    outer loop
      vertex  2.284989e+002  2.501154e+001  1.748174e+001
      vertex  2.291667e+002  4.000000e+001  2.316048e-013
      vertex  2.291667e+002  5.000000e+000  2.316048e-013
    endloop
  endfacet
  facet normal -9.992713e-001  0.000000e+000 -3.817032e-002
    outer loop
      vertex  2.291667e+002  5.000000e+000  2.316048e-013
      vertex  2.284989e+002  5.000000e+000  1.748174e+001
      vertex  2.284989e+002  2.501154e+001  1.748174e+001
    endloop
  endfacet
  facet normal -9.934478e-001  -0.000000e+000 -1.142868e-001
    outer loop
      vertex  2.284989e+002  2.501154e+001  1.748174e+001
      vertex  2.284989e+002  5.000000e+000  1.748174e+001
      vertex  2.264995e+002  5.000000e+000  3.486161e+001
    endloop
  endfacet
  facet normal -9.934478e-001  0.000000e+000 -1.142868e-001
    outer loop
      vertex  2.284989e+002  2.501154e+001  1.748174e+001
      vertex  2.264995e+002  5.000000e+000  3.486161e+001
      vertex  2.264995e+002  2.501154e+001  3.486161e+001
    endloop
  endfacet
  facet normal -9.852825e-001  -0.000000e+000 -1.709342e-001
    outer loop
      vertex  2.264995e+002  2.501154e+001  3.486161e+001
      vertex  2.264995e+002  5.000000e+000  3.486161e+001
      vertex  2.250063e+002  2.419131e+001  4.346845e+001
    endloop
  endfacet
  facet normal -9.853567e-001  5.597660e-003 -1.704136e-001
    outer loop
      vertex  2.264995e+002  2.501154e+001  3.486161e+001
      vertex  2.250063e+002  2.419131e+001  4.346845e+001
      vertex  2.250511e+002  2.500000e+001  4.323606e+001
    endloop
  endfacet
  facet normal -1.108541e-001  8.316298e-001  5.441537e-001
    outer loop
      vertex  2.289611e+002  2.361407e+001  4.495822e+001
      vertex  2.290544e+002  2.393892e+001  4.448074e+001
      vertex  2.248853e+002  2.363857e+001  4.409044e+001
    endloop
  endfacet
  facet normal -1.170866e-001  5.554410e-001  8.232715e-001
    outer loop
      vertex  2.248853e+002  2.363857e+001  4.409044e+001
      vertex  2.290544e+002  2.393892e+001  4.448074e+001
      vertex  2.291162e+002  2.442539e+001  4.416132e+001
    endloop
  endfacet
  facet normal -1.508208e-001  7.533338e-001  6.401104e-001
    outer loop
      vertex  2.248853e+002  2.363857e+001  4.409044e+001
      vertex  2.291162e+002  2.442539e+001  4.416132e+001
      vertex  2.250063e+002  2.419131e+001  4.346845e+001
    endloop
  endfacet
  facet normal -1.738446e-001  1.952795e-001  9.652171e-001
    outer loop
      vertex  2.250063e+002  2.419131e+001  4.346845e+001
      vertex  2.291162e+002  2.442539e+001  4.416132e+001
      vertex  2.291378e+002  2.500000e+001  4.404896e+001
    endloop
  endfacet
  facet normal -1.872375e-001  2.808664e-001  9.413056e-001
    outer loop
      vertex  2.250063e+002  2.419131e+001  4.346845e+001
      vertex  2.291378e+002  2.500000e+001  4.404896e+001
      vertex  2.250511e+002  2.500000e+001  4.323606e+001
    endloop
  endfacet
  facet normal  5.624405e-002  9.227353e-001 -3.813086e-001
    outer loop
      vertex  2.245933e+002  2.377327e+001  4.555451e+001
      vertex  2.288499e+002  2.350000e+001  4.552108e+001
      vertex  2.247116e+002  2.352349e+001  4.496751e+001
    endloop
  endfacet
  facet normal -2.047639e-002  9.806519e-001  1.946857e-001
    outer loop
      vertex  2.247116e+002  2.352349e+001  4.496751e+001
      vertex  2.288499e+002  2.350000e+001  4.552108e+001
      vertex  2.289611e+002  2.361407e+001  4.495822e+001
    endloop
  endfacet
  facet normal -2.086437e-002  9.918107e-001  1.260004e-001
    outer loop
      vertex  2.247116e+002  2.352349e+001  4.496751e+001
      vertex  2.289611e+002  2.361407e+001  4.495822e+001
      vertex  2.248853e+002  2.363857e+001  4.409044e+001
    endloop
  endfacet
  facet normal  5.909830e-002  9.557856e-001 -2.880648e-001
    outer loop
      vertex  2.288499e+002  2.350000e+001  4.552108e+001
      vertex  2.245933e+002  2.377327e+001  4.555451e+001
      vertex  2.286839e+002  2.375942e+001  4.634776e+001
    endloop
  endfacet
  facet normal  1.585217e-001  5.681055e-001 -8.075438e-001
    outer loop
      vertex  2.286839e+002  2.375942e+001  4.634776e+001
      vertex  2.245933e+002  2.377327e+001  4.555451e+001
      vertex  2.244753e+002  2.462772e+001  4.613245e+001
    endloop
  endfacet
  facet normal  1.546152e-001  5.450912e-001 -8.239963e-001
    outer loop
      vertex  2.286839e+002  2.375942e+001  4.634776e+001
      vertex  2.244753e+002  2.462772e+001  4.613245e+001
      vertex  2.285574e+002  2.473257e+001  4.696777e+001
    endloop
  endfacet
  facet normal  1.958193e-001  1.250799e-001 -9.726304e-001
    outer loop
      vertex  2.285574e+002  2.473257e+001  4.696777e+001
      vertex  2.244753e+002  2.462772e+001  4.613245e+001
      vertex  2.244658e+002  2.500000e+001  4.617842e+001
    endloop
  endfacet
  facet normal  1.943077e-001  8.950171e-002 -9.768490e-001
    outer loop
      vertex  2.285574e+002  2.473257e+001  4.696777e+001
      vertex  2.244658e+002  2.500000e+001  4.617842e+001
      vertex  2.285525e+002  2.500000e+001  4.699131e+001
    endloop
  endfacet
  facet normal  1.058237e-001  8.316268e-001  5.451590e-001
    outer loop
      vertex  2.287373e+002  2.361407e+001 -4.608366e+001
      vertex  2.286407e+002  2.393892e+001 -4.656047e+001
      vertex  2.246396e+002  2.363857e+001 -4.532561e+001
    endloop
  endfacet
  facet normal  2.068768e-001  5.554419e-001  8.054106e-001
    outer loop
      vertex  2.246396e+002  2.363857e+001 -4.532561e+001
      vertex  2.286407e+002  2.393892e+001 -4.656047e+001
      vertex  2.285755e+002  2.442539e+001 -4.687923e+001
    endloop
  endfacet
  facet normal  1.056191e-001  7.533329e-001  6.491025e-001
    outer loop
      vertex  2.246396e+002  2.363857e+001 -4.532561e+001
      vertex  2.285755e+002  2.442539e+001 -4.687923e+001
      vertex  2.245134e+002  2.419131e+001 -4.594658e+001
    endloop
  endfacet
  facet normal  2.087594e-001  1.952878e-001  9.582704e-001
    outer loop
      vertex  2.245134e+002  2.419131e+001 -4.594658e+001
      vertex  2.285755e+002  2.442539e+001 -4.687923e+001
      vertex  2.285525e+002  2.500000e+001 -4.699131e+001
    endloop
  endfacet
  facet normal  1.872377e-001  2.808656e-001  9.413057e-001
    outer loop
      vertex  2.245134e+002  2.419131e+001 -4.594658e+001
      vertex  2.285525e+002  2.500000e+001 -4.699131e+001
      vertex  2.244658e+002  2.500000e+001 -4.617842e+001
    endloop
  endfacet
  facet normal -9.395851e-002  9.227342e-001 -3.738092e-001
    outer loop
      vertex  2.249301e+002  2.377328e+001 -4.386125e+001
      vertex  2.288499e+002  2.350000e+001 -4.552108e+001
      vertex  2.248148e+002  2.352349e+001 -4.444884e+001
    endloop
  endfacet
  facet normal  5.558521e-002  9.806520e-001  1.877017e-001
    outer loop
      vertex  2.248148e+002  2.352349e+001 -4.444884e+001
      vertex  2.288499e+002  2.350000e+001 -4.552108e+001
      vertex  2.287373e+002  2.361407e+001 -4.608366e+001
    endloop
  endfacet
  facet normal  2.894271e-002  9.918105e-001  1.243949e-001
    outer loop
      vertex  2.248148e+002  2.352349e+001 -4.444884e+001
      vertex  2.287373e+002  2.361407e+001 -4.608366e+001
      vertex  2.246396e+002  2.363857e+001 -4.532561e+001
    endloop
  endfacet
  facet normal -5.563745e-002  9.557856e-001 -2.887531e-001
    outer loop
      vertex  2.288499e+002  2.350000e+001 -4.552108e+001
      vertex  2.249301e+002  2.377328e+001 -4.386125e+001
      vertex  2.290129e+002  2.375942e+001 -4.469380e+001
    endloop
  endfacet
  facet normal -1.625797e-001  5.681030e-001 -8.067385e-001
    outer loop
      vertex  2.290129e+002  2.375942e+001 -4.469380e+001
      vertex  2.249301e+002  2.377328e+001 -4.386125e+001
      vertex  2.250423e+002  2.462772e+001 -4.328215e+001
    endloop
  endfacet
  facet normal -1.724833e-001  5.450925e-001 -8.204411e-001
    outer loop
      vertex  2.290129e+002  2.375942e+001 -4.469380e+001
      vertex  2.250423e+002  2.462772e+001 -4.328215e+001
      vertex  2.291333e+002  2.473257e+001 -4.407256e+001
    endloop
  endfacet
  facet normal -1.912965e-001  1.250723e-001 -9.735310e-001
    outer loop
      vertex  2.291333e+002  2.473257e+001 -4.407256e+001
      vertex  2.250423e+002  2.462772e+001 -4.328215e+001
      vertex  2.250511e+002  2.500000e+001 -4.323606e+001
    endloop
  endfacet
  facet normal -1.943078e-001  8.948909e-002 -9.768502e-001
    outer loop
      vertex  2.291333e+002  2.473257e+001 -4.407256e+001
      vertex  2.250511e+002  2.500000e+001 -4.323606e+001
      vertex  2.291378e+002  2.500000e+001 -4.404896e+001
    endloop
  endfacet
endsolid CATIA STL
