solid CATIA STL
  facet normal -1.111382e-001 -7.976317e-001  5.928169e-001
    outer loop
      vertex  2.249797e+002  2.599399e+001  4.360593e+001
      vertex  2.290127e+002  2.624128e+001  4.469474e+001
      vertex  2.248891e+002  2.635221e+001  4.407093e+001
    endloop
  endfacet
  facet normal -6.893242e-002 -9.558403e-001  2.856880e-001
    outer loop
      vertex  2.248891e+002  2.635221e+001  4.407093e+001
      vertex  2.290127e+002  2.624128e+001  4.469474e+001
      vertex  2.288499e+002  2.650000e+001  4.552108e+001
    endloop
  endfacet
  facet normal -4.728472e-002 -9.724525e-001  2.282546e-001
    outer loop
      vertex  2.248891e+002  2.635221e+001  4.407093e+001
      vertex  2.288499e+002  2.650000e+001  4.552108e+001
      vertex  2.247700e+002  2.649965e+001  4.467442e+001
    endloop
  endfacet
  facet normal  3.079866e-002 -9.885060e-001 -1.480111e-001
    outer loop
      vertex  2.247700e+002  2.649965e+001  4.467442e+001
      vertex  2.288499e+002  2.650000e+001  4.552108e+001
      vertex  2.287618e+002  2.643127e+001  4.596178e+001
    endloop
  endfacet
  facet normal  3.846761e-002 -9.844199e-001 -1.715736e-001
    outer loop
      vertex  2.247700e+002  2.649965e+001  4.467442e+001
      vertex  2.287618e+002  2.643127e+001  4.596178e+001
      vertex  2.246552e+002  2.639512e+001  4.524845e+001
    endloop
  endfacet
  facet normal  1.089877e-001 -8.023793e-001 -5.867785e-001
    outer loop
      vertex  2.246552e+002  2.639512e+001  4.524845e+001
      vertex  2.287618e+002  2.643127e+001  4.596178e+001
      vertex  2.286045e+002  2.584247e+001  4.673771e+001
    endloop
  endfacet
  facet normal  1.081763e-001 -8.037013e-001 -5.851172e-001
    outer loop
      vertex  2.246552e+002  2.639512e+001  4.524845e+001
      vertex  2.286045e+002  2.584247e+001  4.673771e+001
      vertex  2.245315e+002  2.593447e+001  4.585831e+001
    endloop
  endfacet
  facet normal  1.953900e-001 -2.937278e-001 -9.357066e-001
    outer loop
      vertex  2.245315e+002  2.593447e+001  4.585831e+001
      vertex  2.286045e+002  2.584247e+001  4.673771e+001
      vertex  2.285525e+002  2.500000e+001  4.699131e+001
    endloop
  endfacet
  facet normal  1.841568e-001 -3.300741e-001 -9.258171e-001
    outer loop
      vertex  2.245315e+002  2.593447e+001  4.585831e+001
      vertex  2.285525e+002  2.500000e+001  4.699131e+001
      vertex  2.244658e+002  2.500000e+001  4.617842e+001
    endloop
  endfacet
  facet normal -1.741088e-001 -5.996470e-001  7.810951e-001
    outer loop
      vertex  2.290127e+002  2.624128e+001  4.469474e+001
      vertex  2.249797e+002  2.599399e+001  4.360593e+001
      vertex  2.291242e+002  2.545998e+001  4.411979e+001
    endloop
  endfacet
  facet normal -1.598891e-001 -3.543206e-001  9.213536e-001
    outer loop
      vertex  2.291242e+002  2.545998e+001  4.411979e+001
      vertex  2.249797e+002  2.599399e+001  4.360593e+001
      vertex  2.250511e+002  2.500000e+001  4.323606e+001
    endloop
  endfacet
  facet normal -1.927356e-001 -1.549067e-001  9.689463e-001
    outer loop
      vertex  2.291242e+002  2.545998e+001  4.411979e+001
      vertex  2.250511e+002  2.500000e+001  4.323606e+001
      vertex  2.291378e+002  2.500000e+001  4.404896e+001
    endloop
  endfacet
  facet normal  1.241825e-001 -7.976335e-001  5.902199e-001
    outer loop
      vertex  2.245414e+002  2.599399e+001 -4.580939e+001
      vertex  2.286841e+002  2.624128e+001 -4.634682e+001
      vertex  2.246357e+002  2.635221e+001 -4.534511e+001
    endloop
  endfacet
  facet normal  4.564291e-002 -9.558403e-001  2.903205e-001
    outer loop
      vertex  2.246357e+002  2.635221e+001 -4.534511e+001
      vertex  2.286841e+002  2.624128e+001 -4.634682e+001
      vertex  2.288499e+002  2.650000e+001 -4.552108e+001
    endloop
  endfacet
  facet normal  4.366396e-002 -9.724526e-001  2.289750e-001
    outer loop
      vertex  2.246357e+002  2.635221e+001 -4.534511e+001
      vertex  2.288499e+002  2.650000e+001 -4.552108e+001
      vertex  2.247566e+002  2.649965e+001 -4.474197e+001
    endloop
  endfacet
  facet normal -2.818785e-002 -9.885055e-001 -1.485340e-001
    outer loop
      vertex  2.247566e+002  2.649965e+001 -4.474197e+001
      vertex  2.288499e+002  2.650000e+001 -4.552108e+001
      vertex  2.289371e+002  2.643126e+001 -4.508020e+001
    endloop
  endfacet
  facet normal -3.011931e-002 -9.844201e-001 -1.732337e-001
    outer loop
      vertex  2.247566e+002  2.649965e+001 -4.474197e+001
      vertex  2.289371e+002  2.643126e+001 -4.508020e+001
      vertex  2.248701e+002  2.639512e+001 -4.416769e+001
    endloop
  endfacet
  facet normal -1.238594e-001 -8.023795e-001 -5.838202e-001
    outer loop
      vertex  2.248701e+002  2.639512e+001 -4.416769e+001
      vertex  2.289371e+002  2.643126e+001 -4.508020e+001
      vertex  2.290888e+002  2.584247e+001 -4.430315e+001
    endloop
  endfacet
  facet normal -1.239734e-001 -8.037030e-001 -5.819726e-001
    outer loop
      vertex  2.248701e+002  2.639512e+001 -4.416769e+001
      vertex  2.290888e+002  2.584247e+001 -4.430315e+001
      vertex  2.249892e+002  2.593448e+001 -4.355692e+001
    endloop
  endfacet
  facet normal -1.775637e-001 -2.937273e-001 -9.392526e-001
    outer loop
      vertex  2.249892e+002  2.593448e+001 -4.355692e+001
      vertex  2.290888e+002  2.584247e+001 -4.430315e+001
      vertex  2.291378e+002  2.500000e+001 -4.404896e+001
    endloop
  endfacet
  facet normal -1.841568e-001 -3.300710e-001 -9.258182e-001
    outer loop
      vertex  2.249892e+002  2.593448e+001 -4.355692e+001
      vertex  2.291378e+002  2.500000e+001 -4.404896e+001
      vertex  2.250511e+002  2.500000e+001 -4.323606e+001
    endloop
  endfacet
  facet normal  1.380561e-001 -5.996506e-001  7.882637e-001
    outer loop
      vertex  2.286841e+002  2.624128e+001 -4.634682e+001
      vertex  2.245414e+002  2.599399e+001 -4.580939e+001
      vertex  2.285670e+002  2.545999e+001 -4.692066e+001
    endloop
  endfacet
  facet normal  2.048688e-001 -3.543191e-001  9.124072e-001
    outer loop
      vertex  2.285670e+002  2.545999e+001 -4.692066e+001
      vertex  2.245414e+002  2.599399e+001 -4.580939e+001
      vertex  2.244658e+002  2.500000e+001 -4.617842e+001
    endloop
  endfacet
  facet normal  1.927356e-001 -1.549119e-001  9.689455e-001
    outer loop
      vertex  2.285670e+002  2.545999e+001 -4.692066e+001
      vertex  2.244658e+002  2.500000e+001 -4.617842e+001
      vertex  2.285525e+002  2.500000e+001 -4.699131e+001
    endloop
  endfacet
  facet normal -3.007070e-001  -0.000000e+000 -9.537165e-001
    outer loop
      vertex  2.185601e+002  5.000000e+000 -6.891174e+001
      vertex  2.185601e+002  4.000000e+001 -6.891174e+001
      vertex  2.225340e+002  5.000000e+000 -7.016469e+001
    endloop
  endfacet
  facet normal -3.007070e-001  0.000000e+000 -9.537165e-001
    outer loop
      vertex  2.225340e+002  5.000000e+000 -7.016469e+001
      vertex  2.185601e+002  4.000000e+001 -6.891174e+001
      vertex  2.225340e+002  4.000000e+001 -7.016469e+001
    endloop
  endfacet
  facet normal -3.826832e-001  0.000000e+000 -9.238797e-001
    outer loop
      vertex  2.194214e+002 -1.185282e-015 -9.088731e+001
      vertex  2.078729e+002 -2.342494e-015 -8.610378e+001
      vertex  2.194214e+002  5.000000e+000 -9.088731e+001
    endloop
  endfacet
  facet normal -3.826832e-001  0.000000e+000 -9.238797e-001
    outer loop
      vertex  2.194214e+002  5.000000e+000 -9.088731e+001
      vertex  2.078729e+002 -2.342494e-015 -8.610378e+001
      vertex  2.078729e+002  5.000000e+000 -8.610378e+001
    endloop
  endfacet
  facet normal -3.826828e-001  0.000000e+000  9.238799e-001
    outer loop
      vertex  2.194214e+002 -9.044399e-010  9.088731e+001
      vertex  2.194214e+002  5.000000e+000  9.088731e+001
      vertex  2.155719e+002  5.000000e+000  8.929280e+001
    endloop
  endfacet
  facet normal -3.826841e-001 -1.167859e-006  9.238793e-001
    outer loop
      vertex  2.194214e+002 -9.044399e-010  9.088731e+001
      vertex  2.155719e+002  5.000000e+000  8.929280e+001
      vertex  2.117224e+002  5.000000e+000  8.769829e+001
    endloop
  endfacet
  facet normal -3.826828e-001  1.167855e-006  9.238799e-001
    outer loop
      vertex  2.194214e+002 -9.044399e-010  9.088731e+001
      vertex  2.117224e+002  5.000000e+000  8.769829e+001
      vertex  2.078729e+002  5.000000e+000  8.610378e+001
    endloop
  endfacet
  facet normal -3.826832e-001  0.000000e+000  9.238797e-001
    outer loop
      vertex  2.194214e+002 -9.044399e-010  9.088731e+001
      vertex  2.078729e+002  5.000000e+000  8.610378e+001
      vertex  2.078729e+002 -2.342494e-015  8.610378e+001
    endloop
  endfacet
  facet normal -3.826841e-001  0.000000e+000  9.238793e-001
    outer loop
      vertex  2.155719e+002  5.000000e+000  8.929280e+001
      vertex  2.155719e+002  4.000000e+001  8.929280e+001
      vertex  2.117224e+002  5.000000e+000  8.769829e+001
    endloop
  endfacet
  facet normal -3.826841e-001  0.000000e+000  9.238793e-001
    outer loop
      vertex  2.117224e+002  5.000000e+000  8.769829e+001
      vertex  2.155719e+002  4.000000e+001  8.929280e+001
      vertex  2.117224e+002  4.000000e+001  8.769829e+001
    endloop
  endfacet
  facet normal -9.637999e-001 -1.181863e-002  2.663650e-001
    outer loop
      vertex  2.187832e+002 -1.249228e-015 -5.252521e+001
      vertex  2.191456e+002  5.000000e+000 -5.099236e+001
      vertex  2.142298e+002  5.000000e+000 -6.877942e+001
    endloop
  endfacet
  facet normal -9.807232e-001  1.126221e-002  1.950777e-001
    outer loop
      vertex  2.191456e+002  5.000000e+000 -5.099236e+001
      vertex  2.187832e+002 -1.249228e-015 -5.252521e+001
      vertex  2.222299e+002 -9.038583e-016 -3.519775e+001
    endloop
  endfacet
  facet normal -9.823145e-001 -1.689607e-002  1.864745e-001
    outer loop
      vertex  2.222299e+002 -9.038583e-016 -3.519775e+001
      vertex  2.225872e+002  5.000000e+000 -3.286228e+001
      vertex  2.191456e+002  5.000000e+000 -5.099236e+001
    endloop
  endfacet
  facet normal -9.929402e-001  1.607060e-002  1.175222e-001
    outer loop
      vertex  2.225872e+002  5.000000e+000 -3.286228e+001
      vertex  2.222299e+002 -9.038583e-016 -3.519775e+001
      vertex  2.243064e+002 -6.957809e-016 -1.765330e+001
    endloop
  endfacet
  facet normal -9.624384e-001  5.905679e-003  2.714358e-001
    outer loop
      vertex  2.187832e+002 -1.249228e-015 -5.252521e+001
      vertex  2.142298e+002  5.000000e+000 -6.877942e+001
      vertex  2.139877e+002 -1.729761e-015 -6.952882e+001
    endloop
  endfacet
  facet normal -9.387778e-001 -6.185716e-003  3.444674e-001
    outer loop
      vertex  2.139877e+002 -1.729761e-015 -6.952882e+001
      vertex  2.142298e+002  5.000000e+000 -6.877942e+001
      vertex  2.078729e+002  5.000000e+000 -8.610378e+001
    endloop
  endfacet
  facet normal -9.381913e-001  0.000000e+000  3.461170e-001
    outer loop
      vertex  2.139877e+002 -1.729761e-015 -6.952882e+001
      vertex  2.078729e+002  5.000000e+000 -8.610378e+001
      vertex  2.078729e+002 -2.342494e-015 -8.610378e+001
    endloop
  endfacet
  facet normal -9.942056e-001 -2.142330e-002  1.053390e-001
    outer loop
      vertex  2.225872e+002  5.000000e+000 -3.286228e+001
      vertex  2.243064e+002 -6.957809e-016 -1.765330e+001
      vertex  2.245316e+002  5.000000e+000 -1.451120e+001
    endloop
  endfacet
  facet normal -9.990226e-001  2.032409e-002  3.925191e-002
    outer loop
      vertex  2.245316e+002  5.000000e+000 -1.451120e+001
      vertex  2.243064e+002 -6.957809e-016 -1.765330e+001
      vertex  2.250000e+002 -6.262790e-016  4.263256e-014
    endloop
  endfacet
  facet normal -9.994795e-001 -3.050169e-006  3.226271e-002
    outer loop
      vertex  2.245316e+002  5.000000e+000 -1.451120e+001
      vertex  2.250000e+002 -6.262790e-016  4.263256e-014
      vertex  2.250000e+002  5.000000e+000 -1.433875e-011
    endloop
  endfacet
  facet normal -9.930684e-001 -9.988552e-006 -1.175374e-001
    outer loop
      vertex  2.222299e+002 -9.038583e-016  3.519775e+001
      vertex  2.243064e+002  5.000000e+000  1.765326e+001
      vertex  2.243064e+002 -6.957809e-016  1.765330e+001
    endloop
  endfacet
  facet normal -9.992290e-001 -9.447758e-006 -3.926183e-002
    outer loop
      vertex  2.243064e+002 -6.957809e-016  1.765330e+001
      vertex  2.243064e+002  5.000000e+000  1.765326e+001
      vertex  2.250000e+002  5.000000e+000 -1.433875e-011
    endloop
  endfacet
  facet normal -9.992290e-001 -3.049405e-006 -3.926001e-002
    outer loop
      vertex  2.243064e+002 -6.957809e-016  1.765330e+001
      vertex  2.250000e+002  5.000000e+000 -1.433875e-011
      vertex  2.250000e+002 -6.262790e-016  4.263256e-014
    endloop
  endfacet
  facet normal -9.930682e-001 -1.728687e-005 -1.175394e-001
    outer loop
      vertex  2.243064e+002  5.000000e+000  1.765326e+001
      vertex  2.222299e+002 -9.038583e-016  3.519775e+001
      vertex  2.222298e+002  5.000000e+000  3.519779e+001
    endloop
  endfacet
  facet normal -9.807853e-001 -1.647030e-005 -1.950901e-001
    outer loop
      vertex  2.222298e+002  5.000000e+000  3.519779e+001
      vertex  2.222299e+002 -9.038583e-016  3.519775e+001
      vertex  2.187832e+002 -1.249228e-015  5.252521e+001
    endloop
  endfacet
  facet normal -9.807855e-001 -1.304696e-005 -1.950891e-001
    outer loop
      vertex  2.222298e+002  5.000000e+000  3.519779e+001
      vertex  2.187832e+002 -1.249228e-015  5.252521e+001
      vertex  2.187831e+002  5.000000e+000  5.252533e+001
    endloop
  endfacet
  facet normal -9.624552e-001 -1.078902e-005 -2.714405e-001
    outer loop
      vertex  2.187831e+002  5.000000e+000  5.252533e+001
      vertex  2.187832e+002 -1.249228e-015  5.252521e+001
      vertex  2.139877e+002 -1.729761e-015  6.952882e+001
    endloop
  endfacet
  facet normal -9.624557e-001 -5.121798e-006 -2.714390e-001
    outer loop
      vertex  2.187831e+002  5.000000e+000  5.252533e+001
      vertex  2.139877e+002 -1.729761e-015  6.952882e+001
      vertex  2.139877e+002  5.000000e+000  6.952895e+001
    endloop
  endfacet
  facet normal -9.381913e-001 -3.002407e-006 -3.461170e-001
    outer loop
      vertex  2.139877e+002  5.000000e+000  6.952895e+001
      vertex  2.139877e+002 -1.729761e-015  6.952882e+001
      vertex  2.078729e+002 -2.342494e-015  8.610378e+001
    endloop
  endfacet
  facet normal -9.381917e-001  0.000000e+000 -3.461163e-001
    outer loop
      vertex  2.139877e+002  5.000000e+000  6.952895e+001
      vertex  2.078729e+002 -2.342494e-015  8.610378e+001
      vertex  2.078729e+002  5.000000e+000  8.610378e+001
    endloop
  endfacet
  facet normal  1.002046e-016 -1.000000e+000  1.397179e-023
    outer loop
      vertex  2.250000e+002 -6.262790e-016  4.263256e-014
      vertex  2.367679e+002  5.529158e-016  1.863404e+001
      vertex  2.243064e+002 -6.957809e-016  1.765330e+001
    endloop
  endfacet
  facet normal  1.002046e-016 -1.000000e+000  4.264664e-023
    outer loop
      vertex  2.243064e+002 -6.957809e-016  1.765330e+001
      vertex  2.367679e+002  5.529158e-016  1.863404e+001
      vertex  2.345760e+002  3.332787e-016  3.715319e+001
    endloop
  endfacet
  facet normal  1.002047e-016 -1.000000e+000  3.005878e-024
    outer loop
      vertex  2.243064e+002 -6.957809e-016  1.765330e+001
      vertex  2.345760e+002  3.332787e-016  3.715319e+001
      vertex  2.222299e+002 -9.038583e-016  3.519775e+001
    endloop
  endfacet
  facet normal  1.002047e-016 -1.000000e+000 -2.816864e-024
    outer loop
      vertex  2.222299e+002 -9.038583e-016  3.519775e+001
      vertex  2.345760e+002  3.332787e-016  3.715319e+001
      vertex  2.309379e+002 -3.127827e-017  5.544328e+001
    endloop
  endfacet
  facet normal  1.002047e-016 -9.999999e-001 -1.256380e-023
    outer loop
      vertex  2.222299e+002 -9.038583e-016  3.519775e+001
      vertex  2.309379e+002 -3.127827e-017  5.544328e+001
      vertex  2.187832e+002 -1.249228e-015  5.252521e+001
    endloop
  endfacet
  facet normal  1.002047e-016 -1.000000e+000  2.528926e-023
    outer loop
      vertex  2.187832e+002 -1.249228e-015  5.252521e+001
      vertex  2.309379e+002 -3.127827e-017  5.544328e+001
      vertex  2.258759e+002 -5.385075e-016  7.339153e+001
    endloop
  endfacet
  facet normal  1.002047e-016 -1.000000e+000  1.867257e-023
    outer loop
      vertex  2.187832e+002 -1.249228e-015  5.252521e+001
      vertex  2.258759e+002 -5.385075e-016  7.339153e+001
      vertex  2.139877e+002 -1.729761e-015  6.952882e+001
    endloop
  endfacet
  facet normal  1.499883e-011 -1.000000e+000 -4.616135e-011
    outer loop
      vertex  2.139877e+002 -1.729761e-015  6.952882e+001
      vertex  2.258759e+002 -5.385075e-016  7.339153e+001
      vertex  2.194214e+002 -9.044399e-010  9.088731e+001
    endloop
  endfacet
  facet normal -6.793522e-011 -9.999999e-001 -2.506266e-011
    outer loop
      vertex  2.139877e+002 -1.729761e-015  6.952882e+001
      vertex  2.194214e+002 -9.044399e-010  9.088731e+001
      vertex  2.078729e+002 -2.342494e-015  8.610378e+001
    endloop
  endfacet
  facet normal  1.002046e-016 -1.000000e+000 -1.058891e-023
    outer loop
      vertex  2.367679e+002  5.529158e-016  1.863404e+001
      vertex  2.250000e+002 -6.262790e-016  4.263256e-014
      vertex  2.375000e+002  6.262790e-016  2.842171e-014
    endloop
  endfacet
  facet normal  1.002046e-016 -1.000000e+000 -2.149752e-023
    outer loop
      vertex  2.375000e+002  6.262790e-016  2.842171e-014
      vertex  2.250000e+002 -6.262790e-016  4.263256e-014
      vertex  2.243064e+002 -6.957809e-016 -1.765330e+001
    endloop
  endfacet
  facet normal  1.002046e-016 -1.000000e+000  6.372005e-024
    outer loop
      vertex  2.375000e+002  6.262790e-016  2.842171e-014
      vertex  2.243064e+002 -6.957809e-016 -1.765330e+001
      vertex  2.367679e+002  5.529158e-016 -1.863404e+001
    endloop
  endfacet
  facet normal  1.002046e-016 -1.000000e+000  5.454842e-024
    outer loop
      vertex  2.367679e+002  5.529158e-016 -1.863404e+001
      vertex  2.243064e+002 -6.957809e-016 -1.765330e+001
      vertex  2.222299e+002 -9.038583e-016 -3.519775e+001
    endloop
  endfacet
  facet normal  1.002047e-016 -1.000000e+000 -5.066209e-023
    outer loop
      vertex  2.367679e+002  5.529158e-016 -1.863404e+001
      vertex  2.222299e+002 -9.038583e-016 -3.519775e+001
      vertex  2.345760e+002  3.332787e-016 -3.715319e+001
    endloop
  endfacet
  facet normal  1.002047e-016 -1.000000e+000  2.255984e-023
    outer loop
      vertex  2.345760e+002  3.332787e-016 -3.715319e+001
      vertex  2.222299e+002 -9.038583e-016 -3.519775e+001
      vertex  2.187832e+002 -1.249228e-015 -5.252521e+001
    endloop
  endfacet
  facet normal  1.002047e-016 -1.000000e+000  4.484033e-024
    outer loop
      vertex  2.345760e+002  3.332787e-016 -3.715319e+001
      vertex  2.187832e+002 -1.249228e-015 -5.252521e+001
      vertex  2.309379e+002 -3.127827e-017 -5.544328e+001
    endloop
  endfacet
  facet normal  1.002047e-016 -9.999999e-001 -1.686633e-023
    outer loop
      vertex  2.309379e+002 -3.127827e-017 -5.544328e+001
      vertex  2.187832e+002 -1.249228e-015 -5.252521e+001
      vertex  2.139877e+002 -1.729761e-015 -6.952882e+001
    endloop
  endfacet
  facet normal  1.002047e-016 -1.000000e+000 -3.246492e-023
    outer loop
      vertex  2.309379e+002 -3.127827e-017 -5.544328e+001
      vertex  2.139877e+002 -1.729761e-015 -6.952882e+001
      vertex  2.258759e+002 -5.385075e-016 -7.339153e+001
    endloop
  endfacet
  facet normal  1.002047e-016 -9.999999e-001 -4.202960e-023
    outer loop
      vertex  2.258759e+002 -5.385075e-016 -7.339153e+001
      vertex  2.139877e+002 -1.729761e-015 -6.952882e+001
      vertex  2.078729e+002 -2.342494e-015 -8.610378e+001
    endloop
  endfacet
  facet normal  1.002047e-016 -9.999999e-001  1.483985e-023
    outer loop
      vertex  2.258759e+002 -5.385075e-016 -7.339153e+001
      vertex  2.078729e+002 -2.342494e-015 -8.610378e+001
      vertex  2.194214e+002 -1.185282e-015 -9.088731e+001
    endloop
  endfacet
  facet normal  9.634552e-001  9.292656e-003 -2.677080e-001
    outer loop
      vertex  2.260642e+002  5.000000e+000 -7.280959e+001
      vertex  2.312204e+002  5.000000e+000 -5.425302e+001
      vertex  2.309379e+002 -3.127827e-017 -5.544328e+001
    endloop
  endfacet
  facet normal  9.807459e-001 -8.972861e-003 -1.950824e-001
    outer loop
      vertex  2.345760e+002  3.332787e-016 -3.715319e+001
      vertex  2.309379e+002 -3.127827e-017 -5.544328e+001
      vertex  2.312204e+002  5.000000e+000 -5.425302e+001
    endloop
  endfacet
  facet normal  9.819319e-001  1.346171e-002 -1.887552e-001
    outer loop
      vertex  2.312204e+002  5.000000e+000 -5.425302e+001
      vertex  2.348560e+002  5.000000e+000 -3.533968e+001
      vertex  2.345760e+002  3.332787e-016 -3.715319e+001
    endloop
  endfacet
  facet normal  9.929846e-001 -1.299156e-002 -1.175279e-001
    outer loop
      vertex  2.367679e+002  5.529158e-016 -1.863404e+001
      vertex  2.345760e+002  3.332787e-016 -3.715319e+001
      vertex  2.348560e+002  5.000000e+000 -3.533968e+001
    endloop
  endfacet
  facet normal  9.381915e-001  0.000000e+000 -3.461168e-001
    outer loop
      vertex  2.194214e+002 -1.185282e-015 -9.088731e+001
      vertex  2.194214e+002  5.000000e+000 -9.088731e+001
      vertex  2.258759e+002 -5.385075e-016 -7.339153e+001
    endloop
  endfacet
  facet normal  9.386254e-001  4.801087e-003 -3.449048e-001
    outer loop
      vertex  2.258759e+002 -5.385075e-016 -7.339153e+001
      vertex  2.194214e+002  5.000000e+000 -9.088731e+001
      vertex  2.260642e+002  5.000000e+000 -7.280959e+001
    endloop
  endfacet
  facet normal  9.624448e-001 -4.646465e-003 -2.714377e-001
    outer loop
      vertex  2.258759e+002 -5.385075e-016 -7.339153e+001
      vertex  2.260642e+002  5.000000e+000 -7.280959e+001
      vertex  2.309379e+002 -3.127827e-017 -5.544328e+001
    endloop
  endfacet
  facet normal  9.994180e-001  3.049982e-006 -3.411126e-002
    outer loop
      vertex  2.375000e+002  5.000000e+000 -1.975309e-011
      vertex  2.375000e+002  6.262790e-016  2.842171e-014
      vertex  2.369473e+002  5.000000e+000 -1.619399e+001
    endloop
  endfacet
  facet normal  9.990898e-001 -1.669044e-002 -3.925428e-002
    outer loop
      vertex  2.369473e+002  5.000000e+000 -1.619399e+001
      vertex  2.375000e+002  6.262790e-016  2.842171e-014
      vertex  2.367679e+002  5.529158e-016 -1.863404e+001
    endloop
  endfacet
  facet normal  9.939384e-001  1.731872e-002 -1.085652e-001
    outer loop
      vertex  2.369473e+002  5.000000e+000 -1.619399e+001
      vertex  2.367679e+002  5.529158e-016 -1.863404e+001
      vertex  2.348560e+002  5.000000e+000 -3.533968e+001
    endloop
  endfacet
  facet normal  9.992290e-001  3.049405e-006  3.925975e-002
    outer loop
      vertex  2.375000e+002  6.262790e-016  2.842171e-014
      vertex  2.375000e+002  5.000000e+000 -1.975309e-011
      vertex  2.367679e+002  5.529158e-016  1.863404e+001
    endloop
  endfacet
  facet normal  9.992289e-001  1.248219e-005  3.926227e-002
    outer loop
      vertex  2.367679e+002  5.529158e-016  1.863404e+001
      vertex  2.375000e+002  5.000000e+000 -1.975309e-011
      vertex  2.367678e+002  5.000000e+000  1.863400e+001
    endloop
  endfacet
  facet normal  9.930685e-001  1.297432e-005  1.175379e-001
    outer loop
      vertex  2.367679e+002  5.529158e-016  1.863404e+001
      vertex  2.367678e+002  5.000000e+000  1.863400e+001
      vertex  2.345760e+002  3.332787e-016  3.715319e+001
    endloop
  endfacet
  facet normal  9.930683e-001  1.719720e-005  1.175390e-001
    outer loop
      vertex  2.345760e+002  3.332787e-016  3.715319e+001
      vertex  2.367678e+002  5.000000e+000  1.863400e+001
      vertex  2.345759e+002  5.000000e+000  3.715323e+001
    endloop
  endfacet
  facet normal  9.807853e-001  1.632145e-005  1.950902e-001
    outer loop
      vertex  2.345760e+002  3.332787e-016  3.715319e+001
      vertex  2.345759e+002  5.000000e+000  3.715323e+001
      vertex  2.309379e+002 -3.127827e-017  5.544328e+001
    endloop
  endfacet
  facet normal  9.807855e-001  1.260043e-005  1.950892e-001
    outer loop
      vertex  2.309379e+002 -3.127827e-017  5.544328e+001
      vertex  2.345759e+002  5.000000e+000  3.715323e+001
      vertex  2.309378e+002  5.000000e+000  5.544341e+001
    endloop
  endfacet
  facet normal  9.624552e-001  1.016774e-005  2.714406e-001
    outer loop
      vertex  2.309379e+002 -3.127827e-017  5.544328e+001
      vertex  2.309378e+002  5.000000e+000  5.544341e+001
      vertex  2.258759e+002 -5.385075e-016  7.339153e+001
    endloop
  endfacet
  facet normal  9.624558e-001  1.356270e-006  2.714383e-001
    outer loop
      vertex  2.258759e+002 -5.385075e-016  7.339153e+001
      vertex  2.309378e+002  5.000000e+000  5.544341e+001
      vertex  2.258759e+002  5.000000e+000  7.339167e+001
    endloop
  endfacet
  facet normal  9.381915e-001 -9.169826e-007  3.461168e-001
    outer loop
      vertex  2.258759e+002 -5.385075e-016  7.339153e+001
      vertex  2.258759e+002  5.000000e+000  7.339167e+001
      vertex  2.194214e+002 -9.044399e-010  9.088731e+001
    endloop
  endfacet
  facet normal  9.381914e-001  -0.000000e+000  3.461170e-001
    outer loop
      vertex  2.194214e+002 -9.044399e-010  9.088731e+001
      vertex  2.258759e+002  5.000000e+000  7.339167e+001
      vertex  2.194214e+002  5.000000e+000  9.088731e+001
    endloop
  endfacet
  facet normal  0.000000e+000  1.000000e+000  0.000000e+000
    outer loop
      vertex  2.078729e+002  5.000000e+000 -8.610378e+001
      vertex  2.142298e+002  5.000000e+000 -6.877942e+001
      vertex  2.185601e+002  5.000000e+000 -6.891174e+001
    endloop
  endfacet
  facet normal  0.000000e+000  1.000000e+000  0.000000e+000
    outer loop
      vertex  2.078729e+002  5.000000e+000 -8.610378e+001
      vertex  2.185601e+002  5.000000e+000 -6.891174e+001
      vertex  2.225340e+002  5.000000e+000 -7.016469e+001
    endloop
  endfacet
  facet normal  0.000000e+000  1.000000e+000  0.000000e+000
    outer loop
      vertex  2.078729e+002  5.000000e+000 -8.610378e+001
      vertex  2.225340e+002  5.000000e+000 -7.016469e+001
      vertex  2.260642e+002  5.000000e+000 -7.280959e+001
    endloop
  endfacet
  facet normal  0.000000e+000  1.000000e+000  0.000000e+000
    outer loop
      vertex  2.078729e+002  5.000000e+000 -8.610378e+001
      vertex  2.260642e+002  5.000000e+000 -7.280959e+001
      vertex  2.194214e+002  5.000000e+000 -9.088731e+001
    endloop
  endfacet
  facet normal  0.000000e+000  1.000000e+000  0.000000e+000
    outer loop
      vertex  2.313371e+002  5.000000e+000  3.045611e+001
      vertex  2.288499e+002  5.000000e+000  4.552108e+001
      vertex  2.345759e+002  5.000000e+000  3.715323e+001
    endloop
  endfacet
  facet normal  0.000000e+000  1.000000e+000  0.000000e+000
    outer loop
      vertex  2.345759e+002  5.000000e+000  3.715323e+001
      vertex  2.288499e+002  5.000000e+000  4.552108e+001
      vertex  2.253827e+002  5.000000e+000  6.039111e+001
    endloop
  endfacet
  facet normal  0.000000e+000  9.999999e-001  0.000000e+000
    outer loop
      vertex  2.345759e+002  5.000000e+000  3.715323e+001
      vertex  2.253827e+002  5.000000e+000  6.039111e+001
      vertex  2.309378e+002  5.000000e+000  5.544341e+001
    endloop
  endfacet
  facet normal  0.000000e+000  1.000000e+000  0.000000e+000
    outer loop
      vertex  2.309378e+002  5.000000e+000  5.544341e+001
      vertex  2.253827e+002  5.000000e+000  6.039111e+001
      vertex  2.209504e+002  5.000000e+000  7.500254e+001
    endloop
  endfacet
  facet normal  0.000000e+000  1.000000e+000  0.000000e+000
    outer loop
      vertex  2.309378e+002  5.000000e+000  5.544341e+001
      vertex  2.209504e+002  5.000000e+000  7.500254e+001
      vertex  2.258759e+002  5.000000e+000  7.339167e+001
    endloop
  endfacet
  facet normal  0.000000e+000  1.000000e+000  0.000000e+000
    outer loop
      vertex  2.258759e+002  5.000000e+000  7.339167e+001
      vertex  2.209504e+002  5.000000e+000  7.500254e+001
      vertex  2.155719e+002  5.000000e+000  8.929280e+001
    endloop
  endfacet
  facet normal  -0.000000e+000  1.000000e+000  0.000000e+000
    outer loop
      vertex  2.258759e+002  5.000000e+000  7.339167e+001
      vertex  2.155719e+002  5.000000e+000  8.929280e+001
      vertex  2.194214e+002  5.000000e+000  9.088731e+001
    endloop
  endfacet
  facet normal  0.000000e+000  1.000000e+000  0.000000e+000
    outer loop
      vertex  2.369473e+002  5.000000e+000 -1.619399e+001
      vertex  2.333333e+002  5.000000e+000  2.857415e-014
      vertex  2.375000e+002  5.000000e+000 -1.975309e-011
    endloop
  endfacet
  facet normal  0.000000e+000  1.000000e+000  0.000000e+000
    outer loop
      vertex  2.375000e+002  5.000000e+000 -1.975309e-011
      vertex  2.333333e+002  5.000000e+000  2.857415e-014
      vertex  2.328338e+002  5.000000e+000  1.526073e+001
    endloop
  endfacet
  facet normal  -0.000000e+000  1.000000e+000  0.000000e+000
    outer loop
      vertex  2.375000e+002  5.000000e+000 -1.975309e-011
      vertex  2.328338e+002  5.000000e+000  1.526073e+001
      vertex  2.367678e+002  5.000000e+000  1.863400e+001
    endloop
  endfacet
  facet normal  0.000000e+000  1.000000e+000  0.000000e+000
    outer loop
      vertex  2.367678e+002  5.000000e+000  1.863400e+001
      vertex  2.328338e+002  5.000000e+000  1.526073e+001
      vertex  2.313371e+002  5.000000e+000  3.045611e+001
    endloop
  endfacet
  facet normal  -0.000000e+000  1.000000e+000  0.000000e+000
    outer loop
      vertex  2.367678e+002  5.000000e+000  1.863400e+001
      vertex  2.313371e+002  5.000000e+000  3.045611e+001
      vertex  2.345759e+002  5.000000e+000  3.715323e+001
    endloop
  endfacet
  facet normal  0.000000e+000  1.000000e+000  0.000000e+000
    outer loop
      vertex  2.333333e+002  5.000000e+000  2.857415e-014
      vertex  2.369473e+002  5.000000e+000 -1.619399e+001
      vertex  2.326534e+002  5.000000e+000 -1.779959e+001
    endloop
  endfacet
  facet normal  -0.000000e+000  1.000000e+000  0.000000e+000
    outer loop
      vertex  2.326534e+002  5.000000e+000 -1.779959e+001
      vertex  2.369473e+002  5.000000e+000 -1.619399e+001
      vertex  2.348560e+002  5.000000e+000 -3.533968e+001
    endloop
  endfacet
  facet normal  0.000000e+000  1.000000e+000  0.000000e+000
    outer loop
      vertex  2.326534e+002  5.000000e+000 -1.779959e+001
      vertex  2.348560e+002  5.000000e+000 -3.533968e+001
      vertex  2.306177e+002  5.000000e+000 -3.549546e+001
    endloop
  endfacet
  facet normal  -0.000000e+000  1.000000e+000  0.000000e+000
    outer loop
      vertex  2.306177e+002  5.000000e+000 -3.549546e+001
      vertex  2.348560e+002  5.000000e+000 -3.533968e+001
      vertex  2.312204e+002  5.000000e+000 -5.425302e+001
    endloop
  endfacet
  facet normal  0.000000e+000  1.000000e+000  0.000000e+000
    outer loop
      vertex  2.306177e+002  5.000000e+000 -3.549546e+001
      vertex  2.312204e+002  5.000000e+000 -5.425302e+001
      vertex  2.272380e+002  5.000000e+000 -5.298446e+001
    endloop
  endfacet
  facet normal  0.000000e+000  1.000000e+000  0.000000e+000
    outer loop
      vertex  2.272380e+002  5.000000e+000 -5.298446e+001
      vertex  2.312204e+002  5.000000e+000 -5.425302e+001
      vertex  2.260642e+002  5.000000e+000 -7.280959e+001
    endloop
  endfacet
  facet normal  0.000000e+000  1.000000e+000  -0.000000e+000
    outer loop
      vertex  2.272380e+002  5.000000e+000 -5.298446e+001
      vertex  2.260642e+002  5.000000e+000 -7.280959e+001
      vertex  2.225340e+002  5.000000e+000 -7.016469e+001
    endloop
  endfacet
  facet normal  -0.000000e+000  1.000000e+000  0.000000e+000
    outer loop
      vertex  2.272061e+002  5.000000e+000  2.991225e+001
      vertex  2.222298e+002  5.000000e+000  3.519779e+001
      vertex  2.247633e+002  5.000000e+000  4.470820e+001
    endloop
  endfacet
  facet normal  0.000000e+000  1.000000e+000  0.000000e+000
    outer loop
      vertex  2.247633e+002  5.000000e+000  4.470820e+001
      vertex  2.222298e+002  5.000000e+000  3.519779e+001
      vertex  2.187831e+002  5.000000e+000  5.252533e+001
    endloop
  endfacet
  facet normal  -0.000000e+000  1.000000e+000  0.000000e+000
    outer loop
      vertex  2.247633e+002  5.000000e+000  4.470820e+001
      vertex  2.187831e+002  5.000000e+000  5.252533e+001
      vertex  2.213580e+002  5.000000e+000  5.931270e+001
    endloop
  endfacet
  facet normal  0.000000e+000  1.000000e+000  0.000000e+000
    outer loop
      vertex  2.213580e+002  5.000000e+000  5.931270e+001
      vertex  2.187831e+002  5.000000e+000  5.252533e+001
      vertex  2.139877e+002  5.000000e+000  6.952895e+001
    endloop
  endfacet
  facet normal  -0.000000e+000  1.000000e+000  0.000000e+000
    outer loop
      vertex  2.213580e+002  5.000000e+000  5.931270e+001
      vertex  2.139877e+002  5.000000e+000  6.952895e+001
      vertex  2.170048e+002  5.000000e+000  7.366321e+001
    endloop
  endfacet
  facet normal  0.000000e+000  9.999999e-001  0.000000e+000
    outer loop
      vertex  2.170048e+002  5.000000e+000  7.366321e+001
      vertex  2.139877e+002  5.000000e+000  6.952895e+001
      vertex  2.078729e+002  5.000000e+000  8.610378e+001
    endloop
  endfacet
  facet normal  -0.000000e+000  1.000000e+000  0.000000e+000
    outer loop
      vertex  2.170048e+002  5.000000e+000  7.366321e+001
      vertex  2.078729e+002  5.000000e+000  8.610378e+001
      vertex  2.117224e+002  5.000000e+000  8.769829e+001
    endloop
  endfacet
  facet normal  -0.000000e+000  1.000000e+000  0.000000e+000
    outer loop
      vertex  2.284989e+002  5.000000e+000 -1.748174e+001
      vertex  2.250000e+002  5.000000e+000 -1.433875e-011
      vertex  2.291667e+002  5.000000e+000  2.806390e-014
    endloop
  endfacet
  facet normal  0.000000e+000  1.000000e+000  0.000000e+000
    outer loop
      vertex  2.291667e+002  5.000000e+000  2.806390e-014
      vertex  2.250000e+002  5.000000e+000 -1.433875e-011
      vertex  2.243064e+002  5.000000e+000  1.765326e+001
    endloop
  endfacet
  facet normal  0.000000e+000  1.000000e+000  0.000000e+000
    outer loop
      vertex  2.291667e+002  5.000000e+000  2.806390e-014
      vertex  2.243064e+002  5.000000e+000  1.765326e+001
      vertex  2.286760e+002  5.000000e+000  1.498822e+001
    endloop
  endfacet
  facet normal  0.000000e+000  1.000000e+000  0.000000e+000
    outer loop
      vertex  2.286760e+002  5.000000e+000  1.498822e+001
      vertex  2.243064e+002  5.000000e+000  1.765326e+001
      vertex  2.222298e+002  5.000000e+000  3.519779e+001
    endloop
  endfacet
  facet normal  0.000000e+000  1.000000e+000  0.000000e+000
    outer loop
      vertex  2.286760e+002  5.000000e+000  1.498822e+001
      vertex  2.222298e+002  5.000000e+000  3.519779e+001
      vertex  2.272061e+002  5.000000e+000  2.991225e+001
    endloop
  endfacet
  facet normal  0.000000e+000  1.000000e+000  0.000000e+000
    outer loop
      vertex  2.250000e+002  5.000000e+000 -1.433875e-011
      vertex  2.284989e+002  5.000000e+000 -1.748174e+001
      vertex  2.245316e+002  5.000000e+000 -1.451120e+001
    endloop
  endfacet
  facet normal  0.000000e+000  1.000000e+000  0.000000e+000
    outer loop
      vertex  2.245316e+002  5.000000e+000 -1.451120e+001
      vertex  2.284989e+002  5.000000e+000 -1.748174e+001
      vertex  2.264995e+002  5.000000e+000 -3.486161e+001
    endloop
  endfacet
  facet normal  0.000000e+000  1.000000e+000  0.000000e+000
    outer loop
      vertex  2.245316e+002  5.000000e+000 -1.451120e+001
      vertex  2.264995e+002  5.000000e+000 -3.486161e+001
      vertex  2.225872e+002  5.000000e+000 -3.286228e+001
    endloop
  endfacet
  facet normal  0.000000e+000  1.000000e+000  0.000000e+000
    outer loop
      vertex  2.225872e+002  5.000000e+000 -3.286228e+001
      vertex  2.264995e+002  5.000000e+000 -3.486161e+001
      vertex  2.231801e+002  5.000000e+000 -5.203831e+001
    endloop
  endfacet
  facet normal  0.000000e+000  1.000000e+000  0.000000e+000
    outer loop
      vertex  2.225872e+002  5.000000e+000 -3.286228e+001
      vertex  2.231801e+002  5.000000e+000 -5.203831e+001
      vertex  2.191456e+002  5.000000e+000 -5.099236e+001
    endloop
  endfacet
  facet normal  0.000000e+000  9.999999e-001  0.000000e+000
    outer loop
      vertex  2.191456e+002  5.000000e+000 -5.099236e+001
      vertex  2.231801e+002  5.000000e+000 -5.203831e+001
      vertex  2.185601e+002  5.000000e+000 -6.891174e+001
    endloop
  endfacet
  facet normal  0.000000e+000  1.000000e+000  -0.000000e+000
    outer loop
      vertex  2.191456e+002  5.000000e+000 -5.099236e+001
      vertex  2.185601e+002  5.000000e+000 -6.891174e+001
      vertex  2.142298e+002  5.000000e+000 -6.877942e+001
    endloop
  endfacet
  facet normal  9.818034e-001 -7.973326e-003 -1.897324e-001
    outer loop
      vertex  2.306177e+002  5.000000e+000 -3.549546e+001
      vertex  2.272380e+002  5.000000e+000 -5.298446e+001
      vertex  2.285755e+002  2.442539e+001 -4.687923e+001
    endloop
  endfacet
  facet normal  9.157461e-001 -1.270811e-001 -3.811291e-001
    outer loop
      vertex  2.306177e+002  5.000000e+000 -3.549546e+001
      vertex  2.285755e+002  2.442539e+001 -4.687923e+001
      vertex  2.286407e+002  2.393892e+001 -4.656047e+001
    endloop
  endfacet
  facet normal  9.767368e-001 -2.262816e-002 -2.132443e-001
    outer loop
      vertex  2.306177e+002  5.000000e+000 -3.549546e+001
      vertex  2.286407e+002  2.393892e+001 -4.656047e+001
      vertex  2.287373e+002  2.361407e+001 -4.608366e+001
    endloop
  endfacet
  facet normal  9.798854e-001 -1.423733e-002 -1.990524e-001
    outer loop
      vertex  2.306177e+002  5.000000e+000 -3.549546e+001
      vertex  2.287373e+002  2.361407e+001 -4.608366e+001
      vertex  2.288499e+002  2.350000e+001 -4.552108e+001
    endloop
  endfacet
  facet normal  9.816500e-001 -9.411737e-003 -1.904591e-001
    outer loop
      vertex  2.306177e+002  5.000000e+000 -3.549546e+001
      vertex  2.288499e+002  2.350000e+001 -4.552108e+001
      vertex  2.290129e+002  2.375942e+001 -4.469380e+001
    endloop
  endfacet
  facet normal  9.832337e-001 -5.262726e-003 -1.822737e-001
    outer loop
      vertex  2.306177e+002  5.000000e+000 -3.549546e+001
      vertex  2.290129e+002  2.375942e+001 -4.469380e+001
      vertex  2.291333e+002  2.473257e+001 -4.407256e+001
    endloop
  endfacet
  facet normal  9.848163e-001 -1.370925e-003 -1.735941e-001
    outer loop
      vertex  2.306177e+002  5.000000e+000 -3.549546e+001
      vertex  2.291333e+002  2.473257e+001 -4.407256e+001
      vertex  2.291378e+002  2.500000e+001 -4.404896e+001
    endloop
  endfacet
  facet normal  9.853607e-001  0.000000e+000 -1.704828e-001
    outer loop
      vertex  2.306177e+002  5.000000e+000 -3.549546e+001
      vertex  2.291378e+002  2.500000e+001 -4.404896e+001
      vertex  2.306177e+002  2.500000e+001 -3.549546e+001
    endloop
  endfacet
  facet normal  9.934478e-001  0.000000e+000 -1.142865e-001
    outer loop
      vertex  2.306177e+002  5.000000e+000 -3.549546e+001
      vertex  2.306177e+002  2.500000e+001 -3.549546e+001
      vertex  2.326534e+002  2.500000e+001 -1.779959e+001
    endloop
  endfacet
  facet normal  9.934478e-001  0.000000e+000 -1.142865e-001
    outer loop
      vertex  2.306177e+002  5.000000e+000 -3.549546e+001
      vertex  2.326534e+002  2.500000e+001 -1.779959e+001
      vertex  2.326534e+002  5.000000e+000 -1.779959e+001
    endloop
  endfacet
  facet normal  9.938228e-001  2.304725e-003 -1.109553e-001
    outer loop
      vertex  2.307121e+002  4.000000e+001 -3.487686e+001
      vertex  2.327231e+002  4.000000e+001 -1.686356e+001
      vertex  2.326534e+002  2.500000e+001 -1.779959e+001
    endloop
  endfacet
  facet normal  9.934466e-001 -1.536305e-003 -1.142863e-001
    outer loop
      vertex  2.307121e+002  4.000000e+001 -3.487686e+001
      vertex  2.326534e+002  2.500000e+001 -1.779959e+001
      vertex  2.306177e+002  2.500000e+001 -3.549546e+001
    endloop
  endfacet
  facet normal  9.853603e-001  8.320973e-004 -1.704827e-001
    outer loop
      vertex  2.307121e+002  4.000000e+001 -3.487686e+001
      vertex  2.306177e+002  2.500000e+001 -3.549546e+001
      vertex  2.291378e+002  2.500000e+001 -4.404896e+001
    endloop
  endfacet
  facet normal  9.844087e-001  4.211206e-003 -1.758455e-001
    outer loop
      vertex  2.307121e+002  4.000000e+001 -3.487686e+001
      vertex  2.291378e+002  2.500000e+001 -4.404896e+001
      vertex  2.290888e+002  2.584247e+001 -4.430315e+001
    endloop
  endfacet
  facet normal  9.828308e-001  9.980764e-003 -1.842392e-001
    outer loop
      vertex  2.307121e+002  4.000000e+001 -3.487686e+001
      vertex  2.290888e+002  2.584247e+001 -4.430315e+001
      vertex  2.289371e+002  2.643126e+001 -4.508020e+001
    endloop
  endfacet
  facet normal  9.813190e-001  1.581622e-002 -1.917364e-001
    outer loop
      vertex  2.307121e+002  4.000000e+001 -3.487686e+001
      vertex  2.289371e+002  2.643126e+001 -4.508020e+001
      vertex  2.288499e+002  2.650000e+001 -4.552108e+001
    endloop
  endfacet
  facet normal  9.784533e-001  2.648240e-002 -2.047629e-001
    outer loop
      vertex  2.307121e+002  4.000000e+001 -3.487686e+001
      vertex  2.288499e+002  2.650000e+001 -4.552108e+001
      vertex  2.286841e+002  2.624128e+001 -4.634682e+001
    endloop
  endfacet
  facet normal  9.821466e-001  1.175512e-002 -1.877499e-001
    outer loop
      vertex  2.273088e+002  4.000000e+001 -5.267971e+001
      vertex  2.307121e+002  4.000000e+001 -3.487686e+001
      vertex  2.286841e+002  2.624128e+001 -4.634682e+001
    endloop
  endfacet
  facet normal  9.788321e-001  3.653053e-003 -2.046325e-001
    outer loop
      vertex  2.273088e+002  4.000000e+001 -5.267971e+001
      vertex  2.286841e+002  2.624128e+001 -4.634682e+001
      vertex  2.285670e+002  2.545999e+001 -4.692066e+001
    endloop
  endfacet
  facet normal  9.776946e-001  1.417871e-003 -2.100272e-001
    outer loop
      vertex  2.273088e+002  4.000000e+001 -5.267971e+001
      vertex  2.285670e+002  2.545999e+001 -4.692066e+001
      vertex  2.285525e+002  2.500000e+001 -4.699131e+001
    endloop
  endfacet
  facet normal  9.767782e-001 -2.605449e-004 -2.142527e-001
    outer loop
      vertex  2.273088e+002  4.000000e+001 -5.267971e+001
      vertex  2.285525e+002  2.500000e+001 -4.699131e+001
      vertex  2.272380e+002  2.500000e+001 -5.298446e+001
    endloop
  endfacet
  facet normal  9.646763e-001  7.958718e-004 -2.634371e-001
    outer loop
      vertex  2.273088e+002  4.000000e+001 -5.267971e+001
      vertex  2.272380e+002  2.500000e+001 -5.298446e+001
      vertex  2.225340e+002  4.000000e+001 -7.016469e+001
    endloop
  endfacet
  facet normal  9.767748e-001 -2.678492e-003 -2.142520e-001
    outer loop
      vertex  2.285525e+002  2.500000e+001 -4.699131e+001
      vertex  2.285755e+002  2.442539e+001 -4.687923e+001
      vertex  2.272380e+002  2.500000e+001 -5.298446e+001
    endloop
  endfacet
  facet normal  9.768310e-001  0.000000e+000 -2.140122e-001
    outer loop
      vertex  2.272380e+002  2.500000e+001 -5.298446e+001
      vertex  2.285755e+002  2.442539e+001 -4.687923e+001
      vertex  2.272380e+002  5.000000e+000 -5.298446e+001
    endloop
  endfacet
  facet normal  9.644998e-001  0.000000e+000 -2.640837e-001
    outer loop
      vertex  2.272380e+002  2.500000e+001 -5.298446e+001
      vertex  2.272380e+002  5.000000e+000 -5.298446e+001
      vertex  2.225340e+002  4.000000e+001 -7.016469e+001
    endloop
  endfacet
  facet normal  9.644998e-001  0.000000e+000 -2.640837e-001
    outer loop
      vertex  2.225340e+002  4.000000e+001 -7.016469e+001
      vertex  2.272380e+002  5.000000e+000 -5.298446e+001
      vertex  2.225340e+002  5.000000e+000 -7.016469e+001
    endloop
  endfacet
  facet normal  9.993432e-001 -2.388384e-003 -3.615889e-002
    outer loop
      vertex  2.327231e+002  4.000000e+001 -1.686356e+001
      vertex  2.333333e+002  4.000000e+001 -2.565059e-011
      vertex  2.326534e+002  2.500000e+001 -1.779959e+001
    endloop
  endfacet
  facet normal  9.992713e-001  4.356477e-007 -3.816924e-002
    outer loop
      vertex  2.326534e+002  2.500000e+001 -1.779959e+001
      vertex  2.333333e+002  4.000000e+001 -2.565059e-011
      vertex  2.333333e+002  5.000000e+000  2.857415e-014
    endloop
  endfacet
  facet normal  9.992713e-001  0.000000e+000 -3.816973e-002
    outer loop
      vertex  2.326534e+002  2.500000e+001 -1.779959e+001
      vertex  2.333333e+002  5.000000e+000  2.857415e-014
      vertex  2.326534e+002  5.000000e+000 -1.779959e+001
    endloop
  endfacet
  facet normal  9.994467e-001  5.995934e-003  3.271772e-002
    outer loop
      vertex  2.333333e+002  5.000000e+000  2.857415e-014
      vertex  2.326140e+002  2.500000e+001  1.830712e+001
      vertex  2.328338e+002  5.000000e+000  1.526073e+001
    endloop
  endfacet
  facet normal  9.951767e-001 -3.997372e-003  9.801721e-002
    outer loop
      vertex  2.313371e+002  5.000000e+000  3.045611e+001
      vertex  2.328338e+002  5.000000e+000  1.526073e+001
      vertex  2.326140e+002  2.500000e+001  1.830712e+001
    endloop
  endfacet
  facet normal  9.930368e-001  7.994354e-003  1.175334e-001
    outer loop
      vertex  2.326140e+002  2.500000e+001  1.830712e+001
      vertex  2.304606e+002  2.500000e+001  3.650137e+001
      vertex  2.313371e+002  5.000000e+000  3.045611e+001
    endloop
  endfacet
  facet normal  9.624244e-001  7.994357e-003  2.714319e-001
    outer loop
      vertex  2.253827e+002  5.000000e+000  6.039111e+001
      vertex  2.268863e+002  2.500000e+001  5.447058e+001
      vertex  2.219132e+002  2.500000e+001  7.210397e+001
    endloop
  endfacet
  facet normal  9.849831e-001  2.596681e-003  1.726314e-001
    outer loop
      vertex  2.291378e+002  2.500000e+001  4.404896e+001
      vertex  2.304606e+002  2.500000e+001  3.650137e+001
      vertex  2.291242e+002  2.545998e+001  4.411979e+001
    endloop
  endfacet
  facet normal  9.381913e-001  6.487129e-007  3.461172e-001
    outer loop
      vertex  2.155719e+002  4.000000e+001  8.929280e+001
      vertex  2.219132e+002  2.500000e+001  7.210397e+001
      vertex  2.219131e+002  4.000000e+001  7.210410e+001
    endloop
  endfacet
  facet normal  9.866257e-001 -5.996867e-003  1.628921e-001
    outer loop
      vertex  2.288499e+002  5.000000e+000  4.552108e+001
      vertex  2.313371e+002  5.000000e+000  3.045611e+001
      vertex  2.304606e+002  2.500000e+001  3.650137e+001
    endloop
  endfacet
  facet normal  9.849853e-001 -1.472279e-003  1.726318e-001
    outer loop
      vertex  2.288499e+002  5.000000e+000  4.552108e+001
      vertex  2.304606e+002  2.500000e+001  3.650137e+001
      vertex  2.291378e+002  2.500000e+001  4.404896e+001
    endloop
  endfacet
  facet normal  9.823264e-001 -3.634846e-004  1.871758e-001
    outer loop
      vertex  2.288499e+002  5.000000e+000  4.552108e+001
      vertex  2.291378e+002  2.500000e+001  4.404896e+001
      vertex  2.291162e+002  2.442539e+001  4.416132e+001
    endloop
  endfacet
  facet normal  9.818462e-001 -1.817060e-004  1.896786e-001
    outer loop
      vertex  2.288499e+002  5.000000e+000  4.552108e+001
      vertex  2.291162e+002  2.442539e+001  4.416132e+001
      vertex  2.290544e+002  2.393892e+001  4.448074e+001
    endloop
  endfacet
  facet normal  9.814687e-001 -7.085649e-005  1.916224e-001
    outer loop
      vertex  2.288499e+002  5.000000e+000  4.552108e+001
      vertex  2.290544e+002  2.393892e+001  4.448074e+001
      vertex  2.289611e+002  2.361407e+001  4.495822e+001
    endloop
  endfacet
  facet normal  9.810257e-001  0.000000e+000  1.938781e-001
    outer loop
      vertex  2.288499e+002  5.000000e+000  4.552108e+001
      vertex  2.289611e+002  2.361407e+001  4.495822e+001
      vertex  2.288499e+002  2.350000e+001  4.552108e+001
    endloop
  endfacet
  facet normal  9.804323e-001  0.000000e+000  1.968565e-001
    outer loop
      vertex  2.288499e+002  5.000000e+000  4.552108e+001
      vertex  2.288499e+002  2.350000e+001  4.552108e+001
      vertex  2.286839e+002  2.375942e+001  4.634776e+001
    endloop
  endfacet
  facet normal  9.797547e-001 -1.534038e-004  2.002016e-001
    outer loop
      vertex  2.288499e+002  5.000000e+000  4.552108e+001
      vertex  2.286839e+002  2.375942e+001  4.634776e+001
      vertex  2.285574e+002  2.473257e+001  4.696777e+001
    endloop
  endfacet
  facet normal  9.762740e-001 -1.402481e-003  2.165348e-001
    outer loop
      vertex  2.288499e+002  5.000000e+000  4.552108e+001
      vertex  2.285574e+002  2.473257e+001  4.696777e+001
      vertex  2.285525e+002  2.500000e+001  4.699131e+001
    endloop
  endfacet
  facet normal  9.760711e-001 -1.472537e-003  2.174468e-001
    outer loop
      vertex  2.288499e+002  5.000000e+000  4.552108e+001
      vertex  2.285525e+002  2.500000e+001  4.699131e+001
      vertex  2.268863e+002  2.500000e+001  5.447058e+001
    endloop
  endfacet
  facet normal  9.738594e-001 -5.996906e-003  2.270724e-001
    outer loop
      vertex  2.288499e+002  5.000000e+000  4.552108e+001
      vertex  2.268863e+002  2.500000e+001  5.447058e+001
      vertex  2.253827e+002  5.000000e+000  6.039111e+001
    endloop
  endfacet
  facet normal  9.624559e-001  1.431151e-006  2.714383e-001
    outer loop
      vertex  2.268862e+002  4.000000e+001  5.447073e+001
      vertex  2.219131e+002  4.000000e+001  7.210410e+001
      vertex  2.219132e+002  2.500000e+001  7.210397e+001
    endloop
  endfacet
  facet normal  9.624552e-001  4.230246e-006  2.714405e-001
    outer loop
      vertex  2.268862e+002  4.000000e+001  5.447073e+001
      vertex  2.219132e+002  2.500000e+001  7.210397e+001
      vertex  2.268863e+002  2.500000e+001  5.447058e+001
    endloop
  endfacet
  facet normal  9.760721e-001  4.848997e-006  2.174470e-001
    outer loop
      vertex  2.268862e+002  4.000000e+001  5.447073e+001
      vertex  2.268863e+002  2.500000e+001  5.447058e+001
      vertex  2.285525e+002  2.500000e+001  4.699131e+001
    endloop
  endfacet
  facet normal  9.774348e-001  3.265153e-003  2.112121e-001
    outer loop
      vertex  2.268862e+002  4.000000e+001  5.447073e+001
      vertex  2.285525e+002  2.500000e+001  4.699131e+001
      vertex  2.286045e+002  2.584247e+001  4.673771e+001
    endloop
  endfacet
  facet normal  9.789391e-001  7.376656e-003  2.040190e-001
    outer loop
      vertex  2.268862e+002  4.000000e+001  5.447073e+001
      vertex  2.286045e+002  2.584247e+001  4.673771e+001
      vertex  2.287618e+002  2.643127e+001  4.596178e+001
    endloop
  endfacet
  facet normal  9.801862e-001  1.148343e-002  1.977451e-001
    outer loop
      vertex  2.268862e+002  4.000000e+001  5.447073e+001
      vertex  2.287618e+002  2.643127e+001  4.596178e+001
      vertex  2.288499e+002  2.650000e+001  4.552108e+001
    endloop
  endfacet
  facet normal  9.820480e-001  1.839196e-002  1.877325e-001
    outer loop
      vertex  2.268862e+002  4.000000e+001  5.447073e+001
      vertex  2.288499e+002  2.650000e+001  4.552108e+001
      vertex  2.290127e+002  2.624128e+001  4.469474e+001
    endloop
  endfacet
  facet normal  8.283699e-001  4.038592e-001 -3.882023e-001
    outer loop
      vertex  2.268862e+002  4.000000e+001  5.447073e+001
      vertex  2.290127e+002  2.624128e+001  4.469474e+001
      vertex  2.291242e+002  2.545998e+001  4.411979e+001
    endloop
  endfacet
  facet normal  9.848254e-001  2.987885e-002  1.709566e-001
    outer loop
      vertex  2.268862e+002  4.000000e+001  5.447073e+001
      vertex  2.291242e+002  2.545998e+001  4.411979e+001
      vertex  2.304606e+002  2.500000e+001  3.650137e+001
    endloop
  endfacet
  facet normal  9.807855e-001  6.289354e-006  1.950892e-001
    outer loop
      vertex  2.268862e+002  4.000000e+001  5.447073e+001
      vertex  2.304606e+002  2.500000e+001  3.650137e+001
      vertex  2.304605e+002  4.000000e+001  3.650143e+001
    endloop
  endfacet
  facet normal  9.930682e-001  6.652924e-006  1.175391e-001
    outer loop
      vertex  2.304605e+002  4.000000e+001  3.650143e+001
      vertex  2.304606e+002  2.500000e+001  3.650137e+001
      vertex  2.326140e+002  4.000000e+001  1.830709e+001
    endloop
  endfacet
  facet normal  9.930685e-001  4.294882e-006  1.175372e-001
    outer loop
      vertex  2.326140e+002  4.000000e+001  1.830709e+001
      vertex  2.304606e+002  2.500000e+001  3.650137e+001
      vertex  2.326140e+002  2.500000e+001  1.830712e+001
    endloop
  endfacet
  facet normal  9.992290e-001  4.150745e-006  3.926212e-002
    outer loop
      vertex  2.326140e+002  4.000000e+001  1.830709e+001
      vertex  2.326140e+002  2.500000e+001  1.830712e+001
      vertex  2.333333e+002  4.000000e+001 -2.565059e-011
    endloop
  endfacet
  facet normal  9.992290e-001  4.356293e-007  3.925908e-002
    outer loop
      vertex  2.333333e+002  4.000000e+001 -2.565059e-011
      vertex  2.326140e+002  2.500000e+001  1.830712e+001
      vertex  2.333333e+002  5.000000e+000  2.857415e-014
    endloop
  endfacet
  facet normal  9.381911e-001  -0.000000e+000  3.461176e-001
    outer loop
      vertex  2.155719e+002  4.000000e+001  8.929280e+001
      vertex  2.155719e+002  5.000000e+000  8.929280e+001
      vertex  2.219132e+002  2.500000e+001  7.210397e+001
    endloop
  endfacet
  facet normal  9.358889e-001  5.995207e-003  3.522440e-001
    outer loop
      vertex  2.219132e+002  2.500000e+001  7.210397e+001
      vertex  2.155719e+002  5.000000e+000  8.929280e+001
      vertex  2.209504e+002  5.000000e+000  7.500254e+001
    endloop
  endfacet
  facet normal  9.569328e-001 -3.997917e-003  2.902822e-001
    outer loop
      vertex  2.219132e+002  2.500000e+001  7.210397e+001
      vertex  2.209504e+002  5.000000e+000  7.500254e+001
      vertex  2.253827e+002  5.000000e+000  6.039111e+001
    endloop
  endfacet
  facet normal  0.000000e+000  1.000000e+000  0.000000e+000
    outer loop
      vertex  2.272061e+002  4.000000e+001  2.991225e+001
      vertex  2.247633e+002  4.000000e+001  4.470820e+001
      vertex  2.304605e+002  4.000000e+001  3.650143e+001
    endloop
  endfacet
  facet normal  0.000000e+000  1.000000e+000  0.000000e+000
    outer loop
      vertex  2.304605e+002  4.000000e+001  3.650143e+001
      vertex  2.247633e+002  4.000000e+001  4.470820e+001
      vertex  2.213580e+002  4.000000e+001  5.931270e+001
    endloop
  endfacet
  facet normal  0.000000e+000  1.000000e+000  0.000000e+000
    outer loop
      vertex  2.304605e+002  4.000000e+001  3.650143e+001
      vertex  2.213580e+002  4.000000e+001  5.931270e+001
      vertex  2.268862e+002  4.000000e+001  5.447073e+001
    endloop
  endfacet
  facet normal  0.000000e+000  1.000000e+000  0.000000e+000
    outer loop
      vertex  2.268862e+002  4.000000e+001  5.447073e+001
      vertex  2.213580e+002  4.000000e+001  5.931270e+001
      vertex  2.170048e+002  4.000000e+001  7.366321e+001
    endloop
  endfacet
  facet normal  0.000000e+000  1.000000e+000  0.000000e+000
    outer loop
      vertex  2.268862e+002  4.000000e+001  5.447073e+001
      vertex  2.170048e+002  4.000000e+001  7.366321e+001
      vertex  2.219131e+002  4.000000e+001  7.210410e+001
    endloop
  endfacet
  facet normal  0.000000e+000  1.000000e+000  0.000000e+000
    outer loop
      vertex  2.219131e+002  4.000000e+001  7.210410e+001
      vertex  2.170048e+002  4.000000e+001  7.366321e+001
      vertex  2.117224e+002  4.000000e+001  8.769829e+001
    endloop
  endfacet
  facet normal  -0.000000e+000  1.000000e+000  0.000000e+000
    outer loop
      vertex  2.219131e+002  4.000000e+001  7.210410e+001
      vertex  2.117224e+002  4.000000e+001  8.769829e+001
      vertex  2.155719e+002  4.000000e+001  8.929280e+001
    endloop
  endfacet
  facet normal  0.000000e+000  1.000000e+000  0.000000e+000
    outer loop
      vertex  2.327231e+002  4.000000e+001 -1.686356e+001
      vertex  2.291667e+002  4.000000e+001  2.806390e-014
      vertex  2.333333e+002  4.000000e+001 -2.565059e-011
    endloop
  endfacet
  facet normal  0.000000e+000  1.000000e+000  0.000000e+000
    outer loop
      vertex  2.333333e+002  4.000000e+001 -2.565059e-011
      vertex  2.291667e+002  4.000000e+001  2.806390e-014
      vertex  2.286760e+002  4.000000e+001  1.498822e+001
    endloop
  endfacet
  facet normal  -0.000000e+000  1.000000e+000  0.000000e+000
    outer loop
      vertex  2.333333e+002  4.000000e+001 -2.565059e-011
      vertex  2.286760e+002  4.000000e+001  1.498822e+001
      vertex  2.326140e+002  4.000000e+001  1.830709e+001
    endloop
  endfacet
  facet normal  0.000000e+000  1.000000e+000  0.000000e+000
    outer loop
      vertex  2.326140e+002  4.000000e+001  1.830709e+001
      vertex  2.286760e+002  4.000000e+001  1.498822e+001
      vertex  2.272061e+002  4.000000e+001  2.991225e+001
    endloop
  endfacet
  facet normal  -0.000000e+000  1.000000e+000  0.000000e+000
    outer loop
      vertex  2.326140e+002  4.000000e+001  1.830709e+001
      vertex  2.272061e+002  4.000000e+001  2.991225e+001
      vertex  2.304605e+002  4.000000e+001  3.650143e+001
    endloop
  endfacet
  facet normal  0.000000e+000  1.000000e+000  0.000000e+000
    outer loop
      vertex  2.291667e+002  4.000000e+001  2.806390e-014
      vertex  2.327231e+002  4.000000e+001 -1.686356e+001
      vertex  2.284989e+002  4.000000e+001 -1.748174e+001
    endloop
  endfacet
  facet normal  -0.000000e+000  1.000000e+000  0.000000e+000
    outer loop
      vertex  2.284989e+002  4.000000e+001 -1.748174e+001
      vertex  2.327231e+002  4.000000e+001 -1.686356e+001
      vertex  2.307121e+002  4.000000e+001 -3.487686e+001
    endloop
  endfacet
  facet normal  0.000000e+000  1.000000e+000  0.000000e+000
    outer loop
      vertex  2.284989e+002  4.000000e+001 -1.748174e+001
      vertex  2.307121e+002  4.000000e+001 -3.487686e+001
      vertex  2.264995e+002  4.000000e+001 -3.486161e+001
    endloop
  endfacet
  facet normal  0.000000e+000  1.000000e+000  0.000000e+000
    outer loop
      vertex  2.264995e+002  4.000000e+001 -3.486161e+001
      vertex  2.307121e+002  4.000000e+001 -3.487686e+001
      vertex  2.273088e+002  4.000000e+001 -5.267971e+001
    endloop
  endfacet
  facet normal  0.000000e+000  1.000000e+000  0.000000e+000
    outer loop
      vertex  2.264995e+002  4.000000e+001 -3.486161e+001
      vertex  2.273088e+002  4.000000e+001 -5.267971e+001
      vertex  2.231801e+002  4.000000e+001 -5.203831e+001
    endloop
  endfacet
  facet normal  0.000000e+000  1.000000e+000  0.000000e+000
    outer loop
      vertex  2.231801e+002  4.000000e+001 -5.203831e+001
      vertex  2.273088e+002  4.000000e+001 -5.267971e+001
      vertex  2.225340e+002  4.000000e+001 -7.016469e+001
    endloop
  endfacet
  facet normal  0.000000e+000  1.000000e+000  -0.000000e+000
    outer loop
      vertex  2.231801e+002  4.000000e+001 -5.203831e+001
      vertex  2.225340e+002  4.000000e+001 -7.016469e+001
      vertex  2.185601e+002  4.000000e+001 -6.891174e+001
    endloop
  endfacet
  facet normal -9.934478e-001  0.000000e+000  1.142868e-001
    outer loop
      vertex  2.264995e+002  5.000000e+000 -3.486161e+001
      vertex  2.284989e+002  5.000000e+000 -1.748174e+001
      vertex  2.284989e+002  2.501154e+001 -1.748174e+001
    endloop
  endfacet
  facet normal -9.934478e-001  0.000000e+000  1.142868e-001
    outer loop
      vertex  2.264995e+002  5.000000e+000 -3.486161e+001
      vertex  2.284989e+002  2.501154e+001 -1.748174e+001
      vertex  2.264995e+002  2.501154e+001 -3.486161e+001
    endloop
  endfacet
  facet normal -9.853708e-001  0.000000e+000  1.704238e-001
    outer loop
      vertex  2.264995e+002  5.000000e+000 -3.486161e+001
      vertex  2.264995e+002  2.501154e+001 -3.486161e+001
      vertex  2.250511e+002  2.500000e+001 -4.323606e+001
    endloop
  endfacet
  facet normal -9.846276e-001  1.826457e-003  1.746572e-001
    outer loop
      vertex  2.264995e+002  5.000000e+000 -3.486161e+001
      vertex  2.250511e+002  2.500000e+001 -4.323606e+001
      vertex  2.250423e+002  2.462773e+001 -4.328215e+001
    endloop
  endfacet
  facet normal -9.831840e-001  5.315523e-003  1.825401e-001
    outer loop
      vertex  2.264995e+002  5.000000e+000 -3.486161e+001
      vertex  2.250423e+002  2.462773e+001 -4.328215e+001
      vertex  2.249301e+002  2.377328e+001 -4.386125e+001
    endloop
  endfacet
  facet normal -9.819156e-001  8.578074e-003  1.891246e-001
    outer loop
      vertex  2.264995e+002  5.000000e+000 -3.486161e+001
      vertex  2.249301e+002  2.377328e+001 -4.386125e+001
      vertex  2.248148e+002  2.352349e+001 -4.444884e+001
    endloop
  endfacet
  facet normal -9.801966e-001  1.311691e-002  1.975920e-001
    outer loop
      vertex  2.264995e+002  5.000000e+000 -3.486161e+001
      vertex  2.248148e+002  2.352349e+001 -4.444884e+001
      vertex  2.246396e+002  2.363857e+001 -4.532560e+001
    endloop
  endfacet
  facet normal -9.744866e-001  2.779295e-002  2.227182e-001
    outer loop
      vertex  2.264995e+002  5.000000e+000 -3.486161e+001
      vertex  2.246396e+002  2.363857e+001 -4.532560e+001
      vertex  2.245134e+002  2.419131e+001 -4.594658e+001
    endloop
  endfacet
  facet normal -9.818035e-001  7.982629e-003  1.897318e-001
    outer loop
      vertex  2.264995e+002  5.000000e+000 -3.486161e+001
      vertex  2.245134e+002  2.419131e+001 -4.594658e+001
      vertex  2.231801e+002  5.000000e+000 -5.203831e+001
    endloop
  endfacet
  facet normal -9.818348e-001  0.000000e+000  1.897378e-001
    outer loop
      vertex  2.264995e+002  4.000000e+001 -3.486161e+001
      vertex  2.231801e+002  4.000000e+001 -5.203831e+001
      vertex  2.231801e+002  2.501154e+001 -5.203831e+001
    endloop
  endfacet
  facet normal -9.752110e-001 -3.450867e-002  2.185702e-001
    outer loop
      vertex  2.264995e+002  4.000000e+001 -3.486161e+001
      vertex  2.231801e+002  2.501154e+001 -5.203831e+001
      vertex  2.245414e+002  2.599399e+001 -4.580939e+001
    endloop
  endfacet
  facet normal -9.714559e-001 -4.607959e-002  2.327018e-001
    outer loop
      vertex  2.264995e+002  4.000000e+001 -3.486161e+001
      vertex  2.245414e+002  2.599399e+001 -4.580939e+001
      vertex  2.246357e+002  2.635221e+001 -4.534511e+001
    endloop
  endfacet
  facet normal -9.792734e-001 -2.100668e-002  2.014508e-001
    outer loop
      vertex  2.264995e+002  4.000000e+001 -3.486161e+001
      vertex  2.246357e+002  2.635221e+001 -4.534511e+001
      vertex  2.247566e+002  2.649965e+001 -4.474197e+001
    endloop
  endfacet
  facet normal -9.813815e-001 -1.351957e-002  1.915925e-001
    outer loop
      vertex  2.264995e+002  4.000000e+001 -3.486161e+001
      vertex  2.247566e+002  2.649965e+001 -4.474197e+001
      vertex  2.248701e+002  2.639512e+001 -4.416769e+001
    endloop
  endfacet
  facet normal -9.827031e-001 -8.836314e-003  1.849772e-001
    outer loop
      vertex  2.264995e+002  4.000000e+001 -3.486161e+001
      vertex  2.248701e+002  2.639512e+001 -4.416769e+001
      vertex  2.249892e+002  2.593448e+001 -4.355692e+001
    endloop
  endfacet
  facet normal -9.840840e-001 -4.161542e-003  1.776552e-001
    outer loop
      vertex  2.264995e+002  4.000000e+001 -3.486161e+001
      vertex  2.249892e+002  2.593448e+001 -4.355692e+001
      vertex  2.250511e+002  2.500000e+001 -4.323606e+001
    endloop
  endfacet
  facet normal -9.853708e-001  0.000000e+000  1.704237e-001
    outer loop
      vertex  2.264995e+002  4.000000e+001 -3.486161e+001
      vertex  2.250511e+002  2.500000e+001 -4.323606e+001
      vertex  2.264995e+002  2.501154e+001 -3.486161e+001
    endloop
  endfacet
  facet normal -9.934478e-001  0.000000e+000  1.142868e-001
    outer loop
      vertex  2.264995e+002  4.000000e+001 -3.486161e+001
      vertex  2.264995e+002  2.501154e+001 -3.486161e+001
      vertex  2.284989e+002  2.501154e+001 -1.748174e+001
    endloop
  endfacet
  facet normal -9.934478e-001  0.000000e+000  1.142868e-001
    outer loop
      vertex  2.264995e+002  4.000000e+001 -3.486161e+001
      vertex  2.284989e+002  2.501154e+001 -1.748174e+001
      vertex  2.284989e+002  4.000000e+001 -1.748174e+001
    endloop
  endfacet
  facet normal -9.644998e-001  0.000000e+000  2.640837e-001
    outer loop
      vertex  2.231801e+002  5.000000e+000 -5.203831e+001
      vertex  2.231801e+002  2.501154e+001 -5.203831e+001
      vertex  2.185601e+002  5.000000e+000 -6.891174e+001
    endloop
  endfacet
  facet normal -9.644997e-001  0.000000e+000  2.640837e-001
    outer loop
      vertex  2.185601e+002  5.000000e+000 -6.891174e+001
      vertex  2.231801e+002  2.501154e+001 -5.203831e+001
      vertex  2.231801e+002  4.000000e+001 -5.203831e+001
    endloop
  endfacet
  facet normal -9.644997e-001  0.000000e+000  2.640837e-001
    outer loop
      vertex  2.185601e+002  5.000000e+000 -6.891174e+001
      vertex  2.231801e+002  4.000000e+001 -5.203831e+001
      vertex  2.185601e+002  4.000000e+001 -6.891174e+001
    endloop
  endfacet
  facet normal -9.992713e-001  0.000000e+000  3.817032e-002
    outer loop
      vertex  2.284989e+002  4.000000e+001 -1.748174e+001
      vertex  2.284989e+002  2.501154e+001 -1.748174e+001
      vertex  2.291667e+002  4.000000e+001  2.806390e-014
    endloop
  endfacet
  facet normal -9.992713e-001  0.000000e+000  3.817032e-002
    outer loop
      vertex  2.291667e+002  4.000000e+001  2.806390e-014
      vertex  2.284989e+002  2.501154e+001 -1.748174e+001
      vertex  2.284989e+002  5.000000e+000 -1.748174e+001
    endloop
  endfacet
  facet normal -9.992712e-001  0.000000e+000  3.817032e-002
    outer loop
      vertex  2.291667e+002  4.000000e+001  2.806390e-014
      vertex  2.284989e+002  5.000000e+000 -1.748174e+001
      vertex  2.291667e+002  5.000000e+000  2.806390e-014
    endloop
  endfacet
  facet normal -9.767549e-001 -5.261342e-003  2.142946e-001
    outer loop
      vertex  2.245414e+002  2.599399e+001 -4.580939e+001
      vertex  2.231801e+002  2.501154e+001 -5.203831e+001
      vertex  2.244658e+002  2.500000e+001 -4.617842e+001
    endloop
  endfacet
  facet normal -9.767663e-001  0.000000e+000  2.143074e-001
    outer loop
      vertex  2.244658e+002  2.500000e+001 -4.617842e+001
      vertex  2.231801e+002  2.501154e+001 -5.203831e+001
      vertex  2.231801e+002  5.000000e+000 -5.203831e+001
    endloop
  endfacet
  facet normal -9.781852e-001  2.020019e-003  2.077244e-001
    outer loop
      vertex  2.244658e+002  2.500000e+001 -4.617842e+001
      vertex  2.231801e+002  5.000000e+000 -5.203831e+001
      vertex  2.245134e+002  2.419131e+001 -4.594658e+001
    endloop
  endfacet
  facet normal -9.358899e-001 -5.884853e-003 -3.522437e-001
    outer loop
      vertex  2.179505e+002  2.501154e+001  7.081639e+001
      vertex  2.170048e+002  5.000000e+000  7.366321e+001
      vertex  2.117224e+002  5.000000e+000  8.769829e+001
    endloop
  endfacet
  facet normal -9.994473e-001 -5.885471e-003 -3.271839e-002
    outer loop
      vertex  2.286760e+002  5.000000e+000  1.498822e+001
      vertex  2.284602e+002  2.501154e+001  1.798021e+001
      vertex  2.291667e+002  5.000000e+000  2.806390e-014
    endloop
  endfacet
  facet normal -9.951771e-001  3.923548e-003 -9.801674e-002
    outer loop
      vertex  2.284602e+002  2.501154e+001  1.798021e+001
      vertex  2.286760e+002  5.000000e+000  1.498822e+001
      vertex  2.272061e+002  5.000000e+000  2.991225e+001
    endloop
  endfacet
  facet normal -9.930379e-001 -7.847627e-003 -1.175336e-001
    outer loop
      vertex  2.272061e+002  5.000000e+000  2.991225e+001
      vertex  2.263452e+002  2.501154e+001  3.584956e+001
      vertex  2.284602e+002  2.501154e+001  1.798021e+001
    endloop
  endfacet
  facet normal -9.930139e-001  1.047735e-002 -1.175308e-001
    outer loop
      vertex  2.263452e+002  2.501154e+001  3.584956e+001
      vertex  2.272061e+002  4.000000e+001  2.991225e+001
      vertex  2.284602e+002  2.501154e+001  1.798021e+001
    endloop
  endfacet
  facet normal -9.771637e-001 -1.793757e-002 -2.117295e-001
    outer loop
      vertex  2.246552e+002  2.639512e+001  4.524845e+001
      vertex  2.245315e+002  2.593447e+001  4.585831e+001
      vertex  2.213580e+002  4.000000e+001  5.931270e+001
    endloop
  endfacet
  facet normal -9.866129e-001 -7.858535e-003 -1.628907e-001
    outer loop
      vertex  2.247633e+002  4.000000e+001  4.470820e+001
      vertex  2.272061e+002  4.000000e+001  2.991225e+001
      vertex  2.263452e+002  2.501154e+001  3.584956e+001
    endloop
  endfacet
  facet normal -9.849942e-001 -1.963519e-003 -1.725758e-001
    outer loop
      vertex  2.247633e+002  4.000000e+001  4.470820e+001
      vertex  2.263452e+002  2.501154e+001  3.584956e+001
      vertex  2.250511e+002  2.500000e+001  4.323606e+001
    endloop
  endfacet
  facet normal -9.820468e-001 -3.306453e-004 -1.886374e-001
    outer loop
      vertex  2.247633e+002  4.000000e+001  4.470820e+001
      vertex  2.250511e+002  2.500000e+001  4.323606e+001
      vertex  2.249797e+002  2.599399e+001  4.360593e+001
    endloop
  endfacet
  facet normal -9.815518e-001 -1.215631e-004 -1.911969e-001
    outer loop
      vertex  2.247633e+002  4.000000e+001  4.470820e+001
      vertex  2.249797e+002  2.599399e+001  4.360593e+001
      vertex  2.248891e+002  2.635221e+001  4.407093e+001
    endloop
  endfacet
  facet normal -9.810743e-001 -3.468535e-006 -1.936317e-001
    outer loop
      vertex  2.247633e+002  4.000000e+001  4.470820e+001
      vertex  2.248891e+002  2.635221e+001  4.407093e+001
      vertex  2.247700e+002  2.649965e+001  4.467442e+001
    endloop
  endfacet
  facet normal -9.805650e-001  3.196329e-006 -1.961945e-001
    outer loop
      vertex  2.247633e+002  4.000000e+001  4.470820e+001
      vertex  2.247700e+002  2.649965e+001  4.467442e+001
      vertex  2.246552e+002  2.639512e+001  4.524845e+001
    endloop
  endfacet
  facet normal -9.738762e-001 -1.276267e-003 -2.270759e-001
    outer loop
      vertex  2.247633e+002  4.000000e+001  4.470820e+001
      vertex  2.246552e+002  2.639512e+001  4.524845e+001
      vertex  2.213580e+002  4.000000e+001  5.931270e+001
    endloop
  endfacet
  facet normal -9.738770e-001  4.608368e-004 -2.270761e-001
    outer loop
      vertex  2.247633e+002  5.000000e+000  4.470820e+001
      vertex  2.213580e+002  5.000000e+000  5.931270e+001
      vertex  2.247116e+002  2.352349e+001  4.496751e+001
    endloop
  endfacet
  facet normal -9.809555e-001 -1.868900e-005 -1.942327e-001
    outer loop
      vertex  2.247633e+002  5.000000e+000  4.470820e+001
      vertex  2.247116e+002  2.352349e+001  4.496751e+001
      vertex  2.248853e+002  2.363857e+001  4.409044e+001
    endloop
  endfacet
  facet normal -9.815904e-001  9.266962e-005 -1.909982e-001
    outer loop
      vertex  2.247633e+002  5.000000e+000  4.470820e+001
      vertex  2.248853e+002  2.363857e+001  4.409044e+001
      vertex  2.250063e+002  2.419131e+001  4.346845e+001
    endloop
  endfacet
  facet normal -9.821079e-001  2.722728e-004 -1.883194e-001
    outer loop
      vertex  2.247633e+002  5.000000e+000  4.470820e+001
      vertex  2.250063e+002  2.419131e+001  4.346845e+001
      vertex  2.250511e+002  2.500000e+001  4.323606e+001
    endloop
  endfacet
  facet normal -9.849960e-001  1.473037e-003 -1.725708e-001
    outer loop
      vertex  2.247633e+002  5.000000e+000  4.470820e+001
      vertex  2.250511e+002  2.500000e+001  4.323606e+001
      vertex  2.263452e+002  2.501154e+001  3.584956e+001
    endloop
  endfacet
  facet normal -9.866261e-001  5.886050e-003 -1.628930e-001
    outer loop
      vertex  2.247633e+002  5.000000e+000  4.470820e+001
      vertex  2.263452e+002  2.501154e+001  3.584956e+001
      vertex  2.272061e+002  5.000000e+000  2.991225e+001
    endloop
  endfacet
  facet normal -9.569330e-001  3.924049e-003 -2.902825e-001
    outer loop
      vertex  2.213580e+002  5.000000e+000  5.931270e+001
      vertex  2.170048e+002  5.000000e+000  7.366321e+001
      vertex  2.179505e+002  2.501154e+001  7.081639e+001
    endloop
  endfacet
  facet normal -9.624256e-001 -7.847367e-003 -2.714322e-001
    outer loop
      vertex  2.213580e+002  5.000000e+000  5.931270e+001
      vertex  2.179505e+002  2.501154e+001  7.081639e+001
      vertex  2.228348e+002  2.501154e+001  5.349789e+001
    endloop
  endfacet
  facet normal -9.760186e-001  8.824648e-003 -2.175080e-001
    outer loop
      vertex  2.213580e+002  5.000000e+000  5.931270e+001
      vertex  2.228348e+002  2.501154e+001  5.349789e+001
      vertex  2.244658e+002  2.500000e+001  4.617842e+001
    endloop
  endfacet
  facet normal -9.741786e-001  3.121479e-003 -2.257570e-001
    outer loop
      vertex  2.213580e+002  5.000000e+000  5.931270e+001
      vertex  2.244658e+002  2.500000e+001  4.617842e+001
      vertex  2.244753e+002  2.462771e+001  4.613245e+001
    endloop
  endfacet
  facet normal -9.765286e-001  1.063435e-002 -2.151248e-001
    outer loop
      vertex  2.213580e+002  5.000000e+000  5.931270e+001
      vertex  2.244753e+002  2.462771e+001  4.613245e+001
      vertex  2.245933e+002  2.377327e+001  4.555451e+001
    endloop
  endfacet
  facet normal -9.785850e-001  1.839445e-002 -2.050196e-001
    outer loop
      vertex  2.213580e+002  5.000000e+000  5.931270e+001
      vertex  2.245933e+002  2.377327e+001  4.555451e+001
      vertex  2.247116e+002  2.352349e+001  4.496751e+001
    endloop
  endfacet
  facet normal -9.951711e-001 -5.238414e-003 -9.801614e-002
    outer loop
      vertex  2.272061e+002  4.000000e+001  2.991225e+001
      vertex  2.286760e+002  4.000000e+001  1.498822e+001
      vertex  2.284602e+002  2.501154e+001  1.798021e+001
    endloop
  endfacet
  facet normal -9.994338e-001  7.857762e-003 -3.271795e-002
    outer loop
      vertex  2.284602e+002  2.501154e+001  1.798021e+001
      vertex  2.286760e+002  4.000000e+001  1.498822e+001
      vertex  2.291667e+002  4.000000e+001  2.806390e-014
    endloop
  endfacet
  facet normal -9.992291e-001  -0.000000e+000 -3.926021e-002
    outer loop
      vertex  2.284602e+002  2.501154e+001  1.798021e+001
      vertex  2.291667e+002  4.000000e+001  2.806390e-014
      vertex  2.291667e+002  5.000000e+000  2.806390e-014
    endloop
  endfacet
  facet normal -9.624023e-001  1.047700e-002 -2.714256e-001
    outer loop
      vertex  2.179505e+002  2.501154e+001  7.081639e+001
      vertex  2.213580e+002  4.000000e+001  5.931270e+001
      vertex  2.228348e+002  2.501154e+001  5.349789e+001
    endloop
  endfacet
  facet normal -9.758536e-001 -1.152782e-002 -2.181213e-001
    outer loop
      vertex  2.228348e+002  2.501154e+001  5.349789e+001
      vertex  2.213580e+002  4.000000e+001  5.931270e+001
      vertex  2.245315e+002  2.593447e+001  4.585831e+001
    endloop
  endfacet
  facet normal -9.760442e-001 -5.954362e-003 -2.174904e-001
    outer loop
      vertex  2.228348e+002  2.501154e+001  5.349789e+001
      vertex  2.245315e+002  2.593447e+001  4.585831e+001
      vertex  2.244658e+002  2.500000e+001  4.617842e+001
    endloop
  endfacet
  facet normal -9.569272e-001 -5.239083e-003 -2.902807e-001
    outer loop
      vertex  2.213580e+002  4.000000e+001  5.931270e+001
      vertex  2.179505e+002  2.501154e+001  7.081639e+001
      vertex  2.170048e+002  4.000000e+001  7.366321e+001
    endloop
  endfacet
  facet normal -9.402231e-001  5.356382e-003 -3.405171e-001
    outer loop
      vertex  2.170048e+002  4.000000e+001  7.366321e+001
      vertex  2.179505e+002  2.501154e+001  7.081639e+001
      vertex  2.117224e+002  5.000000e+000  8.769829e+001
    endloop
  endfacet
  facet normal -9.359060e-001  0.000000e+000 -3.522497e-001
    outer loop
      vertex  2.170048e+002  4.000000e+001  7.366321e+001
      vertex  2.117224e+002  5.000000e+000  8.769829e+001
      vertex  2.117224e+002  4.000000e+001  8.769829e+001
    endloop
  endfacet
  facet normal  1.058238e-001  8.316267e-001  5.451589e-001
    outer loop
      vertex  2.287373e+002  2.361407e+001 -4.608366e+001
      vertex  2.286407e+002  2.393892e+001 -4.656047e+001
      vertex  2.246396e+002  2.363857e+001 -4.532560e+001
    endloop
  endfacet
  facet normal  2.068773e-001  5.554420e-001  8.054106e-001
    outer loop
      vertex  2.246396e+002  2.363857e+001 -4.532560e+001
      vertex  2.286407e+002  2.393892e+001 -4.656047e+001
      vertex  2.285755e+002  2.442539e+001 -4.687923e+001
    endloop
  endfacet
  facet normal  1.056188e-001  7.533338e-001  6.491017e-001
    outer loop
      vertex  2.246396e+002  2.363857e+001 -4.532560e+001
      vertex  2.285755e+002  2.442539e+001 -4.687923e+001
      vertex  2.245134e+002  2.419131e+001 -4.594658e+001
    endloop
  endfacet
  facet normal  2.087594e-001  1.952878e-001  9.582704e-001
    outer loop
      vertex  2.245134e+002  2.419131e+001 -4.594658e+001
      vertex  2.285755e+002  2.442539e+001 -4.687923e+001
      vertex  2.285525e+002  2.500000e+001 -4.699131e+001
    endloop
  endfacet
  facet normal  1.872377e-001  2.808656e-001  9.413057e-001
    outer loop
      vertex  2.245134e+002  2.419131e+001 -4.594658e+001
      vertex  2.285525e+002  2.500000e+001 -4.699131e+001
      vertex  2.244658e+002  2.500000e+001 -4.617842e+001
    endloop
  endfacet
  facet normal -9.395938e-002  9.227334e-001 -3.738112e-001
    outer loop
      vertex  2.249301e+002  2.377328e+001 -4.386125e+001
      vertex  2.288499e+002  2.350000e+001 -4.552108e+001
      vertex  2.248148e+002  2.352349e+001 -4.444884e+001
    endloop
  endfacet
  facet normal  5.558537e-002  9.806520e-001  1.877017e-001
    outer loop
      vertex  2.248148e+002  2.352349e+001 -4.444884e+001
      vertex  2.288499e+002  2.350000e+001 -4.552108e+001
      vertex  2.287373e+002  2.361407e+001 -4.608366e+001
    endloop
  endfacet
  facet normal  2.894199e-002  9.918108e-001  1.243929e-001
    outer loop
      vertex  2.248148e+002  2.352349e+001 -4.444884e+001
      vertex  2.287373e+002  2.361407e+001 -4.608366e+001
      vertex  2.246396e+002  2.363857e+001 -4.532560e+001
    endloop
  endfacet
  facet normal -5.563745e-002  9.557856e-001 -2.887531e-001
    outer loop
      vertex  2.288499e+002  2.350000e+001 -4.552108e+001
      vertex  2.249301e+002  2.377328e+001 -4.386125e+001
      vertex  2.290129e+002  2.375942e+001 -4.469380e+001
    endloop
  endfacet
  facet normal -1.625800e-001  5.681004e-001 -8.067402e-001
    outer loop
      vertex  2.290129e+002  2.375942e+001 -4.469380e+001
      vertex  2.249301e+002  2.377328e+001 -4.386125e+001
      vertex  2.250423e+002  2.462773e+001 -4.328215e+001
    endloop
  endfacet
  facet normal -1.724825e-001  5.450925e-001 -8.204412e-001
    outer loop
      vertex  2.290129e+002  2.375942e+001 -4.469380e+001
      vertex  2.250423e+002  2.462773e+001 -4.328215e+001
      vertex  2.291333e+002  2.473257e+001 -4.407256e+001
    endloop
  endfacet
  facet normal -1.912963e-001  1.250742e-001 -9.735308e-001
    outer loop
      vertex  2.291333e+002  2.473257e+001 -4.407256e+001
      vertex  2.250423e+002  2.462773e+001 -4.328215e+001
      vertex  2.250511e+002  2.500000e+001 -4.323606e+001
    endloop
  endfacet
  facet normal -1.943078e-001  8.948909e-002 -9.768502e-001
    outer loop
      vertex  2.291333e+002  2.473257e+001 -4.407256e+001
      vertex  2.250511e+002  2.500000e+001 -4.323606e+001
      vertex  2.291378e+002  2.500000e+001 -4.404896e+001
    endloop
  endfacet
  facet normal -1.108542e-001  8.316298e-001  5.441536e-001
    outer loop
      vertex  2.289611e+002  2.361407e+001  4.495822e+001
      vertex  2.290544e+002  2.393892e+001  4.448074e+001
      vertex  2.248853e+002  2.363857e+001  4.409044e+001
    endloop
  endfacet
  facet normal -1.170872e-001  5.554410e-001  8.232715e-001
    outer loop
      vertex  2.248853e+002  2.363857e+001  4.409044e+001
      vertex  2.290544e+002  2.393892e+001  4.448074e+001
      vertex  2.291162e+002  2.442539e+001  4.416132e+001
    endloop
  endfacet
  facet normal -1.508209e-001  7.533330e-001  6.401113e-001
    outer loop
      vertex  2.248853e+002  2.363857e+001  4.409044e+001
      vertex  2.291162e+002  2.442539e+001  4.416132e+001
      vertex  2.250063e+002  2.419131e+001  4.346845e+001
    endloop
  endfacet
  facet normal -1.738446e-001  1.952795e-001  9.652171e-001
    outer loop
      vertex  2.250063e+002  2.419131e+001  4.346845e+001
      vertex  2.291162e+002  2.442539e+001  4.416132e+001
      vertex  2.291378e+002  2.500000e+001  4.404896e+001
    endloop
  endfacet
  facet normal -1.872375e-001  2.808664e-001  9.413056e-001
    outer loop
      vertex  2.250063e+002  2.419131e+001  4.346845e+001
      vertex  2.291378e+002  2.500000e+001  4.404896e+001
      vertex  2.250511e+002  2.500000e+001  4.323606e+001
    endloop
  endfacet
  facet normal  5.624405e-002  9.227353e-001 -3.813086e-001
    outer loop
      vertex  2.245933e+002  2.377327e+001  4.555451e+001
      vertex  2.288499e+002  2.350000e+001  4.552108e+001
      vertex  2.247116e+002  2.352349e+001  4.496751e+001
    endloop
  endfacet
  facet normal -2.047639e-002  9.806519e-001  1.946857e-001
    outer loop
      vertex  2.247116e+002  2.352349e+001  4.496751e+001
      vertex  2.288499e+002  2.350000e+001  4.552108e+001
      vertex  2.289611e+002  2.361407e+001  4.495822e+001
    endloop
  endfacet
  facet normal -2.086436e-002  9.918105e-001  1.260020e-001
    outer loop
      vertex  2.247116e+002  2.352349e+001  4.496751e+001
      vertex  2.289611e+002  2.361407e+001  4.495822e+001
      vertex  2.248853e+002  2.363857e+001  4.409044e+001
    endloop
  endfacet
  facet normal  5.909830e-002  9.557856e-001 -2.880648e-001
    outer loop
      vertex  2.288499e+002  2.350000e+001  4.552108e+001
      vertex  2.245933e+002  2.377327e+001  4.555451e+001
      vertex  2.286839e+002  2.375942e+001  4.634776e+001
    endloop
  endfacet
  facet normal  1.585215e-001  5.681072e-001 -8.075427e-001
    outer loop
      vertex  2.286839e+002  2.375942e+001  4.634776e+001
      vertex  2.245933e+002  2.377327e+001  4.555451e+001
      vertex  2.244753e+002  2.462771e+001  4.613245e+001
    endloop
  endfacet
  facet normal  1.546147e-001  5.450912e-001 -8.239964e-001
    outer loop
      vertex  2.286839e+002  2.375942e+001  4.634776e+001
      vertex  2.244753e+002  2.462771e+001  4.613245e+001
      vertex  2.285574e+002  2.473257e+001  4.696777e+001
    endloop
  endfacet
  facet normal  1.958192e-001  1.250787e-001 -9.726305e-001
    outer loop
      vertex  2.285574e+002  2.473257e+001  4.696777e+001
      vertex  2.244753e+002  2.462771e+001  4.613245e+001
      vertex  2.244658e+002  2.500000e+001  4.617842e+001
    endloop
  endfacet
  facet normal  1.943077e-001  8.950171e-002 -9.768490e-001
    outer loop
      vertex  2.285574e+002  2.473257e+001  4.696777e+001
      vertex  2.244658e+002  2.500000e+001  4.617842e+001
      vertex  2.285525e+002  2.500000e+001  4.699131e+001
    endloop
  endfacet
endsolid CATIA STL
