solid CATIA STL
  facet normal -1.000000e+000  0.000000e+000  0.000000e+000
    outer loop
      vertex -2.750000e+001  0.000000e+000 -3.750000e+001
      vertex -2.750000e+001  0.000000e+000  3.750000e+001
      vertex -2.750000e+001  1.666711e+001 -1.191013e+001
    endloop
  endfacet
  facet normal -1.000000e+000  0.000000e+000  -0.000000e+000
    outer loop
      vertex -2.750000e+001  0.000000e+000 -3.750000e+001
      vertex -2.750000e+001  1.666711e+001 -1.191013e+001
      vertex -2.750000e+001  1.797372e+001 -1.550000e+001
    endloop
  endfacet
  facet normal -1.000000e+000  0.000000e+000  -0.000000e+000
    outer loop
      vertex -2.750000e+001  0.000000e+000 -3.750000e+001
      vertex -2.750000e+001  1.797372e+001 -1.550000e+001
      vertex -2.750000e+001  2.042934e+001 -1.842649e+001
    endloop
  endfacet
  facet normal -9.999999e-001  0.000000e+000  -0.000000e+000
    outer loop
      vertex -2.750000e+001  0.000000e+000 -3.750000e+001
      vertex -2.750000e+001  2.042934e+001 -1.842649e+001
      vertex -2.750000e+001  2.373778e+001 -2.033662e+001
    endloop
  endfacet
  facet normal -1.000000e+000  0.000000e+000  -0.000000e+000
    outer loop
      vertex -2.750000e+001  0.000000e+000 -3.750000e+001
      vertex -2.750000e+001  2.373778e+001 -2.033662e+001
      vertex -2.750000e+001  2.750000e+001 -2.100000e+001
    endloop
  endfacet
  facet normal -1.000000e+000  0.000000e+000  -0.000000e+000
    outer loop
      vertex -2.750000e+001  0.000000e+000 -3.750000e+001
      vertex -2.750000e+001  2.750000e+001 -2.100000e+001
      vertex -2.750000e+001  2.750000e+001 -3.750000e+001
    endloop
  endfacet
  facet normal -1.000000e+000  -0.000000e+000  -0.000000e+000
    outer loop
      vertex -2.750000e+001  0.000000e+000  3.750000e+001
      vertex -2.750000e+001  2.750000e+001  3.750000e+001
      vertex -2.750000e+001  2.750000e+001  1.000000e+000
    endloop
  endfacet
  facet normal -1.000000e+000  -0.000000e+000  0.000000e+000
    outer loop
      vertex -2.750000e+001  0.000000e+000  3.750000e+001
      vertex -2.750000e+001  2.750000e+001  1.000000e+000
      vertex -2.750000e+001  2.373778e+001  3.366188e-001
    endloop
  endfacet
  facet normal -1.000000e+000  -0.000000e+000  0.000000e+000
    outer loop
      vertex -2.750000e+001  0.000000e+000  3.750000e+001
      vertex -2.750000e+001  2.373778e+001  3.366188e-001
      vertex -2.750000e+001  2.042934e+001 -1.573511e+000
    endloop
  endfacet
  facet normal -9.999999e-001  -0.000000e+000  0.000000e+000
    outer loop
      vertex -2.750000e+001  0.000000e+000  3.750000e+001
      vertex -2.750000e+001  2.042934e+001 -1.573511e+000
      vertex -2.750000e+001  1.797372e+001 -4.500000e+000
    endloop
  endfacet
  facet normal -1.000000e+000  -0.000000e+000  0.000000e+000
    outer loop
      vertex -2.750000e+001  0.000000e+000  3.750000e+001
      vertex -2.750000e+001  1.797372e+001 -4.500000e+000
      vertex -2.750000e+001  1.666711e+001 -8.089870e+000
    endloop
  endfacet
  facet normal -1.000000e+000  -0.000000e+000  -0.000000e+000
    outer loop
      vertex -2.750000e+001  0.000000e+000  3.750000e+001
      vertex -2.750000e+001  1.666711e+001 -8.089870e+000
      vertex -2.750000e+001  1.666711e+001 -1.191013e+001
    endloop
  endfacet
  facet normal  1.000000e+000  0.000000e+000  -0.000000e+000
    outer loop
      vertex  2.750000e+001  0.000000e+000 -3.750000e+001
      vertex  2.750000e+001  2.750000e+001 -3.750000e+001
      vertex  2.750000e+001  2.750000e+001 -3.225000e+001
    endloop
  endfacet
  facet normal  1.000000e+000  0.000000e+000  0.000000e+000
    outer loop
      vertex  2.750000e+001  0.000000e+000 -3.750000e+001
      vertex  2.750000e+001  2.750000e+001 -3.225000e+001
      vertex  2.750000e+001  2.174128e+001 -3.149185e+001
    endloop
  endfacet
  facet normal  1.000000e+000  0.000000e+000  0.000000e+000
    outer loop
      vertex  2.750000e+001  0.000000e+000 -3.750000e+001
      vertex  2.750000e+001  2.174128e+001 -3.149185e+001
      vertex  2.750000e+001  1.637500e+001 -2.926907e+001
    endloop
  endfacet
  facet normal  1.000000e+000  0.000000e+000  0.000000e+000
    outer loop
      vertex  2.750000e+001  0.000000e+000 -3.750000e+001
      vertex  2.750000e+001  1.637500e+001 -2.926907e+001
      vertex  2.750000e+001  1.176687e+001 -2.573313e+001
    endloop
  endfacet
  facet normal  1.000000e+000  0.000000e+000  0.000000e+000
    outer loop
      vertex  2.750000e+001  0.000000e+000 -3.750000e+001
      vertex  2.750000e+001  1.176687e+001 -2.573313e+001
      vertex  2.750000e+001  8.230935e+000 -2.112500e+001
    endloop
  endfacet
  facet normal  1.000000e+000  0.000000e+000  0.000000e+000
    outer loop
      vertex  2.750000e+001  0.000000e+000 -3.750000e+001
      vertex  2.750000e+001  8.230935e+000 -2.112500e+001
      vertex  2.750000e+001  6.008151e+000 -1.575872e+001
    endloop
  endfacet
  facet normal  1.000000e+000  0.000000e+000  0.000000e+000
    outer loop
      vertex  2.750000e+001  0.000000e+000 -3.750000e+001
      vertex  2.750000e+001  6.008151e+000 -1.575872e+001
      vertex  2.750000e+001  5.250000e+000 -1.000000e+001
    endloop
  endfacet
  facet normal  9.999999e-001  0.000000e+000  0.000000e+000
    outer loop
      vertex  2.750000e+001  0.000000e+000 -3.750000e+001
      vertex  2.750000e+001  5.250000e+000 -1.000000e+001
      vertex  2.750000e+001  0.000000e+000  3.750000e+001
    endloop
  endfacet
  facet normal  1.000000e+000  0.000000e+000  -0.000000e+000
    outer loop
      vertex  2.750000e+001  0.000000e+000  3.750000e+001
      vertex  2.750000e+001  5.250000e+000 -1.000000e+001
      vertex  2.750000e+001  6.008151e+000 -4.241276e+000
    endloop
  endfacet
  facet normal  1.000000e+000  0.000000e+000  -0.000000e+000
    outer loop
      vertex  2.750000e+001  0.000000e+000  3.750000e+001
      vertex  2.750000e+001  6.008151e+000 -4.241276e+000
      vertex  2.750000e+001  8.230935e+000  1.125000e+000
    endloop
  endfacet
  facet normal  1.000000e+000  0.000000e+000  -0.000000e+000
    outer loop
      vertex  2.750000e+001  0.000000e+000  3.750000e+001
      vertex  2.750000e+001  8.230935e+000  1.125000e+000
      vertex  2.750000e+001  1.176687e+001  5.733126e+000
    endloop
  endfacet
  facet normal  1.000000e+000  0.000000e+000  -0.000000e+000
    outer loop
      vertex  2.750000e+001  0.000000e+000  3.750000e+001
      vertex  2.750000e+001  1.176687e+001  5.733126e+000
      vertex  2.750000e+001  1.637500e+001  9.269065e+000
    endloop
  endfacet
  facet normal  9.999999e-001  0.000000e+000  -0.000000e+000
    outer loop
      vertex  2.750000e+001  0.000000e+000  3.750000e+001
      vertex  2.750000e+001  1.637500e+001  9.269065e+000
      vertex  2.750000e+001  2.174128e+001  1.149185e+001
    endloop
  endfacet
  facet normal  1.000000e+000  0.000000e+000  -0.000000e+000
    outer loop
      vertex  2.750000e+001  0.000000e+000  3.750000e+001
      vertex  2.750000e+001  2.174128e+001  1.149185e+001
      vertex  2.750000e+001  2.750000e+001  1.225000e+001
    endloop
  endfacet
  facet normal  1.000000e+000  0.000000e+000  -0.000000e+000
    outer loop
      vertex  2.750000e+001  0.000000e+000  3.750000e+001
      vertex  2.750000e+001  2.750000e+001  1.225000e+001
      vertex  2.750000e+001  2.750000e+001  3.750000e+001
    endloop
  endfacet
  facet normal  0.000000e+000  0.000000e+000  1.000000e+000
    outer loop
      vertex -2.750000e+001  0.000000e+000  3.750000e+001
      vertex -8.000000e+000  2.750000e+001  3.750000e+001
      vertex -2.750000e+001  2.750000e+001  3.750000e+001
    endloop
  endfacet
  facet normal  0.000000e+000  0.000000e+000  1.000000e+000
    outer loop
      vertex -8.000000e+000  2.750000e+001  3.750000e+001
      vertex -2.750000e+001  0.000000e+000  3.750000e+001
      vertex -8.000000e+000  1.950000e+001  3.750000e+001
    endloop
  endfacet
  facet normal  0.000000e+000  0.000000e+000  1.000000e+000
    outer loop
      vertex -8.000000e+000  1.950000e+001  3.750000e+001
      vertex -2.750000e+001  0.000000e+000  3.750000e+001
      vertex  2.750000e+001  0.000000e+000  3.750000e+001
    endloop
  endfacet
  facet normal  0.000000e+000  0.000000e+000  1.000000e+000
    outer loop
      vertex -8.000000e+000  1.950000e+001  3.750000e+001
      vertex  2.750000e+001  0.000000e+000  3.750000e+001
      vertex  8.000000e+000  1.950000e+001  3.750000e+001
    endloop
  endfacet
  facet normal  -0.000000e+000  0.000000e+000  1.000000e+000
    outer loop
      vertex  8.000000e+000  1.950000e+001  3.750000e+001
      vertex  2.750000e+001  0.000000e+000  3.750000e+001
      vertex  2.750000e+001  2.750000e+001  3.750000e+001
    endloop
  endfacet
  facet normal  0.000000e+000  0.000000e+000  1.000000e+000
    outer loop
      vertex  8.000000e+000  1.950000e+001  3.750000e+001
      vertex  2.750000e+001  2.750000e+001  3.750000e+001
      vertex  8.000000e+000  2.750000e+001  3.750000e+001
    endloop
  endfacet
  facet normal  0.000000e+000  1.000000e+000  0.000000e+000
    outer loop
      vertex  1.900000e+001  2.750000e+001  1.750000e+001
      vertex  2.750000e+001  2.750000e+001  1.225000e+001
      vertex  2.450000e+001  2.750000e+001  1.225000e+001
    endloop
  endfacet
  facet normal  0.000000e+000  9.999999e-001  0.000000e+000
    outer loop
      vertex  1.648680e+001  2.750000e+001  1.860609e+001
      vertex  1.750000e+001  2.750000e+001  2.750000e+001
      vertex  1.750000e+001  2.750000e+001  1.900000e+001
    endloop
  endfacet
  facet normal  0.000000e+000  9.999999e-001  0.000000e+000
    outer loop
      vertex  1.750000e+001  2.750000e+001  2.750000e+001
      vertex  1.834696e+001  2.750000e+001  1.873800e+001
      vertex  1.750000e+001  2.750000e+001  1.900000e+001
    endloop
  endfacet
  facet normal  0.000000e+000  1.000000e+000  0.000000e+000
    outer loop
      vertex  2.250000e+001  2.750000e+001  3.250000e+001
      vertex  2.750000e+001  2.750000e+001  3.750000e+001
      vertex  2.250000e+001  2.750000e+001  2.750000e+001
    endloop
  endfacet
  facet normal  -0.000000e+000  1.000000e+000  -0.000000e+000
    outer loop
      vertex  1.889806e+001  2.750000e+001  1.804354e+001
      vertex  1.834696e+001  2.750000e+001  1.873800e+001
      vertex  1.750000e+001  2.750000e+001  2.750000e+001
    endloop
  endfacet
  facet normal  0.000000e+000  9.999999e-001  0.000000e+000
    outer loop
      vertex -1.750000e+001  2.750000e+001  2.750000e+001
      vertex -1.665304e+001  2.750000e+001  1.873800e+001
      vertex -1.750000e+001  2.750000e+001  1.900000e+001
    endloop
  endfacet
  facet normal  -0.000000e+000  1.000000e+000  -0.000000e+000
    outer loop
      vertex  1.900000e+001  2.750000e+001  1.750000e+001
      vertex  1.889806e+001  2.750000e+001  1.804354e+001
      vertex  1.750000e+001  2.750000e+001  2.750000e+001
    endloop
  endfacet
  facet normal  -0.000000e+000  1.000000e+000  0.000000e+000
    outer loop
      vertex  1.900000e+001  2.750000e+001  1.750000e+001
      vertex  1.750000e+001  2.750000e+001  2.750000e+001
      vertex  2.250000e+001  2.750000e+001  2.750000e+001
    endloop
  endfacet
  facet normal  -0.000000e+000  1.000000e+000  0.000000e+000
    outer loop
      vertex  1.900000e+001  2.750000e+001  1.750000e+001
      vertex  2.250000e+001  2.750000e+001  2.750000e+001
      vertex  2.750000e+001  2.750000e+001  3.750000e+001
    endloop
  endfacet
  facet normal  0.000000e+000  1.000000e+000  0.000000e+000
    outer loop
      vertex  1.900000e+001  2.750000e+001  1.750000e+001
      vertex  2.750000e+001  2.750000e+001  3.750000e+001
      vertex  2.750000e+001  2.750000e+001  1.225000e+001
    endloop
  endfacet
  facet normal  0.000000e+000  1.000000e+000  0.000000e+000
    outer loop
      vertex -8.000000e+000  2.750000e+001  3.750000e+001
      vertex -1.603923e+001  2.750000e+001  1.715920e+001
      vertex -1.600000e+001  2.750000e+001  1.750000e+001
    endloop
  endfacet
  facet normal  0.000000e+000  1.000000e+000  -0.000000e+000
    outer loop
      vertex -8.000000e+000  2.750000e+001  3.750000e+001
      vertex -1.600000e+001  2.750000e+001  1.750000e+001
      vertex -1.610194e+001  2.750000e+001  1.804354e+001
    endloop
  endfacet
  facet normal  0.000000e+000  1.000000e+000  -0.000000e+000
    outer loop
      vertex -8.000000e+000  2.750000e+001  3.750000e+001
      vertex -1.610194e+001  2.750000e+001  1.804354e+001
      vertex -1.665304e+001  2.750000e+001  1.873800e+001
    endloop
  endfacet
  facet normal  0.000000e+000  1.000000e+000  -0.000000e+000
    outer loop
      vertex -8.000000e+000  2.750000e+001  3.750000e+001
      vertex -1.665304e+001  2.750000e+001  1.873800e+001
      vertex -1.750000e+001  2.750000e+001  2.750000e+001
    endloop
  endfacet
  facet normal  0.000000e+000  1.000000e+000  0.000000e+000
    outer loop
      vertex -8.000000e+000  2.750000e+001  3.750000e+001
      vertex -1.750000e+001  2.750000e+001  2.750000e+001
      vertex -1.750000e+001  2.750000e+001  3.250000e+001
    endloop
  endfacet
  facet normal  0.000000e+000  1.000000e+000  -0.000000e+000
    outer loop
      vertex -8.000000e+000  2.750000e+001  3.750000e+001
      vertex -1.750000e+001  2.750000e+001  3.250000e+001
      vertex -2.250000e+001  2.750000e+001  3.250000e+001
    endloop
  endfacet
  facet normal  0.000000e+000  1.000000e+000  -0.000000e+000
    outer loop
      vertex -8.000000e+000  2.750000e+001  3.750000e+001
      vertex -2.250000e+001  2.750000e+001  3.250000e+001
      vertex -2.750000e+001  2.750000e+001  3.750000e+001
    endloop
  endfacet
  facet normal  0.000000e+000  1.000000e+000  0.000000e+000
    outer loop
      vertex -8.000000e+000  2.750000e+001  1.600000e+001
      vertex -2.750000e+001  2.750000e+001  1.000000e+000
      vertex -1.648680e+001  2.750000e+001  1.639391e+001
    endloop
  endfacet
  facet normal  -0.000000e+000  1.000000e+000  0.000000e+000
    outer loop
      vertex -8.000000e+000  2.750000e+001  1.600000e+001
      vertex -1.648680e+001  2.750000e+001  1.639391e+001
      vertex -1.603923e+001  2.750000e+001  1.715920e+001
    endloop
  endfacet
  facet normal  -0.000000e+000  1.000000e+000  0.000000e+000
    outer loop
      vertex -8.000000e+000  2.750000e+001  1.600000e+001
      vertex -1.603923e+001  2.750000e+001  1.715920e+001
      vertex -8.000000e+000  2.750000e+001  3.750000e+001
    endloop
  endfacet
  facet normal  0.000000e+000  1.000000e+000  0.000000e+000
    outer loop
      vertex  8.000000e+000  2.750000e+001  3.750000e+001
      vertex  2.750000e+001  2.750000e+001  3.750000e+001
      vertex  2.250000e+001  2.750000e+001  3.250000e+001
    endloop
  endfacet
  facet normal  0.000000e+000  1.000000e+000  0.000000e+000
    outer loop
      vertex  8.000000e+000  2.750000e+001  3.750000e+001
      vertex  2.250000e+001  2.750000e+001  3.250000e+001
      vertex  1.750000e+001  2.750000e+001  3.250000e+001
    endloop
  endfacet
  facet normal  0.000000e+000  1.000000e+000  0.000000e+000
    outer loop
      vertex  8.000000e+000  2.750000e+001  3.750000e+001
      vertex  1.750000e+001  2.750000e+001  3.250000e+001
      vertex  1.750000e+001  2.750000e+001  2.750000e+001
    endloop
  endfacet
  facet normal  0.000000e+000  1.000000e+000  0.000000e+000
    outer loop
      vertex  8.000000e+000  2.750000e+001  3.750000e+001
      vertex  1.750000e+001  2.750000e+001  2.750000e+001
      vertex  1.648680e+001  2.750000e+001  1.860609e+001
    endloop
  endfacet
  facet normal  0.000000e+000  1.000000e+000  0.000000e+000
    outer loop
      vertex  8.000000e+000  2.750000e+001  3.750000e+001
      vertex  1.648680e+001  2.750000e+001  1.860609e+001
      vertex  1.603923e+001  2.750000e+001  1.784080e+001
    endloop
  endfacet
  facet normal  0.000000e+000  1.000000e+000  0.000000e+000
    outer loop
      vertex  8.000000e+000  2.750000e+001  3.750000e+001
      vertex  1.603923e+001  2.750000e+001  1.784080e+001
      vertex  1.600000e+001  2.750000e+001  1.750000e+001
    endloop
  endfacet
  facet normal  0.000000e+000  1.000000e+000  0.000000e+000
    outer loop
      vertex  8.000000e+000  2.750000e+001  3.750000e+001
      vertex  1.600000e+001  2.750000e+001  1.750000e+001
      vertex  8.000000e+000  2.750000e+001  1.600000e+001
    endloop
  endfacet
  facet normal  0.000000e+000  1.000000e+000  0.000000e+000
    outer loop
      vertex -2.250000e+001  2.750000e+001  2.750000e+001
      vertex -1.750000e+001  2.750000e+001  2.750000e+001
      vertex -1.750000e+001  2.750000e+001  1.900000e+001
    endloop
  endfacet
  facet normal  0.000000e+000  9.999999e-001  0.000000e+000
    outer loop
      vertex -2.250000e+001  2.750000e+001  2.750000e+001
      vertex -1.750000e+001  2.750000e+001  1.900000e+001
      vertex -1.851320e+001  2.750000e+001  1.860609e+001
    endloop
  endfacet
  facet normal  0.000000e+000  1.000000e+000  0.000000e+000
    outer loop
      vertex -2.250000e+001  2.750000e+001  2.750000e+001
      vertex -1.851320e+001  2.750000e+001  1.860609e+001
      vertex -1.896077e+001  2.750000e+001  1.784080e+001
    endloop
  endfacet
  facet normal  0.000000e+000  1.000000e+000  0.000000e+000
    outer loop
      vertex -2.250000e+001  2.750000e+001  2.750000e+001
      vertex -1.896077e+001  2.750000e+001  1.784080e+001
      vertex -1.900000e+001  2.750000e+001  1.750000e+001
    endloop
  endfacet
  facet normal  0.000000e+000  1.000000e+000  0.000000e+000
    outer loop
      vertex -2.250000e+001  2.750000e+001  2.750000e+001
      vertex -1.900000e+001  2.750000e+001  1.750000e+001
      vertex -2.750000e+001  2.750000e+001  1.000000e+000
    endloop
  endfacet
  facet normal  0.000000e+000  1.000000e+000  0.000000e+000
    outer loop
      vertex -2.250000e+001  2.750000e+001  2.750000e+001
      vertex -2.750000e+001  2.750000e+001  1.000000e+000
      vertex -2.750000e+001  2.750000e+001  3.750000e+001
    endloop
  endfacet
  facet normal  0.000000e+000  1.000000e+000  0.000000e+000
    outer loop
      vertex -2.250000e+001  2.750000e+001  2.750000e+001
      vertex -2.750000e+001  2.750000e+001  3.750000e+001
      vertex -2.250000e+001  2.750000e+001  3.250000e+001
    endloop
  endfacet
  facet normal  0.000000e+000  1.000000e+000  0.000000e+000
    outer loop
      vertex -2.750000e+001  2.750000e+001  1.000000e+000
      vertex -1.900000e+001  2.750000e+001  1.750000e+001
      vertex -1.889806e+001  2.750000e+001  1.695646e+001
    endloop
  endfacet
  facet normal  0.000000e+000  1.000000e+000  0.000000e+000
    outer loop
      vertex -2.750000e+001  2.750000e+001  1.000000e+000
      vertex -1.889806e+001  2.750000e+001  1.695646e+001
      vertex -1.834696e+001  2.750000e+001  1.626200e+001
    endloop
  endfacet
  facet normal  0.000000e+000  9.999999e-001  0.000000e+000
    outer loop
      vertex -2.750000e+001  2.750000e+001  1.000000e+000
      vertex -1.834696e+001  2.750000e+001  1.626200e+001
      vertex -1.750000e+001  2.750000e+001  1.600000e+001
    endloop
  endfacet
  facet normal  -0.000000e+000  1.000000e+000  0.000000e+000
    outer loop
      vertex -2.750000e+001  2.750000e+001  1.000000e+000
      vertex -1.750000e+001  2.750000e+001  1.600000e+001
      vertex -1.648680e+001  2.750000e+001  1.639391e+001
    endloop
  endfacet
  facet normal  -0.000000e+000  1.000000e+000  0.000000e+000
    outer loop
      vertex -2.750000e+001  2.750000e+001  1.000000e+000
      vertex -8.000000e+000  2.750000e+001  1.600000e+001
      vertex  8.000000e+000  2.750000e+001  1.600000e+001
    endloop
  endfacet
  facet normal  -0.000000e+000  1.000000e+000  0.000000e+000
    outer loop
      vertex -2.750000e+001  2.750000e+001  1.000000e+000
      vertex  8.000000e+000  2.750000e+001  1.600000e+001
      vertex  1.600000e+001  2.750000e+001  1.750000e+001
    endloop
  endfacet
  facet normal  0.000000e+000  1.000000e+000  0.000000e+000
    outer loop
      vertex -2.750000e+001  2.750000e+001  1.000000e+000
      vertex  1.600000e+001  2.750000e+001  1.750000e+001
      vertex  1.610194e+001  2.750000e+001  1.695646e+001
    endloop
  endfacet
  facet normal  0.000000e+000  1.000000e+000  0.000000e+000
    outer loop
      vertex -2.750000e+001  2.750000e+001  1.000000e+000
      vertex  1.610194e+001  2.750000e+001  1.695646e+001
      vertex  1.665304e+001  2.750000e+001  1.626200e+001
    endloop
  endfacet
  facet normal  0.000000e+000  1.000000e+000  0.000000e+000
    outer loop
      vertex -2.750000e+001  2.750000e+001  1.000000e+000
      vertex  1.665304e+001  2.750000e+001  1.626200e+001
      vertex  1.750000e+001  2.750000e+001  1.600000e+001
    endloop
  endfacet
  facet normal  0.000000e+000  1.000000e+000  0.000000e+000
    outer loop
      vertex  2.450000e+001  2.750000e+001  1.000000e+000
      vertex -2.750000e+001  2.750000e+001  1.000000e+000
      vertex  1.750000e+001  2.750000e+001  1.600000e+001
    endloop
  endfacet
  facet normal  -0.000000e+000  1.000000e+000  0.000000e+000
    outer loop
      vertex  2.450000e+001  2.750000e+001  1.000000e+000
      vertex  1.750000e+001  2.750000e+001  1.600000e+001
      vertex  1.851320e+001  2.750000e+001  1.639391e+001
    endloop
  endfacet
  facet normal  -0.000000e+000  1.000000e+000  0.000000e+000
    outer loop
      vertex  2.450000e+001  2.750000e+001  1.000000e+000
      vertex  1.851320e+001  2.750000e+001  1.639391e+001
      vertex  1.896077e+001  2.750000e+001  1.715920e+001
    endloop
  endfacet
  facet normal  -0.000000e+000  1.000000e+000  0.000000e+000
    outer loop
      vertex  2.450000e+001  2.750000e+001  1.000000e+000
      vertex  1.896077e+001  2.750000e+001  1.715920e+001
      vertex  1.900000e+001  2.750000e+001  1.750000e+001
    endloop
  endfacet
  facet normal  0.000000e+000  1.000000e+000  0.000000e+000
    outer loop
      vertex  2.450000e+001  2.750000e+001  1.000000e+000
      vertex  1.900000e+001  2.750000e+001  1.750000e+001
      vertex  2.450000e+001  2.750000e+001  1.225000e+001
    endloop
  endfacet
  facet normal -1.000000e+000  0.000000e+000  0.000000e+000
    outer loop
      vertex  8.000000e+000  2.750000e+001  3.750000e+001
      vertex  8.000000e+000  2.750000e+001  1.600000e+001
      vertex  8.000000e+000  1.950000e+001  3.750000e+001
    endloop
  endfacet
  facet normal -1.000000e+000  0.000000e+000  0.000000e+000
    outer loop
      vertex  8.000000e+000  1.950000e+001  3.750000e+001
      vertex  8.000000e+000  2.750000e+001  1.600000e+001
      vertex  8.000000e+000  2.345058e+001  1.568272e+001
    endloop
  endfacet
  facet normal -1.000000e+000  -0.000000e+000  0.000000e+000
    outer loop
      vertex  8.000000e+000  1.950000e+001  3.750000e+001
      vertex  8.000000e+000  2.345058e+001  1.568272e+001
      vertex  8.000000e+000  1.950000e+001  1.473863e+001
    endloop
  endfacet
  facet normal  1.000000e+000  0.000000e+000  0.000000e+000
    outer loop
      vertex -8.000000e+000  2.750000e+001  1.600000e+001
      vertex -8.000000e+000  2.750000e+001  3.750000e+001
      vertex -8.000000e+000  2.345058e+001  1.568272e+001
    endloop
  endfacet
  facet normal  1.000000e+000  0.000000e+000  -0.000000e+000
    outer loop
      vertex -8.000000e+000  2.345058e+001  1.568272e+001
      vertex -8.000000e+000  2.750000e+001  3.750000e+001
      vertex -8.000000e+000  1.950000e+001  3.750000e+001
    endloop
  endfacet
  facet normal  1.000000e+000  0.000000e+000  0.000000e+000
    outer loop
      vertex -8.000000e+000  2.345058e+001  1.568272e+001
      vertex -8.000000e+000  1.950000e+001  3.750000e+001
      vertex -8.000000e+000  1.950000e+001  1.473863e+001
    endloop
  endfacet
  facet normal  0.000000e+000 -2.324298e-001  9.726132e-001
    outer loop
      vertex -8.000000e+000  1.950000e+001  1.473863e+001
      vertex  8.000000e+000  1.950000e+001  1.473863e+001
      vertex -8.000000e+000  2.345058e+001  1.568272e+001
    endloop
  endfacet
  facet normal  0.000000e+000 -2.324298e-001  9.726132e-001
    outer loop
      vertex -8.000000e+000  2.345058e+001  1.568272e+001
      vertex  8.000000e+000  1.950000e+001  1.473863e+001
      vertex  8.000000e+000  2.345058e+001  1.568272e+001
    endloop
  endfacet
  facet normal  0.000000e+000 -7.811189e-002  9.969445e-001
    outer loop
      vertex -8.000000e+000  2.345058e+001  1.568272e+001
      vertex  8.000000e+000  2.345058e+001  1.568272e+001
      vertex -8.000000e+000  2.750000e+001  1.600000e+001
    endloop
  endfacet
  facet normal  0.000000e+000 -7.811189e-002  9.969445e-001
    outer loop
      vertex -8.000000e+000  2.750000e+001  1.600000e+001
      vertex  8.000000e+000  2.345058e+001  1.568272e+001
      vertex  8.000000e+000  2.750000e+001  1.600000e+001
    endloop
  endfacet
  facet normal  0.000000e+000  1.000000e+000  -0.000000e+000
    outer loop
      vertex  8.000000e+000  1.950000e+001  3.750000e+001
      vertex  8.000000e+000  1.950000e+001  1.473863e+001
      vertex -8.000000e+000  1.950000e+001  3.750000e+001
    endloop
  endfacet
  facet normal  0.000000e+000  1.000000e+000  0.000000e+000
    outer loop
      vertex -8.000000e+000  1.950000e+001  3.750000e+001
      vertex  8.000000e+000  1.950000e+001  1.473863e+001
      vertex -8.000000e+000  1.950000e+001  1.473863e+001
    endloop
  endfacet
  facet normal  0.000000e+000  1.000000e+000  0.000000e+000
    outer loop
      vertex -1.500000e+000  2.750000e+001 -3.250000e+001
      vertex -1.060660e+000  2.750000e+001 -3.356066e+001
      vertex -2.750000e+001  2.750000e+001 -3.750000e+001
    endloop
  endfacet
  facet normal  0.000000e+000  1.000000e+000  0.000000e+000
    outer loop
      vertex -1.060660e+000  2.750000e+001 -3.356066e+001
      vertex -5.894265e-016  2.750000e+001 -3.400000e+001
      vertex -2.750000e+001  2.750000e+001 -3.750000e+001
    endloop
  endfacet
  facet normal  0.000000e+000  1.000000e+000  0.000000e+000
    outer loop
      vertex -2.750000e+001  2.750000e+001 -2.100000e+001
      vertex -3.835365e-017  2.750000e+001 -3.100000e+001
      vertex -1.060660e+000  2.750000e+001 -3.143934e+001
    endloop
  endfacet
  facet normal  0.000000e+000  1.000000e+000  0.000000e+000
    outer loop
      vertex -2.750000e+001  2.750000e+001 -2.100000e+001
      vertex -1.060660e+000  2.750000e+001 -3.143934e+001
      vertex -1.500000e+000  2.750000e+001 -3.250000e+001
    endloop
  endfacet
  facet normal  0.000000e+000  1.000000e+000  0.000000e+000
    outer loop
      vertex -2.750000e+001  2.750000e+001 -2.100000e+001
      vertex -1.500000e+000  2.750000e+001 -3.250000e+001
      vertex -2.750000e+001  2.750000e+001 -3.750000e+001
    endloop
  endfacet
  facet normal  0.000000e+000  1.000000e+000  -0.000000e+000
    outer loop
      vertex  2.450000e+001  2.750000e+001 -2.100000e+001
      vertex  2.450000e+001  2.750000e+001 -3.225000e+001
      vertex  1.500000e+000  2.750000e+001 -3.250000e+001
    endloop
  endfacet
  facet normal  0.000000e+000  1.000000e+000  -0.000000e+000
    outer loop
      vertex  2.450000e+001  2.750000e+001 -2.100000e+001
      vertex  1.500000e+000  2.750000e+001 -3.250000e+001
      vertex  1.060660e+000  2.750000e+001 -3.143934e+001
    endloop
  endfacet
  facet normal  0.000000e+000  1.000000e+000  -0.000000e+000
    outer loop
      vertex  2.450000e+001  2.750000e+001 -2.100000e+001
      vertex  1.060660e+000  2.750000e+001 -3.143934e+001
      vertex -3.835365e-017  2.750000e+001 -3.100000e+001
    endloop
  endfacet
  facet normal  0.000000e+000  1.000000e+000  -0.000000e+000
    outer loop
      vertex  2.450000e+001  2.750000e+001 -2.100000e+001
      vertex -3.835365e-017  2.750000e+001 -3.100000e+001
      vertex -2.750000e+001  2.750000e+001 -2.100000e+001
    endloop
  endfacet
  facet normal  0.000000e+000  1.000000e+000  0.000000e+000
    outer loop
      vertex  2.750000e+001  2.750000e+001 -3.750000e+001
      vertex -2.750000e+001  2.750000e+001 -3.750000e+001
      vertex -5.894265e-016  2.750000e+001 -3.400000e+001
    endloop
  endfacet
  facet normal  -0.000000e+000  1.000000e+000  0.000000e+000
    outer loop
      vertex  2.750000e+001  2.750000e+001 -3.750000e+001
      vertex -5.894265e-016  2.750000e+001 -3.400000e+001
      vertex  1.060660e+000  2.750000e+001 -3.356066e+001
    endloop
  endfacet
  facet normal  -0.000000e+000  1.000000e+000  0.000000e+000
    outer loop
      vertex  2.750000e+001  2.750000e+001 -3.750000e+001
      vertex  1.060660e+000  2.750000e+001 -3.356066e+001
      vertex  1.500000e+000  2.750000e+001 -3.250000e+001
    endloop
  endfacet
  facet normal  -0.000000e+000  9.999999e-001  0.000000e+000
    outer loop
      vertex  2.750000e+001  2.750000e+001 -3.750000e+001
      vertex  1.500000e+000  2.750000e+001 -3.250000e+001
      vertex  2.450000e+001  2.750000e+001 -3.225000e+001
    endloop
  endfacet
  facet normal  -0.000000e+000  1.000000e+000  0.000000e+000
    outer loop
      vertex  2.750000e+001  2.750000e+001 -3.750000e+001
      vertex  2.450000e+001  2.750000e+001 -3.225000e+001
      vertex  2.750000e+001  2.750000e+001 -3.225000e+001
    endloop
  endfacet
  facet normal  0.000000e+000  9.396926e-001  3.420202e-001
    outer loop
      vertex -2.750000e+001  1.666711e+001 -1.191013e+001
      vertex  2.450000e+001  1.797372e+001 -1.550000e+001
      vertex -2.750000e+001  1.797372e+001 -1.550000e+001
    endloop
  endfacet
  facet normal  -0.000000e+000  7.660444e-001  6.427876e-001
    outer loop
      vertex -2.750000e+001  1.797372e+001 -1.550000e+001
      vertex  2.450000e+001  1.797372e+001 -1.550000e+001
      vertex  2.450000e+001  2.042934e+001 -1.842649e+001
    endloop
  endfacet
  facet normal  0.000000e+000  7.660444e-001  6.427876e-001
    outer loop
      vertex -2.750000e+001  1.797372e+001 -1.550000e+001
      vertex  2.450000e+001  2.042934e+001 -1.842649e+001
      vertex -2.750000e+001  2.042934e+001 -1.842649e+001
    endloop
  endfacet
  facet normal  -0.000000e+000  5.000000e-001  8.660254e-001
    outer loop
      vertex -2.750000e+001  2.042934e+001 -1.842649e+001
      vertex  2.450000e+001  2.042934e+001 -1.842649e+001
      vertex  2.450000e+001  2.373778e+001 -2.033662e+001
    endloop
  endfacet
  facet normal  0.000000e+000  5.000000e-001  8.660254e-001
    outer loop
      vertex -2.750000e+001  2.042934e+001 -1.842649e+001
      vertex  2.450000e+001  2.373778e+001 -2.033662e+001
      vertex -2.750000e+001  2.373778e+001 -2.033662e+001
    endloop
  endfacet
  facet normal  -0.000000e+000  1.736483e-001  9.848077e-001
    outer loop
      vertex -2.750000e+001  2.373778e+001 -2.033662e+001
      vertex  2.450000e+001  2.373778e+001 -2.033662e+001
      vertex  2.450000e+001  2.750000e+001 -2.100000e+001
    endloop
  endfacet
  facet normal  0.000000e+000  1.736483e-001  9.848077e-001
    outer loop
      vertex -2.750000e+001  2.373778e+001 -2.033662e+001
      vertex  2.450000e+001  2.750000e+001 -2.100000e+001
      vertex -2.750000e+001  2.750000e+001 -2.100000e+001
    endloop
  endfacet
  facet normal  -0.000000e+000  9.396926e-001  3.420202e-001
    outer loop
      vertex  2.450000e+001  1.797372e+001 -1.550000e+001
      vertex -2.750000e+001  1.666711e+001 -1.191013e+001
      vertex  2.450000e+001  1.666711e+001 -1.191013e+001
    endloop
  endfacet
  facet normal  0.000000e+000  9.999999e-001  0.000000e+000
    outer loop
      vertex  2.450000e+001  1.666711e+001 -1.191013e+001
      vertex -2.750000e+001  1.666711e+001 -1.191013e+001
      vertex -2.750000e+001  1.666711e+001 -8.089870e+000
    endloop
  endfacet
  facet normal  -0.000000e+000  9.999999e-001  0.000000e+000
    outer loop
      vertex  2.450000e+001  1.666711e+001 -1.191013e+001
      vertex -2.750000e+001  1.666711e+001 -8.089870e+000
      vertex  2.450000e+001  1.666711e+001 -8.089870e+000
    endloop
  endfacet
  facet normal  0.000000e+000  9.396926e-001 -3.420202e-001
    outer loop
      vertex  2.450000e+001  1.666711e+001 -8.089870e+000
      vertex -2.750000e+001  1.666711e+001 -8.089870e+000
      vertex -2.750000e+001  1.797372e+001 -4.500000e+000
    endloop
  endfacet
  facet normal  0.000000e+000  9.396926e-001 -3.420202e-001
    outer loop
      vertex  2.450000e+001  1.666711e+001 -8.089870e+000
      vertex -2.750000e+001  1.797372e+001 -4.500000e+000
      vertex  2.450000e+001  1.797372e+001 -4.500000e+000
    endloop
  endfacet
  facet normal  0.000000e+000  7.660444e-001 -6.427876e-001
    outer loop
      vertex  2.450000e+001  1.797372e+001 -4.500000e+000
      vertex -2.750000e+001  1.797372e+001 -4.500000e+000
      vertex -2.750000e+001  2.042934e+001 -1.573511e+000
    endloop
  endfacet
  facet normal  0.000000e+000  7.660444e-001 -6.427876e-001
    outer loop
      vertex  2.450000e+001  1.797372e+001 -4.500000e+000
      vertex -2.750000e+001  2.042934e+001 -1.573511e+000
      vertex  2.450000e+001  2.042934e+001 -1.573511e+000
    endloop
  endfacet
  facet normal  0.000000e+000  5.000001e-001 -8.660253e-001
    outer loop
      vertex  2.450000e+001  2.042934e+001 -1.573511e+000
      vertex -2.750000e+001  2.042934e+001 -1.573511e+000
      vertex -2.750000e+001  2.373778e+001  3.366188e-001
    endloop
  endfacet
  facet normal  0.000000e+000  5.000001e-001 -8.660253e-001
    outer loop
      vertex  2.450000e+001  2.042934e+001 -1.573511e+000
      vertex -2.750000e+001  2.373778e+001  3.366188e-001
      vertex  2.450000e+001  2.373778e+001  3.366188e-001
    endloop
  endfacet
  facet normal  0.000000e+000  1.736481e-001 -9.848077e-001
    outer loop
      vertex  2.450000e+001  2.373778e+001  3.366188e-001
      vertex -2.750000e+001  2.373778e+001  3.366188e-001
      vertex -2.750000e+001  2.750000e+001  1.000000e+000
    endloop
  endfacet
  facet normal  0.000000e+000  1.736481e-001 -9.848077e-001
    outer loop
      vertex  2.450000e+001  2.373778e+001  3.366188e-001
      vertex -2.750000e+001  2.750000e+001  1.000000e+000
      vertex  2.450000e+001  2.750000e+001  1.000000e+000
    endloop
  endfacet
  facet normal  0.000000e+000  7.933534e-001 -6.087614e-001
    outer loop
      vertex  2.450000e+001  1.176687e+001  5.733126e+000
      vertex  2.750000e+001  8.230935e+000  1.125000e+000
      vertex  2.450000e+001  8.230935e+000  1.125000e+000
    endloop
  endfacet
  facet normal  0.000000e+000  9.238796e-001 -3.826835e-001
    outer loop
      vertex  2.450000e+001  8.230935e+000  1.125000e+000
      vertex  2.750000e+001  8.230935e+000  1.125000e+000
      vertex  2.750000e+001  6.008151e+000 -4.241276e+000
    endloop
  endfacet
  facet normal  0.000000e+000  9.238796e-001 -3.826835e-001
    outer loop
      vertex  2.450000e+001  8.230935e+000  1.125000e+000
      vertex  2.750000e+001  6.008151e+000 -4.241276e+000
      vertex  2.450000e+001  6.008151e+000 -4.241276e+000
    endloop
  endfacet
  facet normal  0.000000e+000  9.914449e-001 -1.305262e-001
    outer loop
      vertex  2.450000e+001  6.008151e+000 -4.241276e+000
      vertex  2.750000e+001  6.008151e+000 -4.241276e+000
      vertex  2.750000e+001  5.250000e+000 -1.000000e+001
    endloop
  endfacet
  facet normal  0.000000e+000  9.914449e-001 -1.305262e-001
    outer loop
      vertex  2.450000e+001  6.008151e+000 -4.241276e+000
      vertex  2.750000e+001  5.250000e+000 -1.000000e+001
      vertex  2.450000e+001  5.250000e+000 -1.000000e+001
    endloop
  endfacet
  facet normal  0.000000e+000  7.933534e-001 -6.087614e-001
    outer loop
      vertex  2.750000e+001  8.230935e+000  1.125000e+000
      vertex  2.450000e+001  1.176687e+001  5.733126e+000
      vertex  2.750000e+001  1.176687e+001  5.733126e+000
    endloop
  endfacet
  facet normal  0.000000e+000  6.087614e-001 -7.933534e-001
    outer loop
      vertex  2.750000e+001  1.176687e+001  5.733126e+000
      vertex  2.450000e+001  1.176687e+001  5.733126e+000
      vertex  2.450000e+001  1.637500e+001  9.269065e+000
    endloop
  endfacet
  facet normal  0.000000e+000  6.087614e-001 -7.933534e-001
    outer loop
      vertex  2.750000e+001  1.176687e+001  5.733126e+000
      vertex  2.450000e+001  1.637500e+001  9.269065e+000
      vertex  2.750000e+001  1.637500e+001  9.269065e+000
    endloop
  endfacet
  facet normal  0.000000e+000  3.826835e-001 -9.238795e-001
    outer loop
      vertex  2.750000e+001  1.637500e+001  9.269065e+000
      vertex  2.450000e+001  1.637500e+001  9.269065e+000
      vertex  2.450000e+001  2.174128e+001  1.149185e+001
    endloop
  endfacet
  facet normal  0.000000e+000  3.826835e-001 -9.238795e-001
    outer loop
      vertex  2.750000e+001  1.637500e+001  9.269065e+000
      vertex  2.450000e+001  2.174128e+001  1.149185e+001
      vertex  2.750000e+001  2.174128e+001  1.149185e+001
    endloop
  endfacet
  facet normal  0.000000e+000  1.305261e-001 -9.914449e-001
    outer loop
      vertex  2.750000e+001  2.174128e+001  1.149185e+001
      vertex  2.450000e+001  2.174128e+001  1.149185e+001
      vertex  2.450000e+001  2.750000e+001  1.225000e+001
    endloop
  endfacet
  facet normal  0.000000e+000  1.305261e-001 -9.914449e-001
    outer loop
      vertex  2.750000e+001  2.174128e+001  1.149185e+001
      vertex  2.450000e+001  2.750000e+001  1.225000e+001
      vertex  2.750000e+001  2.750000e+001  1.225000e+001
    endloop
  endfacet
  facet normal  0.000000e+000  6.087615e-001  7.933533e-001
    outer loop
      vertex  2.450000e+001  1.176687e+001 -2.573313e+001
      vertex  2.750000e+001  1.637500e+001 -2.926907e+001
      vertex  2.450000e+001  1.637500e+001 -2.926907e+001
    endloop
  endfacet
  facet normal  -0.000000e+000  3.826834e-001  9.238795e-001
    outer loop
      vertex  2.450000e+001  1.637500e+001 -2.926907e+001
      vertex  2.750000e+001  1.637500e+001 -2.926907e+001
      vertex  2.750000e+001  2.174128e+001 -3.149185e+001
    endloop
  endfacet
  facet normal  0.000000e+000  3.826834e-001  9.238795e-001
    outer loop
      vertex  2.450000e+001  1.637500e+001 -2.926907e+001
      vertex  2.750000e+001  2.174128e+001 -3.149185e+001
      vertex  2.450000e+001  2.174128e+001 -3.149185e+001
    endloop
  endfacet
  facet normal  -0.000000e+000  1.305261e-001  9.914449e-001
    outer loop
      vertex  2.450000e+001  2.174128e+001 -3.149185e+001
      vertex  2.750000e+001  2.174128e+001 -3.149185e+001
      vertex  2.750000e+001  2.750000e+001 -3.225000e+001
    endloop
  endfacet
  facet normal  0.000000e+000  1.305261e-001  9.914449e-001
    outer loop
      vertex  2.450000e+001  2.174128e+001 -3.149185e+001
      vertex  2.750000e+001  2.750000e+001 -3.225000e+001
      vertex  2.450000e+001  2.750000e+001 -3.225000e+001
    endloop
  endfacet
  facet normal  -0.000000e+000  6.087615e-001  7.933533e-001
    outer loop
      vertex  2.750000e+001  1.637500e+001 -2.926907e+001
      vertex  2.450000e+001  1.176687e+001 -2.573313e+001
      vertex  2.750000e+001  1.176687e+001 -2.573313e+001
    endloop
  endfacet
  facet normal  0.000000e+000  7.933534e-001  6.087614e-001
    outer loop
      vertex  2.750000e+001  1.176687e+001 -2.573313e+001
      vertex  2.450000e+001  1.176687e+001 -2.573313e+001
      vertex  2.450000e+001  8.230935e+000 -2.112500e+001
    endloop
  endfacet
  facet normal  -0.000000e+000  7.933534e-001  6.087614e-001
    outer loop
      vertex  2.750000e+001  1.176687e+001 -2.573313e+001
      vertex  2.450000e+001  8.230935e+000 -2.112500e+001
      vertex  2.750000e+001  8.230935e+000 -2.112500e+001
    endloop
  endfacet
  facet normal  0.000000e+000  9.238795e-001  3.826835e-001
    outer loop
      vertex  2.750000e+001  8.230935e+000 -2.112500e+001
      vertex  2.450000e+001  8.230935e+000 -2.112500e+001
      vertex  2.450000e+001  6.008151e+000 -1.575872e+001
    endloop
  endfacet
  facet normal  -0.000000e+000  9.238795e-001  3.826835e-001
    outer loop
      vertex  2.750000e+001  8.230935e+000 -2.112500e+001
      vertex  2.450000e+001  6.008151e+000 -1.575872e+001
      vertex  2.750000e+001  6.008151e+000 -1.575872e+001
    endloop
  endfacet
  facet normal  0.000000e+000  9.914448e-001  1.305262e-001
    outer loop
      vertex  2.750000e+001  6.008151e+000 -1.575872e+001
      vertex  2.450000e+001  6.008151e+000 -1.575872e+001
      vertex  2.450000e+001  5.250000e+000 -1.000000e+001
    endloop
  endfacet
  facet normal  -0.000000e+000  9.914448e-001  1.305262e-001
    outer loop
      vertex  2.750000e+001  6.008151e+000 -1.575872e+001
      vertex  2.450000e+001  5.250000e+000 -1.000000e+001
      vertex  2.750000e+001  5.250000e+000 -1.000000e+001
    endloop
  endfacet
  facet normal  1.000000e+000  0.000000e+000  0.000000e+000
    outer loop
      vertex  2.450000e+001  2.750000e+001  1.000000e+000
      vertex  2.450000e+001  2.750000e+001  1.225000e+001
      vertex  2.450000e+001  2.174128e+001  1.149185e+001
    endloop
  endfacet
  facet normal  1.000000e+000  0.000000e+000  0.000000e+000
    outer loop
      vertex  2.450000e+001  2.750000e+001  1.000000e+000
      vertex  2.450000e+001  2.174128e+001  1.149185e+001
      vertex  2.450000e+001  1.637500e+001  9.269065e+000
    endloop
  endfacet
  facet normal  1.000000e+000  0.000000e+000  0.000000e+000
    outer loop
      vertex  2.450000e+001  2.750000e+001  1.000000e+000
      vertex  2.450000e+001  1.637500e+001  9.269065e+000
      vertex  2.450000e+001  1.176687e+001  5.733126e+000
    endloop
  endfacet
  facet normal  1.000000e+000  0.000000e+000  0.000000e+000
    outer loop
      vertex  2.450000e+001  2.750000e+001  1.000000e+000
      vertex  2.450000e+001  1.176687e+001  5.733126e+000
      vertex  2.450000e+001  8.230935e+000  1.125000e+000
    endloop
  endfacet
  facet normal  9.999999e-001  0.000000e+000  0.000000e+000
    outer loop
      vertex  2.450000e+001  2.750000e+001  1.000000e+000
      vertex  2.450000e+001  8.230935e+000  1.125000e+000
      vertex  2.450000e+001  2.373778e+001  3.366188e-001
    endloop
  endfacet
  facet normal  1.000000e+000  0.000000e+000  0.000000e+000
    outer loop
      vertex  2.450000e+001  2.750000e+001 -3.225000e+001
      vertex  2.450000e+001  2.750000e+001 -2.100000e+001
      vertex  2.450000e+001  2.373778e+001 -2.033662e+001
    endloop
  endfacet
  facet normal  9.999999e-001  0.000000e+000  0.000000e+000
    outer loop
      vertex  2.450000e+001  2.750000e+001 -3.225000e+001
      vertex  2.450000e+001  2.373778e+001 -2.033662e+001
      vertex  2.450000e+001  8.230935e+000 -2.112500e+001
    endloop
  endfacet
  facet normal  1.000000e+000  0.000000e+000  0.000000e+000
    outer loop
      vertex  2.450000e+001  2.750000e+001 -3.225000e+001
      vertex  2.450000e+001  8.230935e+000 -2.112500e+001
      vertex  2.450000e+001  1.176687e+001 -2.573313e+001
    endloop
  endfacet
  facet normal  1.000000e+000  0.000000e+000  0.000000e+000
    outer loop
      vertex  2.450000e+001  2.750000e+001 -3.225000e+001
      vertex  2.450000e+001  1.176687e+001 -2.573313e+001
      vertex  2.450000e+001  1.637500e+001 -2.926907e+001
    endloop
  endfacet
  facet normal  1.000000e+000  0.000000e+000  0.000000e+000
    outer loop
      vertex  2.450000e+001  2.750000e+001 -3.225000e+001
      vertex  2.450000e+001  1.637500e+001 -2.926907e+001
      vertex  2.450000e+001  2.174128e+001 -3.149185e+001
    endloop
  endfacet
  facet normal  1.000000e+000  0.000000e+000  0.000000e+000
    outer loop
      vertex  2.450000e+001  2.373778e+001  3.366188e-001
      vertex  2.450000e+001  8.230935e+000  1.125000e+000
      vertex  2.450000e+001  2.042934e+001 -1.573511e+000
    endloop
  endfacet
  facet normal  1.000000e+000  0.000000e+000  0.000000e+000
    outer loop
      vertex  2.450000e+001  2.042934e+001 -1.573511e+000
      vertex  2.450000e+001  8.230935e+000  1.125000e+000
      vertex  2.450000e+001  6.008151e+000 -4.241276e+000
    endloop
  endfacet
  facet normal  1.000000e+000  -0.000000e+000  0.000000e+000
    outer loop
      vertex  2.450000e+001  2.042934e+001 -1.573511e+000
      vertex  2.450000e+001  6.008151e+000 -4.241276e+000
      vertex  2.450000e+001  1.797372e+001 -4.500000e+000
    endloop
  endfacet
  facet normal  1.000000e+000  0.000000e+000  0.000000e+000
    outer loop
      vertex  2.450000e+001  1.797372e+001 -4.500000e+000
      vertex  2.450000e+001  6.008151e+000 -4.241276e+000
      vertex  2.450000e+001  1.666711e+001 -8.089870e+000
    endloop
  endfacet
  facet normal  1.000000e+000  0.000000e+000  0.000000e+000
    outer loop
      vertex  2.450000e+001  1.666711e+001 -8.089870e+000
      vertex  2.450000e+001  6.008151e+000 -4.241276e+000
      vertex  2.450000e+001  5.250000e+000 -1.000000e+001
    endloop
  endfacet
  facet normal  1.000000e+000  -0.000000e+000  0.000000e+000
    outer loop
      vertex  2.450000e+001  1.666711e+001 -8.089870e+000
      vertex  2.450000e+001  5.250000e+000 -1.000000e+001
      vertex  2.450000e+001  1.666711e+001 -1.191013e+001
    endloop
  endfacet
  facet normal  1.000000e+000  0.000000e+000  0.000000e+000
    outer loop
      vertex  2.450000e+001  1.666711e+001 -1.191013e+001
      vertex  2.450000e+001  5.250000e+000 -1.000000e+001
      vertex  2.450000e+001  6.008151e+000 -1.575872e+001
    endloop
  endfacet
  facet normal  1.000000e+000  0.000000e+000  0.000000e+000
    outer loop
      vertex  2.450000e+001  1.666711e+001 -1.191013e+001
      vertex  2.450000e+001  6.008151e+000 -1.575872e+001
      vertex  2.450000e+001  1.797372e+001 -1.550000e+001
    endloop
  endfacet
  facet normal  1.000000e+000  -0.000000e+000  0.000000e+000
    outer loop
      vertex  2.450000e+001  1.797372e+001 -1.550000e+001
      vertex  2.450000e+001  6.008151e+000 -1.575872e+001
      vertex  2.450000e+001  2.042934e+001 -1.842649e+001
    endloop
  endfacet
  facet normal  1.000000e+000  0.000000e+000  0.000000e+000
    outer loop
      vertex  2.450000e+001  2.042934e+001 -1.842649e+001
      vertex  2.450000e+001  6.008151e+000 -1.575872e+001
      vertex  2.450000e+001  8.230935e+000 -2.112500e+001
    endloop
  endfacet
  facet normal  1.000000e+000  0.000000e+000  0.000000e+000
    outer loop
      vertex  2.450000e+001  2.042934e+001 -1.842649e+001
      vertex  2.450000e+001  8.230935e+000 -2.112500e+001
      vertex  2.450000e+001  2.373778e+001 -2.033662e+001
    endloop
  endfacet
  facet normal  7.071055e-001  1.858619e-003  7.071056e-001
    outer loop
      vertex -1.299038e+000  5.463726e-011 -3.325000e+001
      vertex -7.500000e-001  2.731863e-011 -3.379904e+001
      vertex -1.060660e+000  2.750000e+001 -3.356066e+001
    endloop
  endfacet
  facet normal  2.588154e-001 -5.448984e-003  9.659114e-001
    outer loop
      vertex -1.060660e+000  2.750000e+001 -3.356066e+001
      vertex -7.500000e-001  2.731863e-011 -3.379904e+001
      vertex -4.716848e-012  1.639118e-010 -3.400000e+001
    endloop
  endfacet
  facet normal  3.826826e-001 -6.563019e-014  9.238800e-001
    outer loop
      vertex -1.060660e+000  2.750000e+001 -3.356066e+001
      vertex -4.716848e-012  1.639118e-010 -3.400000e+001
      vertex -5.894265e-016  2.750000e+001 -3.400000e+001
    endloop
  endfacet
  facet normal -3.826826e-001  6.563019e-014  9.238800e-001
    outer loop
      vertex -5.894265e-016  2.750000e+001 -3.400000e+001
      vertex -4.716848e-012  1.639118e-010 -3.400000e+001
      vertex  1.060660e+000  1.639080e-010 -3.356066e+001
    endloop
  endfacet
  facet normal -3.826826e-001  0.000000e+000  9.238800e-001
    outer loop
      vertex -5.894265e-016  2.750000e+001 -3.400000e+001
      vertex  1.060660e+000  1.639080e-010 -3.356066e+001
      vertex  1.060660e+000  2.750000e+001 -3.356066e+001
    endloop
  endfacet
  facet normal -9.238797e-001  0.000000e+000  3.826831e-001
    outer loop
      vertex  1.060660e+000  2.750000e+001 -3.356066e+001
      vertex  1.060660e+000  1.639080e-010 -3.356066e+001
      vertex  1.500000e+000  1.639118e-010 -3.250000e+001
    endloop
  endfacet
  facet normal -9.238797e-001  0.000000e+000  3.826831e-001
    outer loop
      vertex  1.060660e+000  2.750000e+001 -3.356066e+001
      vertex  1.500000e+000  1.639118e-010 -3.250000e+001
      vertex  1.500000e+000  2.750000e+001 -3.250000e+001
    endloop
  endfacet
  facet normal  9.659115e-001 -5.449021e-003  2.588153e-001
    outer loop
      vertex -1.299038e+000  5.463726e-011 -3.325000e+001
      vertex -1.060660e+000  2.750000e+001 -3.356066e+001
      vertex -1.500000e+000  8.195589e-011 -3.250000e+001
    endloop
  endfacet
  facet normal  9.238797e-001  -0.000000e+000  3.826831e-001
    outer loop
      vertex -1.500000e+000  8.195589e-011 -3.250000e+001
      vertex -1.060660e+000  2.750000e+001 -3.356066e+001
      vertex -1.500000e+000  2.750000e+001 -3.250000e+001
    endloop
  endfacet
  facet normal  8.042508e-001  6.181209e-004 -5.942897e-001
    outer loop
      vertex -9.916540e-001  1.262266e-010 -3.137456e+001
      vertex -1.367019e+000  1.040912e-010 -3.188254e+001
      vertex -1.060660e+000  2.750000e+001 -3.143934e+001
    endloop
  endfacet
  facet normal  9.775578e-001 -7.497281e-003 -2.105340e-001
    outer loop
      vertex -1.060660e+000  2.750000e+001 -3.143934e+001
      vertex -1.367019e+000  1.040912e-010 -3.188254e+001
      vertex -1.500000e+000  8.195589e-011 -3.250000e+001
    endloop
  endfacet
  facet normal  9.238794e-001  0.000000e+000 -3.826837e-001
    outer loop
      vertex -1.060660e+000  2.750000e+001 -3.143934e+001
      vertex -1.500000e+000  8.195589e-011 -3.250000e+001
      vertex -1.500000e+000  2.750000e+001 -3.250000e+001
    endloop
  endfacet
  facet normal  3.826838e-001 -1.216152e-003 -9.238787e-001
    outer loop
      vertex -3.835365e-017  2.750000e+001 -3.100000e+001
      vertex -9.916540e-001  1.262266e-010 -3.137456e+001
      vertex -1.060660e+000  2.750000e+001 -3.143934e+001
    endloop
  endfacet
  facet normal  3.533450e-001 -4.444243e-017 -9.354931e-001
    outer loop
      vertex -9.916540e-001  1.262266e-010 -3.137456e+001
      vertex -3.835365e-017  2.750000e+001 -3.100000e+001
      vertex -3.497203e-015  1.639118e-010 -3.100000e+001
    endloop
  endfacet
  facet normal -3.826840e-001  4.813259e-017 -9.238793e-001
    outer loop
      vertex -3.497203e-015  1.639118e-010 -3.100000e+001
      vertex -3.835365e-017  2.750000e+001 -3.100000e+001
      vertex  1.060660e+000  2.750000e+001 -3.143934e+001
    endloop
  endfacet
  facet normal -3.826840e-001  -0.000000e+000 -9.238793e-001
    outer loop
      vertex -3.497203e-015  1.639118e-010 -3.100000e+001
      vertex  1.060660e+000  2.750000e+001 -3.143934e+001
      vertex  1.060660e+000  1.639118e-010 -3.143934e+001
    endloop
  endfacet
  facet normal -9.238794e-001  0.000000e+000 -3.826837e-001
    outer loop
      vertex  1.060660e+000  1.639118e-010 -3.143934e+001
      vertex  1.060660e+000  2.750000e+001 -3.143934e+001
      vertex  1.500000e+000  2.750000e+001 -3.250000e+001
    endloop
  endfacet
  facet normal -9.238794e-001  -0.000000e+000 -3.826837e-001
    outer loop
      vertex  1.060660e+000  1.639118e-010 -3.143934e+001
      vertex  1.500000e+000  2.750000e+001 -3.250000e+001
      vertex  1.500000e+000  1.639118e-010 -3.250000e+001
    endloop
  endfacet
  facet normal -2.955208e-001  0.000000e+000 -9.553363e-001
    outer loop
      vertex -1.665304e+001  2.750000e+001  1.873800e+001
      vertex -1.750000e+001  1.639118e-010  1.900000e+001
      vertex -1.750000e+001  2.750000e+001  1.900000e+001
    endloop
  endfacet
  facet normal -2.955208e-001  -0.000000e+000 -9.553363e-001
    outer loop
      vertex -1.750000e+001  1.639118e-010  1.900000e+001
      vertex -1.665304e+001  2.750000e+001  1.873800e+001
      vertex -1.665304e+001  0.000000e+000  1.873800e+001
    endloop
  endfacet
  facet normal -7.833269e-001  0.000000e+000 -6.216100e-001
    outer loop
      vertex -1.665304e+001  0.000000e+000  1.873800e+001
      vertex -1.665304e+001  2.750000e+001  1.873800e+001
      vertex -1.610194e+001  2.750000e+001  1.804354e+001
    endloop
  endfacet
  facet normal -7.833269e-001  -0.000000e+000 -6.216100e-001
    outer loop
      vertex -1.665304e+001  0.000000e+000  1.873800e+001
      vertex -1.610194e+001  2.750000e+001  1.804354e+001
      vertex -1.610194e+001  0.000000e+000  1.804354e+001
    endloop
  endfacet
  facet normal -9.828628e-001  0.000000e+000 -1.843389e-001
    outer loop
      vertex -1.610194e+001  0.000000e+000  1.804354e+001
      vertex -1.610194e+001  2.750000e+001  1.804354e+001
      vertex -1.600000e+001  2.750000e+001  1.750000e+001
    endloop
  endfacet
  facet normal -9.828628e-001  -0.000000e+000 -1.843389e-001
    outer loop
      vertex -1.610194e+001  0.000000e+000  1.804354e+001
      vertex -1.600000e+001  2.750000e+001  1.750000e+001
      vertex -1.600000e+001  1.639118e-010  1.750000e+001
    endloop
  endfacet
  facet normal  9.934404e-001  0.000000e+000 -1.143508e-001
    outer loop
      vertex  1.603923e+001  2.750000e+001  1.784080e+001
      vertex  1.600000e+001  8.195400e-011  1.750000e+001
      vertex  1.600000e+001  2.750000e+001  1.750000e+001
    endloop
  endfacet
  facet normal  9.934404e-001  0.000000e+000 -1.143508e-001
    outer loop
      vertex  1.600000e+001  8.195400e-011  1.750000e+001
      vertex  1.603923e+001  2.750000e+001  1.784080e+001
      vertex  1.603923e+001  0.000000e+000  1.784080e+001
    endloop
  endfacet
  facet normal  8.632095e-001  0.000000e+000 -5.048460e-001
    outer loop
      vertex  1.603923e+001  0.000000e+000  1.784080e+001
      vertex  1.603923e+001  2.750000e+001  1.784080e+001
      vertex  1.648680e+001  2.750000e+001  1.860609e+001
    endloop
  endfacet
  facet normal  8.632095e-001  0.000000e+000 -5.048460e-001
    outer loop
      vertex  1.603923e+001  0.000000e+000  1.784080e+001
      vertex  1.648680e+001  2.750000e+001  1.860609e+001
      vertex  1.648680e+001  0.000000e+000  1.860609e+001
    endloop
  endfacet
  facet normal  3.623577e-001  0.000000e+000 -9.320391e-001
    outer loop
      vertex  1.648680e+001  0.000000e+000  1.860609e+001
      vertex  1.648680e+001  2.750000e+001  1.860609e+001
      vertex  1.750000e+001  2.750000e+001  1.900000e+001
    endloop
  endfacet
  facet normal  3.623577e-001  0.000000e+000 -9.320391e-001
    outer loop
      vertex  1.648680e+001  0.000000e+000  1.860609e+001
      vertex  1.750000e+001  2.750000e+001  1.900000e+001
      vertex  1.750000e+001  1.639118e-010  1.900000e+001
    endloop
  endfacet
  facet normal  2.955208e-001  -0.000000e+000  9.553363e-001
    outer loop
      vertex  1.665304e+001  2.750000e+001  1.626200e+001
      vertex  1.750000e+001  0.000000e+000  1.600000e+001
      vertex  1.750000e+001  2.750000e+001  1.600000e+001
    endloop
  endfacet
  facet normal  2.955208e-001  0.000000e+000  9.553363e-001
    outer loop
      vertex  1.750000e+001  0.000000e+000  1.600000e+001
      vertex  1.665304e+001  2.750000e+001  1.626200e+001
      vertex  1.665304e+001  0.000000e+000  1.626200e+001
    endloop
  endfacet
  facet normal  7.833269e-001  -0.000000e+000  6.216100e-001
    outer loop
      vertex  1.665304e+001  0.000000e+000  1.626200e+001
      vertex  1.665304e+001  2.750000e+001  1.626200e+001
      vertex  1.610194e+001  2.750000e+001  1.695646e+001
    endloop
  endfacet
  facet normal  7.833269e-001  0.000000e+000  6.216100e-001
    outer loop
      vertex  1.665304e+001  0.000000e+000  1.626200e+001
      vertex  1.610194e+001  2.750000e+001  1.695646e+001
      vertex  1.610194e+001  0.000000e+000  1.695646e+001
    endloop
  endfacet
  facet normal  9.828628e-001  -0.000000e+000  1.843389e-001
    outer loop
      vertex  1.610194e+001  0.000000e+000  1.695646e+001
      vertex  1.610194e+001  2.750000e+001  1.695646e+001
      vertex  1.600000e+001  2.750000e+001  1.750000e+001
    endloop
  endfacet
  facet normal  9.828628e-001  0.000000e+000  1.843389e-001
    outer loop
      vertex  1.610194e+001  0.000000e+000  1.695646e+001
      vertex  1.600000e+001  2.750000e+001  1.750000e+001
      vertex  1.600000e+001  8.195400e-011  1.750000e+001
    endloop
  endfacet
  facet normal -9.934404e-001  0.000000e+000  1.143508e-001
    outer loop
      vertex  1.896077e+001  2.750000e+001  1.715920e+001
      vertex  1.900000e+001  0.000000e+000  1.750000e+001
      vertex  1.900000e+001  2.750000e+001  1.750000e+001
    endloop
  endfacet
  facet normal -9.934404e-001  0.000000e+000  1.143508e-001
    outer loop
      vertex  1.900000e+001  0.000000e+000  1.750000e+001
      vertex  1.896077e+001  2.750000e+001  1.715920e+001
      vertex  1.896077e+001  0.000000e+000  1.715920e+001
    endloop
  endfacet
  facet normal -8.632095e-001  0.000000e+000  5.048460e-001
    outer loop
      vertex  1.896077e+001  0.000000e+000  1.715920e+001
      vertex  1.896077e+001  2.750000e+001  1.715920e+001
      vertex  1.851320e+001  2.750000e+001  1.639391e+001
    endloop
  endfacet
  facet normal -8.632095e-001  0.000000e+000  5.048460e-001
    outer loop
      vertex  1.896077e+001  0.000000e+000  1.715920e+001
      vertex  1.851320e+001  2.750000e+001  1.639391e+001
      vertex  1.851320e+001  0.000000e+000  1.639391e+001
    endloop
  endfacet
  facet normal -3.623577e-001  0.000000e+000  9.320391e-001
    outer loop
      vertex  1.851320e+001  0.000000e+000  1.639391e+001
      vertex  1.851320e+001  2.750000e+001  1.639391e+001
      vertex  1.750000e+001  2.750000e+001  1.600000e+001
    endloop
  endfacet
  facet normal -3.623577e-001  0.000000e+000  9.320391e-001
    outer loop
      vertex  1.851320e+001  0.000000e+000  1.639391e+001
      vertex  1.750000e+001  2.750000e+001  1.600000e+001
      vertex  1.750000e+001  0.000000e+000  1.600000e+001
    endloop
  endfacet
  facet normal -2.955208e-001  0.000000e+000 -9.553363e-001
    outer loop
      vertex  1.834696e+001  2.750000e+001  1.873800e+001
      vertex  1.750000e+001  1.639118e-010  1.900000e+001
      vertex  1.750000e+001  2.750000e+001  1.900000e+001
    endloop
  endfacet
  facet normal -2.955208e-001  -0.000000e+000 -9.553363e-001
    outer loop
      vertex  1.750000e+001  1.639118e-010  1.900000e+001
      vertex  1.834696e+001  2.750000e+001  1.873800e+001
      vertex  1.834696e+001  0.000000e+000  1.873800e+001
    endloop
  endfacet
  facet normal -7.833269e-001  0.000000e+000 -6.216100e-001
    outer loop
      vertex  1.834696e+001  0.000000e+000  1.873800e+001
      vertex  1.834696e+001  2.750000e+001  1.873800e+001
      vertex  1.889806e+001  2.750000e+001  1.804354e+001
    endloop
  endfacet
  facet normal -7.833269e-001  -0.000000e+000 -6.216100e-001
    outer loop
      vertex  1.834696e+001  0.000000e+000  1.873800e+001
      vertex  1.889806e+001  2.750000e+001  1.804354e+001
      vertex  1.889806e+001  0.000000e+000  1.804354e+001
    endloop
  endfacet
  facet normal -9.828628e-001  0.000000e+000 -1.843389e-001
    outer loop
      vertex  1.889806e+001  0.000000e+000  1.804354e+001
      vertex  1.889806e+001  2.750000e+001  1.804354e+001
      vertex  1.900000e+001  2.750000e+001  1.750000e+001
    endloop
  endfacet
  facet normal -9.828628e-001  -0.000000e+000 -1.843389e-001
    outer loop
      vertex  1.889806e+001  0.000000e+000  1.804354e+001
      vertex  1.900000e+001  2.750000e+001  1.750000e+001
      vertex  1.900000e+001  0.000000e+000  1.750000e+001
    endloop
  endfacet
  facet normal -9.934404e-001  0.000000e+000  1.143508e-001
    outer loop
      vertex -1.603923e+001  2.750000e+001  1.715920e+001
      vertex -1.600000e+001  1.639118e-010  1.750000e+001
      vertex -1.600000e+001  2.750000e+001  1.750000e+001
    endloop
  endfacet
  facet normal -9.934404e-001  0.000000e+000  1.143508e-001
    outer loop
      vertex -1.600000e+001  1.639118e-010  1.750000e+001
      vertex -1.603923e+001  2.750000e+001  1.715920e+001
      vertex -1.603923e+001  0.000000e+000  1.715920e+001
    endloop
  endfacet
  facet normal -8.632095e-001  0.000000e+000  5.048460e-001
    outer loop
      vertex -1.603923e+001  0.000000e+000  1.715920e+001
      vertex -1.603923e+001  2.750000e+001  1.715920e+001
      vertex -1.648680e+001  2.750000e+001  1.639391e+001
    endloop
  endfacet
  facet normal -8.632095e-001  0.000000e+000  5.048460e-001
    outer loop
      vertex -1.603923e+001  0.000000e+000  1.715920e+001
      vertex -1.648680e+001  2.750000e+001  1.639391e+001
      vertex -1.648680e+001  0.000000e+000  1.639391e+001
    endloop
  endfacet
  facet normal -3.623577e-001  0.000000e+000  9.320391e-001
    outer loop
      vertex -1.648680e+001  0.000000e+000  1.639391e+001
      vertex -1.648680e+001  2.750000e+001  1.639391e+001
      vertex -1.750000e+001  2.750000e+001  1.600000e+001
    endloop
  endfacet
  facet normal -3.623577e-001  0.000000e+000  9.320391e-001
    outer loop
      vertex -1.648680e+001  0.000000e+000  1.639391e+001
      vertex -1.750000e+001  2.750000e+001  1.600000e+001
      vertex -1.750000e+001  1.639118e-010  1.600000e+001
    endloop
  endfacet
  facet normal  9.934404e-001  0.000000e+000 -1.143508e-001
    outer loop
      vertex -1.896077e+001  2.750000e+001  1.784080e+001
      vertex -1.900000e+001  8.195589e-011  1.750000e+001
      vertex -1.900000e+001  2.750000e+001  1.750000e+001
    endloop
  endfacet
  facet normal  9.934404e-001  0.000000e+000 -1.143508e-001
    outer loop
      vertex -1.900000e+001  8.195589e-011  1.750000e+001
      vertex -1.896077e+001  2.750000e+001  1.784080e+001
      vertex -1.896077e+001  0.000000e+000  1.784080e+001
    endloop
  endfacet
  facet normal  8.632095e-001  0.000000e+000 -5.048460e-001
    outer loop
      vertex -1.896077e+001  0.000000e+000  1.784080e+001
      vertex -1.896077e+001  2.750000e+001  1.784080e+001
      vertex -1.851320e+001  2.750000e+001  1.860609e+001
    endloop
  endfacet
  facet normal  8.632095e-001  0.000000e+000 -5.048460e-001
    outer loop
      vertex -1.896077e+001  0.000000e+000  1.784080e+001
      vertex -1.851320e+001  2.750000e+001  1.860609e+001
      vertex -1.851320e+001  0.000000e+000  1.860609e+001
    endloop
  endfacet
  facet normal  3.623577e-001  0.000000e+000 -9.320391e-001
    outer loop
      vertex -1.851320e+001  0.000000e+000  1.860609e+001
      vertex -1.851320e+001  2.750000e+001  1.860609e+001
      vertex -1.750000e+001  2.750000e+001  1.900000e+001
    endloop
  endfacet
  facet normal  3.623577e-001  0.000000e+000 -9.320391e-001
    outer loop
      vertex -1.851320e+001  0.000000e+000  1.860609e+001
      vertex -1.750000e+001  2.750000e+001  1.900000e+001
      vertex -1.750000e+001  1.639118e-010  1.900000e+001
    endloop
  endfacet
  facet normal  2.955208e-001  -0.000000e+000  9.553363e-001
    outer loop
      vertex -1.834696e+001  2.750000e+001  1.626200e+001
      vertex -1.750000e+001  1.639118e-010  1.600000e+001
      vertex -1.750000e+001  2.750000e+001  1.600000e+001
    endloop
  endfacet
  facet normal  2.955208e-001  0.000000e+000  9.553363e-001
    outer loop
      vertex -1.750000e+001  1.639118e-010  1.600000e+001
      vertex -1.834696e+001  2.750000e+001  1.626200e+001
      vertex -1.834696e+001  0.000000e+000  1.626200e+001
    endloop
  endfacet
  facet normal  7.833269e-001  -0.000000e+000  6.216100e-001
    outer loop
      vertex -1.834696e+001  0.000000e+000  1.626200e+001
      vertex -1.834696e+001  2.750000e+001  1.626200e+001
      vertex -1.889806e+001  2.750000e+001  1.695646e+001
    endloop
  endfacet
  facet normal  7.833269e-001  0.000000e+000  6.216100e-001
    outer loop
      vertex -1.834696e+001  0.000000e+000  1.626200e+001
      vertex -1.889806e+001  2.750000e+001  1.695646e+001
      vertex -1.889806e+001  0.000000e+000  1.695646e+001
    endloop
  endfacet
  facet normal  9.828628e-001  -0.000000e+000  1.843389e-001
    outer loop
      vertex -1.889806e+001  0.000000e+000  1.695646e+001
      vertex -1.889806e+001  2.750000e+001  1.695646e+001
      vertex -1.900000e+001  2.750000e+001  1.750000e+001
    endloop
  endfacet
  facet normal  9.828628e-001  0.000000e+000  1.843389e-001
    outer loop
      vertex -1.889806e+001  0.000000e+000  1.695646e+001
      vertex -1.900000e+001  2.750000e+001  1.750000e+001
      vertex -1.900000e+001  8.195589e-011  1.750000e+001
    endloop
  endfacet
  facet normal  1.183192e-009 -9.999999e-001  3.447649e-010
    outer loop
      vertex -1.500000e+000  8.195589e-011 -3.250000e+001
      vertex -1.600000e+001  1.639118e-010  1.750000e+001
      vertex -1.603923e+001  0.000000e+000  1.715920e+001
    endloop
  endfacet
  facet normal  1.880486e-012 -1.000000e+000 -1.099798e-012
    outer loop
      vertex -1.500000e+000  8.195589e-011 -3.250000e+001
      vertex -1.603923e+001  0.000000e+000  1.715920e+001
      vertex -1.648680e+001  0.000000e+000  1.639391e+001
    endloop
  endfacet
  facet normal -1.439690e-010 -1.000000e+000 -4.580512e-011
    outer loop
      vertex -1.500000e+000  8.195589e-011 -3.250000e+001
      vertex -1.648680e+001  0.000000e+000  1.639391e+001
      vertex -1.750000e+001  1.639118e-010  1.600000e+001
    endloop
  endfacet
  facet normal  2.161047e-010 -1.000000e+000  7.298209e-011
    outer loop
      vertex -1.500000e+000  8.195589e-011 -3.250000e+001
      vertex -1.750000e+001  1.639118e-010  1.600000e+001
      vertex -1.834696e+001  0.000000e+000  1.626200e+001
    endloop
  endfacet
  facet normal -3.751154e-012 -1.000000e+000 -2.976733e-012
    outer loop
      vertex -1.500000e+000  8.195589e-011 -3.250000e+001
      vertex -1.834696e+001  0.000000e+000  1.626200e+001
      vertex -1.889806e+001  0.000000e+000  1.695646e+001
    endloop
  endfacet
  facet normal -2.475831e-011 -1.000000e+000 -1.036674e-011
    outer loop
      vertex -1.500000e+000  8.195589e-011 -3.250000e+001
      vertex -1.889806e+001  0.000000e+000  1.695646e+001
      vertex -2.750000e+001  0.000000e+000  3.750000e+001
    endloop
  endfacet
  facet normal  3.152149e-012 -9.999999e-001  0.000000e+000
    outer loop
      vertex -1.500000e+000  8.195589e-011 -3.250000e+001
      vertex -2.750000e+001  0.000000e+000  3.750000e+001
      vertex -2.750000e+001  0.000000e+000 -3.750000e+001
    endloop
  endfacet
  facet normal  0.000000e+000 -1.000000e+000  0.000000e+000
    outer loop
      vertex  2.750000e+001  0.000000e+000  3.750000e+001
      vertex -2.750000e+001  0.000000e+000  3.750000e+001
      vertex  1.834696e+001  0.000000e+000  1.873800e+001
    endloop
  endfacet
  facet normal  0.000000e+000 -1.000000e+000  0.000000e+000
    outer loop
      vertex  2.750000e+001  0.000000e+000  3.750000e+001
      vertex  1.834696e+001  0.000000e+000  1.873800e+001
      vertex  1.889806e+001  0.000000e+000  1.804354e+001
    endloop
  endfacet
  facet normal  0.000000e+000 -1.000000e+000  0.000000e+000
    outer loop
      vertex  2.750000e+001  0.000000e+000  3.750000e+001
      vertex  1.889806e+001  0.000000e+000  1.804354e+001
      vertex  1.900000e+001  0.000000e+000  1.750000e+001
    endloop
  endfacet
  facet normal  0.000000e+000 -1.000000e+000  -0.000000e+000
    outer loop
      vertex  2.750000e+001  0.000000e+000  3.750000e+001
      vertex  1.900000e+001  0.000000e+000  1.750000e+001
      vertex  1.896077e+001  0.000000e+000  1.715920e+001
    endloop
  endfacet
  facet normal  4.840085e-011 -1.000000e+000 -2.031906e-011
    outer loop
      vertex  2.750000e+001  0.000000e+000  3.750000e+001
      vertex  1.896077e+001  0.000000e+000  1.715920e+001
      vertex  1.500000e+000  1.639118e-010 -3.250000e+001
    endloop
  endfacet
  facet normal -6.304299e-012 -9.999999e-001  0.000000e+000
    outer loop
      vertex  2.750000e+001  0.000000e+000  3.750000e+001
      vertex  1.500000e+000  1.639118e-010 -3.250000e+001
      vertex  2.750000e+001  0.000000e+000 -3.750000e+001
    endloop
  endfacet
  facet normal  6.522733e-010 -9.999999e-001  2.731184e-010
    outer loop
      vertex -2.750000e+001  0.000000e+000  3.750000e+001
      vertex -1.889806e+001  0.000000e+000  1.695646e+001
      vertex -1.900000e+001  8.195589e-011  1.750000e+001
    endloop
  endfacet
  facet normal -4.376566e-010 -1.000000e+000 -1.901018e-010
    outer loop
      vertex -2.750000e+001  0.000000e+000  3.750000e+001
      vertex -1.900000e+001  8.195589e-011  1.750000e+001
      vertex -1.896077e+001  0.000000e+000  1.784080e+001
    endloop
  endfacet
  facet normal  0.000000e+000 -1.000000e+000  0.000000e+000
    outer loop
      vertex -2.750000e+001  0.000000e+000  3.750000e+001
      vertex -1.896077e+001  0.000000e+000  1.784080e+001
      vertex -1.851320e+001  0.000000e+000  1.860609e+001
    endloop
  endfacet
  facet normal  1.365298e-010 -1.000000e+000  6.493982e-011
    outer loop
      vertex -2.750000e+001  0.000000e+000  3.750000e+001
      vertex -1.851320e+001  0.000000e+000  1.860609e+001
      vertex -1.750000e+001  1.639118e-010  1.900000e+001
    endloop
  endfacet
  facet normal -2.356767e-010 -1.000000e+000 -1.362529e-010
    outer loop
      vertex -2.750000e+001  0.000000e+000  3.750000e+001
      vertex -1.750000e+001  1.639118e-010  1.900000e+001
      vertex -1.665304e+001  0.000000e+000  1.873800e+001
    endloop
  endfacet
  facet normal  0.000000e+000 -1.000000e+000  0.000000e+000
    outer loop
      vertex -2.750000e+001  0.000000e+000  3.750000e+001
      vertex -1.665304e+001  0.000000e+000  1.873800e+001
      vertex -1.610194e+001  0.000000e+000  1.804354e+001
    endloop
  endfacet
  facet normal  2.578506e-012 -1.000000e+000  1.510550e-012
    outer loop
      vertex -2.750000e+001  0.000000e+000  3.750000e+001
      vertex -1.610194e+001  0.000000e+000  1.804354e+001
      vertex  1.600000e+001  8.195400e-011  1.750000e+001
    endloop
  endfacet
  facet normal -1.032159e-010 -1.000000e+000 -2.285924e-010
    outer loop
      vertex -2.750000e+001  0.000000e+000  3.750000e+001
      vertex  1.600000e+001  8.195400e-011  1.750000e+001
      vertex  1.603923e+001  0.000000e+000  1.784080e+001
    endloop
  endfacet
  facet normal  0.000000e+000 -1.000000e+000  0.000000e+000
    outer loop
      vertex -2.750000e+001  0.000000e+000  3.750000e+001
      vertex  1.603923e+001  0.000000e+000  1.784080e+001
      vertex  1.648680e+001  0.000000e+000  1.860609e+001
    endloop
  endfacet
  facet normal  8.491724e-011 -1.000000e+000  1.976953e-010
    outer loop
      vertex -2.750000e+001  0.000000e+000  3.750000e+001
      vertex  1.648680e+001  0.000000e+000  1.860609e+001
      vertex  1.750000e+001  1.639118e-010  1.900000e+001
    endloop
  endfacet
  facet normal -7.928194e-010 -9.999999e-001 -1.937340e-009
    outer loop
      vertex -2.750000e+001  0.000000e+000  3.750000e+001
      vertex  1.750000e+001  1.639118e-010  1.900000e+001
      vertex  1.834696e+001  0.000000e+000  1.873800e+001
    endloop
  endfacet
  facet normal  6.769298e-011 -1.000000e+000  2.127008e-011
    outer loop
      vertex -1.600000e+001  1.639118e-010  1.750000e+001
      vertex -1.500000e+000  8.195589e-011 -3.250000e+001
      vertex -1.367019e+000  1.040912e-010 -3.188254e+001
    endloop
  endfacet
  facet normal  4.092120e-011 -1.000000e+000  1.333710e-011
    outer loop
      vertex -1.600000e+001  1.639118e-010  1.750000e+001
      vertex -1.367019e+000  1.040912e-010 -3.188254e+001
      vertex -9.916540e-001  1.262266e-010 -3.137456e+001
    endloop
  endfacet
  facet normal  3.379170e-011 -1.000000e+000  1.114778e-011
    outer loop
      vertex -1.600000e+001  1.639118e-010  1.750000e+001
      vertex -9.916540e-001  1.262266e-010 -3.137456e+001
      vertex -3.497203e-015  1.639118e-010 -3.100000e+001
    endloop
  endfacet
  facet normal  0.000000e+000 -1.000000e+000  0.000000e+000
    outer loop
      vertex -1.600000e+001  1.639118e-010  1.750000e+001
      vertex -3.497203e-015  1.639118e-010 -3.100000e+001
      vertex  1.060660e+000  1.639118e-010 -3.143934e+001
    endloop
  endfacet
  facet normal  0.000000e+000 -1.000000e+000  0.000000e+000
    outer loop
      vertex -1.600000e+001  1.639118e-010  1.750000e+001
      vertex  1.060660e+000  1.639118e-010 -3.143934e+001
      vertex  1.500000e+000  1.639118e-010 -3.250000e+001
    endloop
  endfacet
  facet normal -2.561180e-012 -1.000000e+000 -8.964132e-013
    outer loop
      vertex -1.600000e+001  1.639118e-010  1.750000e+001
      vertex  1.500000e+000  1.639118e-010 -3.250000e+001
      vertex  1.600000e+001  8.195400e-011  1.750000e+001
    endloop
  endfacet
  facet normal -2.561181e-012 -1.000000e+000 -3.020454e-010
    outer loop
      vertex -1.600000e+001  1.639118e-010  1.750000e+001
      vertex  1.600000e+001  8.195400e-011  1.750000e+001
      vertex -1.610194e+001  0.000000e+000  1.804354e+001
    endloop
  endfacet
  facet normal  1.415193e-011 -1.000000e+000 -8.276723e-012
    outer loop
      vertex  1.500000e+000  1.639118e-010 -3.250000e+001
      vertex  1.896077e+001  0.000000e+000  1.715920e+001
      vertex  1.851320e+001  0.000000e+000  1.639391e+001
    endloop
  endfacet
  facet normal  1.507243e-012 -9.999999e-001 -3.876859e-012
    outer loop
      vertex  1.500000e+000  1.639118e-010 -3.250000e+001
      vertex  1.851320e+001  0.000000e+000  1.639391e+001
      vertex  1.750000e+001  0.000000e+000  1.600000e+001
    endloop
  endfacet
  facet normal -9.486352e-013 -1.000000e+000 -3.066673e-012
    outer loop
      vertex  1.500000e+000  1.639118e-010 -3.250000e+001
      vertex  1.750000e+001  0.000000e+000  1.600000e+001
      vertex  1.665304e+001  0.000000e+000  1.626200e+001
    endloop
  endfacet
  facet normal -3.043961e-012 -1.000000e+000 -2.415539e-012
    outer loop
      vertex  1.500000e+000  1.639118e-010 -3.250000e+001
      vertex  1.665304e+001  0.000000e+000  1.626200e+001
      vertex  1.610194e+001  0.000000e+000  1.695646e+001
    endloop
  endfacet
  facet normal -3.191649e-010 -1.000000e+000  9.091866e-011
    outer loop
      vertex  1.500000e+000  1.639118e-010 -3.250000e+001
      vertex  1.610194e+001  0.000000e+000  1.695646e+001
      vertex  1.600000e+001  8.195400e-011  1.750000e+001
    endloop
  endfacet
  facet normal  6.269015e-011 -1.000000e+000 -4.457335e-010
    outer loop
      vertex -2.750000e+001  0.000000e+000 -3.750000e+001
      vertex -4.716848e-012  1.639118e-010 -3.400000e+001
      vertex -7.500000e-001  2.731863e-011 -3.379904e+001
    endloop
  endfacet
  facet normal -5.150286e-012 -1.000000e+000  4.460698e-011
    outer loop
      vertex -2.750000e+001  0.000000e+000 -3.750000e+001
      vertex -7.500000e-001  2.731863e-011 -3.379904e+001
      vertex -1.299038e+000  5.463726e-011 -3.325000e+001
    endloop
  endfacet
  facet normal -3.663835e-012 -1.000000e+000  3.544312e-011
    outer loop
      vertex -2.750000e+001  0.000000e+000 -3.750000e+001
      vertex -1.299038e+000  5.463726e-011 -3.325000e+001
      vertex -1.500000e+000  8.195589e-011 -3.250000e+001
    endloop
  endfacet
  facet normal -5.838538e-012 -1.000000e+000  2.421958e-012
    outer loop
      vertex  2.750000e+001  0.000000e+000 -3.750000e+001
      vertex  1.500000e+000  1.639118e-010 -3.250000e+001
      vertex  1.060660e+000  1.639080e-010 -3.356066e+001
    endloop
  endfacet
  facet normal -4.560303e-012 -1.000000e+000  1.100098e-011
    outer loop
      vertex  2.750000e+001  0.000000e+000 -3.750000e+001
      vertex  1.060660e+000  1.639080e-010 -3.356066e+001
      vertex -4.716848e-012  1.639118e-010 -3.400000e+001
    endloop
  endfacet
  facet normal  0.000000e+000 -1.000000e+000  4.683193e-011
    outer loop
      vertex  2.750000e+001  0.000000e+000 -3.750000e+001
      vertex -4.716848e-012  1.639118e-010 -3.400000e+001
      vertex -2.750000e+001  0.000000e+000 -3.750000e+001
    endloop
  endfacet
  facet normal  0.000000e+000  0.000000e+000 -1.000000e+000
    outer loop
      vertex  2.750000e+001  0.000000e+000 -3.750000e+001
      vertex -2.750000e+001  0.000000e+000 -3.750000e+001
      vertex  2.750000e+001  2.750000e+001 -3.750000e+001
    endloop
  endfacet
  facet normal  -0.000000e+000  0.000000e+000 -1.000000e+000
    outer loop
      vertex  2.750000e+001  2.750000e+001 -3.750000e+001
      vertex -2.750000e+001  0.000000e+000 -3.750000e+001
      vertex -2.750000e+001  2.750000e+001 -3.750000e+001
    endloop
  endfacet
  facet normal  0.000000e+000  1.000000e+000  0.000000e+000
    outer loop
      vertex  1.750000e+001  3.750000e+001  2.750000e+001
      vertex  1.750000e+001  3.750000e+001  3.250000e+001
      vertex  2.250000e+001  3.750000e+001  2.750000e+001
    endloop
  endfacet
  facet normal  0.000000e+000  1.000000e+000  -0.000000e+000
    outer loop
      vertex  2.250000e+001  3.750000e+001  2.750000e+001
      vertex  1.750000e+001  3.750000e+001  3.250000e+001
      vertex  2.250000e+001  3.750000e+001  3.250000e+001
    endloop
  endfacet
  facet normal  0.000000e+000  0.000000e+000 -1.000000e+000
    outer loop
      vertex  1.750000e+001  2.750000e+001  2.750000e+001
      vertex  1.750000e+001  3.750000e+001  2.750000e+001
      vertex  2.250000e+001  2.750000e+001  2.750000e+001
    endloop
  endfacet
  facet normal  0.000000e+000  0.000000e+000 -1.000000e+000
    outer loop
      vertex  2.250000e+001  2.750000e+001  2.750000e+001
      vertex  1.750000e+001  3.750000e+001  2.750000e+001
      vertex  2.250000e+001  3.750000e+001  2.750000e+001
    endloop
  endfacet
  facet normal  1.000000e+000  0.000000e+000  0.000000e+000
    outer loop
      vertex  2.250000e+001  2.750000e+001  2.750000e+001
      vertex  2.250000e+001  3.750000e+001  2.750000e+001
      vertex  2.250000e+001  2.750000e+001  3.250000e+001
    endloop
  endfacet
  facet normal  1.000000e+000  -0.000000e+000  0.000000e+000
    outer loop
      vertex  2.250000e+001  2.750000e+001  3.250000e+001
      vertex  2.250000e+001  3.750000e+001  2.750000e+001
      vertex  2.250000e+001  3.750000e+001  3.250000e+001
    endloop
  endfacet
  facet normal  0.000000e+000  0.000000e+000  1.000000e+000
    outer loop
      vertex  2.250000e+001  2.750000e+001  3.250000e+001
      vertex  2.250000e+001  3.750000e+001  3.250000e+001
      vertex  1.750000e+001  2.750000e+001  3.250000e+001
    endloop
  endfacet
  facet normal  0.000000e+000  0.000000e+000  1.000000e+000
    outer loop
      vertex  1.750000e+001  2.750000e+001  3.250000e+001
      vertex  2.250000e+001  3.750000e+001  3.250000e+001
      vertex  1.750000e+001  3.750000e+001  3.250000e+001
    endloop
  endfacet
  facet normal -1.000000e+000  -0.000000e+000  0.000000e+000
    outer loop
      vertex  1.750000e+001  2.750000e+001  3.250000e+001
      vertex  1.750000e+001  3.750000e+001  3.250000e+001
      vertex  1.750000e+001  2.750000e+001  2.750000e+001
    endloop
  endfacet
  facet normal -1.000000e+000  0.000000e+000  0.000000e+000
    outer loop
      vertex  1.750000e+001  2.750000e+001  2.750000e+001
      vertex  1.750000e+001  3.750000e+001  3.250000e+001
      vertex  1.750000e+001  3.750000e+001  2.750000e+001
    endloop
  endfacet
  facet normal  0.000000e+000  1.000000e+000  0.000000e+000
    outer loop
      vertex -2.250000e+001  3.750000e+001  2.750000e+001
      vertex -2.250000e+001  3.750000e+001  3.250000e+001
      vertex -1.750000e+001  3.750000e+001  2.750000e+001
    endloop
  endfacet
  facet normal  0.000000e+000  1.000000e+000  -0.000000e+000
    outer loop
      vertex -1.750000e+001  3.750000e+001  2.750000e+001
      vertex -2.250000e+001  3.750000e+001  3.250000e+001
      vertex -1.750000e+001  3.750000e+001  3.250000e+001
    endloop
  endfacet
  facet normal  0.000000e+000  0.000000e+000 -1.000000e+000
    outer loop
      vertex -2.250000e+001  2.750000e+001  2.750000e+001
      vertex -2.250000e+001  3.750000e+001  2.750000e+001
      vertex -1.750000e+001  2.750000e+001  2.750000e+001
    endloop
  endfacet
  facet normal  0.000000e+000  0.000000e+000 -1.000000e+000
    outer loop
      vertex -1.750000e+001  2.750000e+001  2.750000e+001
      vertex -2.250000e+001  3.750000e+001  2.750000e+001
      vertex -1.750000e+001  3.750000e+001  2.750000e+001
    endloop
  endfacet
  facet normal  1.000000e+000  0.000000e+000  0.000000e+000
    outer loop
      vertex -1.750000e+001  2.750000e+001  2.750000e+001
      vertex -1.750000e+001  3.750000e+001  2.750000e+001
      vertex -1.750000e+001  2.750000e+001  3.250000e+001
    endloop
  endfacet
  facet normal  1.000000e+000  -0.000000e+000  0.000000e+000
    outer loop
      vertex -1.750000e+001  2.750000e+001  3.250000e+001
      vertex -1.750000e+001  3.750000e+001  2.750000e+001
      vertex -1.750000e+001  3.750000e+001  3.250000e+001
    endloop
  endfacet
  facet normal  0.000000e+000  0.000000e+000  1.000000e+000
    outer loop
      vertex -1.750000e+001  2.750000e+001  3.250000e+001
      vertex -1.750000e+001  3.750000e+001  3.250000e+001
      vertex -2.250000e+001  2.750000e+001  3.250000e+001
    endloop
  endfacet
  facet normal  0.000000e+000  0.000000e+000  1.000000e+000
    outer loop
      vertex -2.250000e+001  2.750000e+001  3.250000e+001
      vertex -1.750000e+001  3.750000e+001  3.250000e+001
      vertex -2.250000e+001  3.750000e+001  3.250000e+001
    endloop
  endfacet
  facet normal -1.000000e+000  -0.000000e+000  0.000000e+000
    outer loop
      vertex -2.250000e+001  2.750000e+001  3.250000e+001
      vertex -2.250000e+001  3.750000e+001  3.250000e+001
      vertex -2.250000e+001  2.750000e+001  2.750000e+001
    endloop
  endfacet
  facet normal -1.000000e+000  0.000000e+000  0.000000e+000
    outer loop
      vertex -2.250000e+001  2.750000e+001  2.750000e+001
      vertex -2.250000e+001  3.750000e+001  3.250000e+001
      vertex -2.250000e+001  3.750000e+001  2.750000e+001
    endloop
  endfacet
endsolid CATIA STL
